<svg width="192" height="192" viewBox="0 0 192 192" fill="none" xmlns="http://www.w3.org/2000/svg">
<path d="M4 96C4 45.1898 45.1898 4 96 4C146.81 4 188 45.1898 188 96V176C188 182.627 182.627 188 176 188H16C9.37258 188 4 182.627 4 176V96Z" fill="#F8F2F8" stroke="#F8F2F8" stroke-width="8"/>
<path d="M0.0647252 177.449C0.0360986 177.13 0.0168292 176.808 0.00719367 176.484L0.257083 176.477C0.252372 176.319 0.25 176.16 0.25 176V175.5H0V174.5H0.25V173.5H0V172.5H0.25V171.5H0V170.5H0.25V169.5H0V168.5H0.25V167.5H0V166.5H0.25V165.5H0V164.5H0.25V163.5H0V162.5H0.25V161.5H0V160.5H0.25V159.5H0V158.5H0.25V157.5H0V156.5H0.25V155.5H0V154.5H0.25V153.5H0V152.5H0.25V151.5H0V150.5H0.25V149.5H0V148.5H0.25V147.5H0V146.5H0.25V145.5H0V144.5H0.25V143.5H0V142.5H0.25V141.5H0V140.5H0.25V139.5H0V138.5H0.25V137.5H0V136.5H0.25V135.5H0V134.5H0.25V133.5H0V132.5H0.25V131.5H0V130.5H0.25V129.5H0V128.5H0.25V127.5H0V126.5H0.25V125.5H0V124.5H0.25V123.5H0V122.5H0.25V121.5H0V120.5H0.25V119.5H0V118.5H0.25V117.5H0V116.5H0.25V115.5H0V114.5H0.25V113.5H0V112.5H0.25V111.5H0V110.5H0.25V109.5H0V108.5H0.25V107.5H0V106.5H0.25V105.5H0V104.5H0.25V103.5H0V102.5H0.25V101.5H0V100.5H0.25V99.5H0V98.5H0.25V97.5H0V96.5H0.25V96C0.25 95.8319 0.250433 95.6639 0.251298 95.496L0.00130176 95.4947C0.0030368 95.1581 0.0065048 94.8218 0.0116973 94.486L0.261667 94.4898C0.266847 94.1548 0.273746 93.8203 0.282357 93.4862L0.03244 93.4797C0.0410732 93.1447 0.0514224 92.8101 0.0634792 92.476L0.313317 92.485C0.325342 92.1518 0.339071 91.8189 0.354495 91.4865L0.104764 91.4749C0.120324 91.1396 0.137605 90.8047 0.156597 90.4703L0.406195 90.4845C0.425223 90.1494 0.445973 89.8148 0.468436 89.4807L0.218999 89.464C0.241521 89.129 0.265761 88.7945 0.291711 88.4605L0.54096 88.4798C0.566843 88.1467 0.59443 87.814 0.623714 87.4818L0.37468 87.4598C0.40404 87.1268 0.435101 86.7942 0.467854 86.4621L0.716647 86.4867C0.74954 86.1532 0.784144 85.8202 0.82045 85.4877L0.571928 85.4606C0.608425 85.1263 0.646637 84.7926 0.686557 84.4594L0.934781 84.4892C0.974597 84.1569 1.01611 83.8251 1.05933 83.4938L0.811426 83.4615C0.854749 83.1293 0.89977 82.7977 0.94648 82.4667L1.19403 82.5016C1.24062 82.1714 1.28889 81.8418 1.33884 81.5127L1.09167 81.4752C1.14213 81.1427 1.1943 80.8107 1.24816 80.4794L1.49492 80.5195C1.54869 80.1887 1.60415 79.8585 1.6613 79.5289L1.41497 79.4862C1.47227 79.1557 1.53126 78.8258 1.59192 78.4965L1.83779 78.5418C1.89829 78.2134 1.96048 77.8855 2.02433 77.5582L1.77896 77.5104C1.84304 77.1819 1.90879 76.8541 1.97621 76.5268L2.22107 76.5773C2.28875 76.2488 2.35811 75.9209 2.42915 75.5936L2.18484 75.5406C2.25607 75.2125 2.32897 74.885 2.40354 74.5581L2.64728 74.6137C2.72165 74.2877 2.79769 73.9623 2.87538 73.6376L2.63224 73.5795C2.71014 73.2539 2.7897 72.9289 2.8709 72.6047L3.11341 72.6654C3.19461 72.3411 3.27746 72.0175 3.36195 71.6946L3.12009 71.6313C3.20515 71.3063 3.29187 70.9819 3.38024 70.6581L3.62141 70.724C3.70955 70.4011 3.79933 70.0789 3.89075 69.7574L3.65028 69.689C3.74195 69.3667 3.83525 69.045 3.93019 68.7241L4.16992 68.795C4.26461 68.4749 4.36092 68.1555 4.45886 67.8368L4.21989 67.7633C4.31845 67.4426 4.41866 67.1225 4.52048 66.8032L4.75867 66.8792C4.86042 66.5601 4.96379 66.2417 5.06878 65.9241L4.83142 65.8457C4.93669 65.5272 5.04358 65.2095 5.15208 64.8926L5.38861 64.9735C5.49683 64.6574 5.60665 64.342 5.71807 64.0274L5.48242 63.9439C5.59413 63.6285 5.70745 63.3138 5.82237 62.9999L6.05713 63.0858C6.1723 62.7712 6.28906 62.4574 6.40743 62.1443L6.17358 62.0559C6.29226 61.742 6.41254 61.4289 6.5344 61.1166L6.7673 61.2074C6.88884 60.8959 7.01197 60.5852 7.13668 60.2753L6.90475 60.182C7.02978 59.8713 7.15639 59.5614 7.28457 59.2523L7.5155 59.348C7.64351 59.0393 7.7731 58.7314 7.90424 58.4244L7.67433 58.3262C7.80619 58.0175 7.93961 57.7096 8.0746 57.4025L8.30346 57.5031C8.43809 57.1969 8.57428 56.8915 8.71201 56.5869L8.48422 56.4839C8.62232 56.1785 8.76197 55.874 8.90316 55.5704L9.12985 55.6758C9.27067 55.3729 9.41303 55.0709 9.55692 54.7698L9.33135 54.662C9.47595 54.3594 9.6221 54.0576 9.76977 53.7567L9.9942 53.8669C10.1416 53.5665 10.2906 53.2669 10.4411 52.9683L10.2179 52.8558C10.3687 52.5564 10.5212 52.2579 10.6751 51.9603L10.8971 52.0751C11.0507 51.7783 11.2057 51.4823 11.3622 51.1873L11.1414 51.0702C11.2983 50.7743 11.4568 50.4794 11.6167 50.1854L11.8363 50.3049C11.9963 50.0109 12.1578 49.7178 12.3207 49.4257L12.1024 49.3039C12.2657 49.011 12.4306 48.7191 12.5969 48.4281L12.814 48.5521C12.9799 48.2619 13.1473 47.9726 13.3161 47.6843L13.1004 47.5579C13.2697 47.2688 13.4404 46.9807 13.6127 46.6936L13.8271 46.8222C13.999 46.5355 14.1724 46.2498 14.3473 45.965L14.1342 45.8342C14.3097 45.5484 14.4867 45.2635 14.6652 44.9797L14.8768 45.1127C15.0548 44.8296 15.2342 44.5475 15.415 44.2664L15.2048 44.1311C15.3861 43.8493 15.5688 43.5685 15.753 43.2887L15.9618 43.4261C16.1455 43.147 16.3306 42.869 16.5171 42.5919L16.3097 42.4523C16.497 42.1742 16.6857 41.897 16.8759 41.6209L17.0818 41.7627C17.2714 41.4872 17.4625 41.2128 17.655 40.9395L17.4506 40.7955C17.6435 40.5215 17.8379 40.2485 18.0337 39.9765L18.2366 40.1226C18.4318 39.8513 18.6285 39.5811 18.8265 39.312L18.6251 39.1638C18.8237 38.894 19.0237 38.6251 19.225 38.3574L19.4248 38.5077C19.6258 38.2403 19.8282 37.9741 20.0319 37.709L19.8337 37.5567C20.038 37.2909 20.2436 37.0262 20.4506 36.7626L20.6472 36.917C20.8536 36.654 21.0614 36.3922 21.2705 36.1315L21.0755 35.9751C21.2852 35.7137 21.4962 35.4535 21.7085 35.1944L21.9019 35.3528C22.1138 35.0942 22.327 34.8368 22.5416 34.5805L22.3498 34.42C22.565 34.1629 22.7815 33.907 22.9993 33.6522L23.1893 33.8147C23.4065 33.5606 23.6251 33.3076 23.8449 33.0558L23.6566 32.8914C23.877 32.639 24.0987 32.3877 24.3217 32.1376L24.5083 32.3039C24.7307 32.0545 24.9544 31.8062 25.1794 31.5591L24.9946 31.3908C25.2202 31.1429 25.4472 30.8962 25.6754 30.6508L25.8585 30.821C26.0861 30.5761 26.315 30.3325 26.5451 30.0901L26.3638 29.9179C26.5945 29.6749 26.8265 29.433 27.0598 29.1924L27.2393 29.3664C27.4719 29.1263 27.7058 28.8875 27.9409 28.65L27.7633 28.4741C27.999 28.2359 28.236 27.9989 28.4742 27.7632L28.65 27.9409C28.8876 27.7058 29.1264 27.4719 29.3664 27.2392L29.1924 27.0597C29.4331 26.8265 29.6749 26.5945 29.918 26.3637L30.0901 26.5451C30.3326 26.3149 30.5762 26.086 30.821 25.8584L30.6508 25.6753C30.8963 25.4471 31.143 25.2202 31.3908 24.9945L31.5591 25.1794C31.8062 24.9544 32.0545 24.7307 32.304 24.5082L32.1376 24.3216C32.3877 24.0986 32.639 23.8769 32.8915 23.6565L33.0559 23.8449C33.3077 23.625 33.5606 23.4065 33.8148 23.1893L33.6523 22.9992C33.9071 22.7814 34.163 22.565 34.4201 22.3498L34.5805 22.5415C34.8368 22.327 35.0943 22.1137 35.3529 21.9018L35.1944 21.7085C35.4536 21.4961 35.7138 21.2851 35.9752 21.0755L36.1316 21.2705C36.3923 21.0613 36.6541 20.8536 36.917 20.6471L36.7626 20.4505C37.0262 20.2435 37.2909 20.0379 37.5567 19.8336L37.7091 20.0319C37.9742 19.8281 38.2404 19.6258 38.5077 19.4248L38.3575 19.2249C38.6252 19.0236 38.894 18.8236 39.1639 18.625L39.3121 18.8264C39.5812 18.6284 39.8514 18.4318 40.1226 18.2365L39.9766 18.0336C40.2485 17.8379 40.5215 17.6435 40.7956 17.4505L40.9395 17.6549C41.2129 17.4625 41.4873 17.2714 41.7628 17.0817L41.621 16.8758C41.8971 16.6857 42.1742 16.497 42.4524 16.3097L42.592 16.5171C42.8691 16.3306 43.1471 16.1455 43.4262 15.9618L43.2887 15.7529C43.5686 15.5688 43.8494 15.386 44.1312 15.2047L44.2665 15.415C44.5476 15.2341 44.8297 15.0547 45.1128 14.8768L44.9798 14.6651C45.2636 14.4867 45.5484 14.3097 45.8343 14.1342L45.9651 14.3472C46.2498 14.1724 46.5356 13.999 46.8223 13.827L46.6937 13.6126C46.9808 13.4404 47.2689 13.2696 47.558 13.1004L47.6843 13.3161C47.9727 13.1472 48.262 12.9799 48.5522 12.8139L48.4281 12.5969C48.7191 12.4306 49.0111 12.2657 49.304 12.1023L49.4258 12.3207C49.7179 12.1577 50.011 11.9963 50.305 11.8363L50.1855 11.6167C50.4795 11.4567 50.7744 11.2983 51.0702 11.1413L51.1874 11.3622C51.4824 11.2056 51.7783 11.0506 52.0752 10.8971L51.9603 10.675C52.2579 10.5211 52.5565 10.3687 52.8559 10.2178L52.9684 10.4411C53.267 10.2906 53.5665 10.1416 53.867 9.99416L53.7568 9.76973C54.0577 9.62206 54.3594 9.47591 54.6621 9.33131L54.7699 9.55688C55.071 9.413 55.373 9.27064 55.6758 9.12982L55.5704 8.90312C55.8741 8.76193 56.1786 8.62229 56.484 8.48419L56.587 8.71198C56.8915 8.57424 57.1969 8.43805 57.5032 8.30342L57.4026 8.07456C57.7096 7.93958 58.0175 7.80615 58.3263 7.6743L58.4245 7.90421C58.7315 7.77307 59.0394 7.64348 59.3481 7.51546L59.2524 7.28453C59.5615 7.15636 59.8714 7.02975 60.1821 6.90472L60.2754 7.13664C60.5853 7.01194 60.896 6.88881 61.2075 6.76727L61.1166 6.53437C61.429 6.4125 61.7421 6.29223 62.056 6.17355L62.1444 6.4074C62.4574 6.28903 62.7713 6.17227 63.0859 6.0571L63 5.82234C63.3139 5.70742 63.6286 5.5941 63.944 5.48239L64.0275 5.71804C64.3421 5.60662 64.6575 5.49679 64.9736 5.38858L64.8926 5.15205C65.2096 5.04355 65.5273 4.93666 65.8457 4.83139L65.9242 5.06875C66.2418 4.96376 66.5602 4.86039 66.8792 4.75864L66.8033 4.52046C67.1226 4.41863 67.4427 4.31842 67.7634 4.21986L67.8369 4.45883C68.1556 4.36089 68.475 4.26458 68.7951 4.16989L68.7242 3.93016C69.0451 3.83522 69.3668 3.74192 69.6891 3.65026L69.7575 3.89072C70.079 3.7993 70.4012 3.70952 70.7241 3.62138L70.6582 3.38021C70.982 3.29184 71.3064 3.20512 71.6314 3.12007L71.6947 3.36193C72.0176 3.27743 72.3412 3.19458 72.6655 3.11339L72.6048 2.87088C72.929 2.78967 73.254 2.71012 73.5796 2.63222L73.6377 2.87536C73.9624 2.79767 74.2878 2.72163 74.6138 2.64726L74.5582 2.40352C74.8851 2.32895 75.2126 2.25605 75.5407 2.18482L75.5937 2.42913C75.921 2.3581 76.2489 2.28873 76.5774 2.22105L76.5269 1.9762C76.8542 1.90878 77.182 1.84302 77.5104 1.77894L77.5583 2.02432C77.8856 1.96047 78.2134 1.89828 78.5419 1.83777L78.4966 1.59191C78.8259 1.53124 79.1558 1.47226 79.4863 1.41496L79.529 1.66129C79.8586 1.60414 80.1888 1.54868 80.5195 1.49491L80.4794 1.24815C80.8108 1.19429 81.1427 1.14212 81.4752 1.09166L81.5127 1.33883C81.8418 1.28888 82.1715 1.24061 82.5017 1.19402L82.4667 0.946474C82.7978 0.899764 83.1294 0.854743 83.4615 0.81142L83.4938 1.05932C83.8251 1.01611 84.1569 0.974592 84.4892 0.934777L84.4595 0.686552C84.7927 0.646633 85.1264 0.60842 85.4606 0.571923L85.4877 0.820446C85.8202 0.78414 86.1532 0.749536 86.4867 0.716643L86.4622 0.46785C86.7942 0.435098 87.1268 0.404037 87.4599 0.374678L87.4818 0.623712C87.814 0.594428 88.1467 0.566841 88.4798 0.540958L88.4605 0.291709C88.7945 0.26576 89.129 0.24152 89.464 0.218998L89.4808 0.468435C89.8149 0.445972 90.1494 0.425222 90.4845 0.406195L90.4703 0.156597C90.8047 0.137605 91.1396 0.120324 91.4749 0.104764L91.4865 0.354495C91.8189 0.339071 92.1518 0.325342 92.485 0.313317L92.476 0.0634792C92.8102 0.0514225 93.1447 0.0410734 93.4797 0.0324403L93.4861 0.282357C93.8203 0.273746 94.1548 0.266847 94.4898 0.261668L94.4859 0.0116975C94.8218 0.00650498 95.158 0.00303693 95.4947 0.00130184L95.496 0.251299C95.6639 0.250433 95.8319 0.25 96 0.25C96.1681 0.25 96.3361 0.250433 96.504 0.251298L96.5053 0.00130176C96.8419 0.0030368 97.1782 0.0065048 97.514 0.0116973L97.5102 0.261667C97.8452 0.266847 98.1797 0.273746 98.5138 0.282357L98.5203 0.03244C98.8553 0.0410732 99.1899 0.0514224 99.524 0.0634792L99.515 0.313317C99.8482 0.325342 100.181 0.339071 100.513 0.354495L100.525 0.104764C100.86 0.120324 101.195 0.137605 101.53 0.156597L101.516 0.406195C101.851 0.425223 102.185 0.445973 102.519 0.468436L102.536 0.218999C102.871 0.241521 103.206 0.265761 103.54 0.291711L103.52 0.54096C103.853 0.566843 104.186 0.59443 104.518 0.623714L104.54 0.37468C104.873 0.40404 105.206 0.435101 105.538 0.467854L105.513 0.716647C105.847 0.74954 106.18 0.784144 106.512 0.82045L106.539 0.571928C106.874 0.608425 107.207 0.646637 107.541 0.686557L107.511 0.934781C107.843 0.974597 108.175 1.01611 108.506 1.05933L108.539 0.811426C108.871 0.854749 109.202 0.89977 109.533 0.94648L109.498 1.19403C109.829 1.24062 110.158 1.28889 110.487 1.33884L110.525 1.09167C110.857 1.14213 111.189 1.1943 111.521 1.24816L111.481 1.49492C111.811 1.54869 112.141 1.60415 112.471 1.6613L112.514 1.41497C112.844 1.47227 113.174 1.53126 113.503 1.59192L113.458 1.83779C113.787 1.89829 114.115 1.96048 114.442 2.02433L114.49 1.77896C114.818 1.84304 115.146 1.90879 115.473 1.97621L115.423 2.22107C115.751 2.28875 116.079 2.35811 116.406 2.42915L116.459 2.18484C116.788 2.25607 117.115 2.32897 117.442 2.40354L117.386 2.64728C117.712 2.72165 118.038 2.79769 118.362 2.87538L118.421 2.63224C118.746 2.71014 119.071 2.7897 119.395 2.8709L119.335 3.11341C119.659 3.19461 119.982 3.27746 120.305 3.36195L120.369 3.12009C120.694 3.20515 121.018 3.29187 121.342 3.38024L121.276 3.62141C121.599 3.70955 121.921 3.79933 122.243 3.89075L122.311 3.65028C122.633 3.74195 122.955 3.83525 123.276 3.93019L123.205 4.16992C123.525 4.26461 123.845 4.36092 124.163 4.45886L124.237 4.21989C124.557 4.31845 124.877 4.41866 125.197 4.52048L125.121 4.75867C125.44 4.86042 125.758 4.96379 126.076 5.06878L126.154 4.83142C126.473 4.93669 126.79 5.04358 127.107 5.15208L127.026 5.38861C127.343 5.49683 127.658 5.60665 127.973 5.71807L128.056 5.48242C128.372 5.59413 128.686 5.70745 129 5.82236L128.914 6.05713C129.229 6.1723 129.543 6.28906 129.856 6.40743L129.944 6.17358C130.258 6.29226 130.571 6.41254 130.883 6.5344L130.793 6.7673C131.104 6.88884 131.415 7.01197 131.725 7.13668L131.818 6.90475C132.129 7.02978 132.439 7.15639 132.748 7.28456L132.652 7.5155C132.961 7.64351 133.269 7.7731 133.576 7.90424L133.674 7.67433C133.983 7.80619 134.29 7.93961 134.598 8.0746L134.497 8.30346C134.803 8.43809 135.109 8.57428 135.413 8.71201L135.516 8.48422C135.821 8.62232 136.126 8.76197 136.43 8.90316L136.324 9.12985C136.627 9.27067 136.929 9.41303 137.23 9.55692L137.338 9.33135C137.641 9.47595 137.942 9.6221 138.243 9.76977L138.133 9.9942C138.434 10.1416 138.733 10.2906 139.032 10.4411L139.144 10.2179C139.444 10.3687 139.742 10.5212 140.04 10.6751L139.925 10.8971C140.222 11.0507 140.518 11.2057 140.813 11.3622L140.93 11.1414C141.226 11.2983 141.521 11.4568 141.815 11.6167L141.695 11.8363C141.989 11.9963 142.282 12.1578 142.574 12.3207L142.696 12.1024C142.989 12.2657 143.281 12.4306 143.572 12.5969L143.448 12.814C143.738 12.9799 144.027 13.1473 144.316 13.3161L144.442 13.1004C144.731 13.2697 145.019 13.4404 145.306 13.6127L145.178 13.8271C145.465 13.999 145.75 14.1724 146.035 14.3473L146.166 14.1342C146.452 14.3097 146.736 14.4867 147.02 14.6652L146.887 14.8768C147.17 15.0548 147.452 15.2342 147.734 15.415L147.869 15.2048C148.151 15.3861 148.432 15.5688 148.711 15.753L148.574 15.9618C148.853 16.1455 149.131 16.3306 149.408 16.5171L149.548 16.3098C149.826 16.497 150.103 16.6857 150.379 16.8759L150.237 17.0818C150.513 17.2714 150.787 17.4625 151.061 17.655L151.204 17.4506C151.479 17.6435 151.752 17.8379 152.023 18.0337L151.877 18.2366C152.149 18.4318 152.419 18.6285 152.688 18.8265L152.836 18.6251C153.106 18.8237 153.375 19.0237 153.643 19.225L153.492 19.4248C153.76 19.6258 154.026 19.8282 154.291 20.0319L154.443 19.8337C154.709 20.038 154.974 20.2436 155.237 20.4506L155.083 20.6472C155.346 20.8536 155.608 21.0614 155.868 21.2705L156.025 21.0755C156.286 21.2852 156.546 21.4962 156.806 21.7085L156.647 21.9019C156.906 22.1138 157.163 22.327 157.42 22.5416L157.58 22.3498C157.837 22.565 158.093 22.7815 158.348 22.9993L158.185 23.1893C158.439 23.4065 158.692 23.6251 158.944 23.8449L159.109 23.6566C159.361 23.877 159.612 24.0987 159.862 24.3217L159.696 24.5083C159.946 24.7307 160.194 24.9544 160.441 25.1794L160.609 24.9946C160.857 25.2202 161.104 25.4472 161.349 25.6754L161.179 25.8585C161.424 26.0861 161.667 26.315 161.91 26.5451L162.082 26.3638C162.325 26.5945 162.567 26.8265 162.808 27.0598L162.634 27.2393C162.874 27.4719 163.112 27.7058 163.35 27.9409L163.526 27.7633C163.764 27.999 164.001 28.236 164.237 28.4742L164.059 28.65C164.294 28.8876 164.528 29.1264 164.761 29.3664L164.94 29.1924C165.174 29.4331 165.406 29.6749 165.636 29.918L165.455 30.0901C165.685 30.3326 165.914 30.5762 166.142 30.821L166.325 30.6508C166.553 30.8963 166.78 31.143 167.005 31.3908L166.821 31.5591C167.046 31.8062 167.269 32.0545 167.492 32.304L167.678 32.1376C167.901 32.3877 168.123 32.639 168.343 32.8915L168.155 33.0559C168.375 33.3077 168.594 33.5606 168.811 33.8148L169.001 33.6523C169.219 33.9071 169.435 34.163 169.65 34.4201L169.458 34.5805C169.673 34.8368 169.886 35.0943 170.098 35.3529L170.292 35.1944C170.504 35.4536 170.715 35.7138 170.925 35.9752L170.73 36.1316C170.939 36.3923 171.146 36.6541 171.353 36.917L171.549 36.7626C171.756 37.0262 171.962 37.2909 172.166 37.5567L171.968 37.7091C172.172 37.9742 172.374 38.2404 172.575 38.5077L172.775 38.3575C172.976 38.6252 173.176 38.894 173.375 39.1639L173.174 39.3121C173.372 39.5812 173.568 39.8514 173.763 40.1226L173.966 39.9766C174.162 40.2485 174.357 40.5215 174.549 40.7956L174.345 40.9395C174.538 41.2129 174.729 41.4873 174.918 41.7628L175.124 41.621C175.314 41.8971 175.503 42.1742 175.69 42.4524L175.483 42.592C175.669 42.8691 175.855 43.1471 176.038 43.4262L176.247 43.2887C176.431 43.5686 176.614 43.8494 176.795 44.1312L176.585 44.2665C176.766 44.5476 176.945 44.8297 177.123 45.1128L177.335 44.9797C177.513 45.2636 177.69 45.5485 177.866 45.8343L177.653 45.9651C177.828 46.2498 178.001 46.5356 178.173 46.8223L178.387 46.6937C178.56 46.9808 178.73 47.2689 178.9 47.558L178.684 47.6843C178.853 47.9727 179.02 48.262 179.186 48.5522L179.403 48.4281C179.569 48.7191 179.734 49.0111 179.898 49.304L179.679 49.4258C179.842 49.7179 180.004 50.011 180.164 50.305L180.383 50.1855C180.543 50.4795 180.702 50.7744 180.859 51.0702L180.638 51.1874C180.794 51.4824 180.949 51.7783 181.103 52.0752L181.325 51.9603C181.479 52.2579 181.631 52.5565 181.782 52.8559L181.559 52.9684C181.709 53.267 181.858 53.5665 182.006 53.867L182.23 53.7568C182.378 54.0577 182.524 54.3594 182.669 54.6621L182.443 54.7699C182.587 55.071 182.729 55.373 182.87 55.6758L183.097 55.5704C183.238 55.8741 183.378 56.1786 183.516 56.484L183.288 56.587C183.426 56.8915 183.562 57.1969 183.697 57.5032L183.925 57.4026C184.06 57.7096 184.194 58.0175 184.326 58.3263L184.096 58.4245C184.227 58.7315 184.357 59.0394 184.485 59.3481L184.715 59.2524C184.844 59.5615 184.97 59.8714 185.095 60.1821L184.863 60.2754C184.988 60.5853 185.111 60.896 185.233 61.2075L185.466 61.1166C185.588 61.429 185.708 61.7421 185.826 62.056L185.593 62.1444C185.711 62.4574 185.828 62.7713 185.943 63.0859L186.178 63C186.293 63.3139 186.406 63.6286 186.518 63.944L186.282 64.0275C186.393 64.3421 186.503 64.6575 186.611 64.9736L186.848 64.8926C186.956 65.2096 187.063 65.5273 187.169 65.8457L186.931 65.9242C187.036 66.2418 187.14 66.5602 187.241 66.8792L187.48 66.8033C187.581 67.1226 187.682 67.4427 187.78 67.7634L187.541 67.8369C187.639 68.1556 187.735 68.475 187.83 68.7951L188.07 68.7242C188.165 69.0451 188.258 69.3668 188.35 69.6891L188.109 69.7575C188.201 70.079 188.29 70.4012 188.379 70.7241L188.62 70.6582C188.708 70.982 188.795 71.3064 188.88 71.6314L188.638 71.6947C188.723 72.0176 188.805 72.3412 188.887 72.6655L189.129 72.6048C189.21 72.929 189.29 73.254 189.368 73.5795L189.125 73.6377C189.202 73.9624 189.278 74.2878 189.353 74.6138L189.596 74.5582C189.671 74.8851 189.744 75.2126 189.815 75.5407L189.571 75.5937C189.642 75.921 189.711 76.2489 189.779 76.5774L190.024 76.5269C190.091 76.8541 190.157 77.182 190.221 77.5104L189.976 77.5583C190.04 77.8856 190.102 78.2134 190.162 78.5419L190.408 78.4966C190.469 78.8259 190.528 79.1558 190.585 79.4863L190.339 79.529C190.396 79.8586 190.451 80.1888 190.505 80.5195L190.752 80.4794C190.806 80.8108 190.858 81.1427 190.908 81.4752L190.661 81.5127C190.711 81.8418 190.759 82.1715 190.806 82.5017L191.054 82.4667C191.1 82.7978 191.145 83.1294 191.189 83.4615L190.941 83.4938C190.984 83.8251 191.025 84.1569 191.065 84.4892L191.313 84.4595C191.353 84.7927 191.392 85.1264 191.428 85.4606L191.18 85.4877C191.216 85.8202 191.25 86.1532 191.283 86.4867L191.532 86.4622C191.565 86.7942 191.596 87.1268 191.625 87.4599L191.376 87.4818C191.406 87.814 191.433 88.1467 191.459 88.4798L191.708 88.4605C191.734 88.7945 191.758 89.129 191.781 89.464L191.532 89.4808C191.554 89.8149 191.575 90.1494 191.594 90.4845L191.843 90.4703C191.862 90.8047 191.88 91.1396 191.895 91.4749L191.646 91.4865C191.661 91.8189 191.675 92.1518 191.687 92.485L191.937 92.476C191.949 92.8101 191.959 93.1447 191.968 93.4797L191.718 93.4861C191.726 93.8203 191.733 94.1548 191.738 94.4898L191.988 94.4859C191.993 94.8218 191.997 95.158 191.999 95.4947L191.749 95.496C191.75 95.6639 191.75 95.8319 191.75 96V96.5H192V97.5H191.75V98.5H192V99.5H191.75V100.5H192V101.5H191.75V102.5H192V103.5H191.75V104.5H192V105.5H191.75V106.5H192V107.5H191.75V108.5H192V109.5H191.75V110.5H192V111.5H191.75V112.5H192V113.5H191.75V114.5H192V115.5H191.75V116.5H192V117.5H191.75V118.5H192V119.5H191.75V120.5H192V121.5H191.75V122.5H192V123.5H191.75V124.5H192V125.5H191.75V126.5H192V127.5H191.75V128.5H192V129.5H191.75V130.5H192V131.5H191.75V132.5H192V133.5H191.75V134.5H192V135.5H191.75V136.5H192V137.5H191.75V138.5H192V139.5H191.75V140.5H192V141.5H191.75V142.5H192V143.5H191.75V144.5H192V145.5H191.75V146.5H192V147.5H191.75V148.5H192V149.5H191.75V150.5H192V151.5H191.75V152.5H192V153.5H191.75V154.5H192V155.5H191.75V156.5H192V157.5H191.75V158.5H192V159.5H191.75V160.5H192V161.5H191.75V162.5H192V163.5H191.75V164.5H192V165.5H191.75V166.5H192V167.5H191.75V168.5H192V169.5H191.75V170.5H192V171.5H191.75V172.5H192V173.5H191.75V174.5H192V175.5H191.75V176C191.75 176.16 191.748 176.319 191.743 176.477L191.993 176.484C191.983 176.808 191.964 177.13 191.935 177.449L191.686 177.427C191.658 177.744 191.62 178.059 191.573 178.371L191.82 178.408C191.772 178.728 191.714 179.046 191.647 179.359L191.402 179.307C191.336 179.619 191.26 179.927 191.175 180.231L191.416 180.298C191.329 180.61 191.234 180.918 191.129 181.221L190.892 181.14C190.789 181.44 190.676 181.737 190.555 182.029L190.786 182.125C190.662 182.423 190.53 182.717 190.389 183.006L190.164 182.896C190.025 183.182 189.877 183.463 189.721 183.738L189.939 183.861C189.78 184.142 189.613 184.418 189.438 184.688L189.228 184.552C189.055 184.819 188.875 185.08 188.687 185.335L188.888 185.483C188.697 185.743 188.498 185.996 188.292 186.244L188.1 186.083C187.896 186.327 187.686 186.565 187.468 186.795L187.65 186.967C187.429 187.201 187.201 187.429 186.967 187.65L186.795 187.468C186.565 187.686 186.327 187.896 186.083 188.1L186.244 188.292C185.996 188.498 185.743 188.697 185.483 188.888L185.335 188.687C185.08 188.875 184.819 189.055 184.552 189.228L184.688 189.438C184.418 189.613 184.142 189.78 183.861 189.939L183.738 189.721C183.463 189.877 183.182 190.025 182.896 190.164L183.006 190.389C182.717 190.53 182.423 190.662 182.125 190.786L182.029 190.555C181.737 190.676 181.44 190.789 181.14 190.892L181.221 191.129C180.918 191.234 180.61 191.329 180.298 191.416L180.231 191.175C179.927 191.26 179.619 191.336 179.307 191.402L179.359 191.647C179.046 191.714 178.728 191.772 178.408 191.82L178.371 191.573C178.059 191.62 177.744 191.658 177.427 191.686L177.449 191.935C177.13 191.964 176.808 191.983 176.484 191.993L176.477 191.743C176.319 191.748 176.16 191.75 176 191.75H175.5V192H174.5V191.75H173.5V192H172.5V191.75H171.5V192H170.5V191.75H169.5V192H168.5V191.75H167.5V192H166.5V191.75H165.5V192H164.5V191.75H163.5V192H162.5V191.75H161.5V192H160.5V191.75H159.5V192H158.5V191.75H157.5V192H156.5V191.75H155.5V192H154.5V191.75H153.5V192H152.5V191.75H151.5V192H150.5V191.75H149.5V192H148.5V191.75H147.5V192H146.5V191.75H145.5V192H144.5V191.75H143.5V192H142.5V191.75H141.5V192H140.5V191.75H139.5V192H138.5V191.75H137.5V192H136.5V191.75H135.5V192H134.5V191.75H133.5V192H132.5V191.75H131.5V192H130.5V191.75H129.5V192H128.5V191.75H127.5V192H126.5V191.75H125.5V192H124.5V191.75H123.5V192H122.5V191.75H121.5V192H120.5V191.75H119.5V192H118.5V191.75H117.5V192H116.5V191.75H115.5V192H114.5V191.75H113.5V192H112.5V191.75H111.5V192H110.5V191.75H109.5V192H108.5V191.75H107.5V192H106.5V191.75H105.5V192H104.5V191.75H103.5V192H102.5V191.75H101.5V192H100.5V191.75H99.5V192H98.5V191.75H97.5V192H96.5V191.75H95.5V192H94.5V191.75H93.5V192H92.5V191.75H91.5V192H90.5V191.75H89.5V192H88.5V191.75H87.5V192H86.5V191.75H85.5V192H84.5V191.75H83.5V192H82.5V191.75H81.5V192H80.5V191.75H79.5V192H78.5V191.75H77.5V192H76.5V191.75H75.5V192H74.5V191.75H73.5V192H72.5V191.75H71.5V192H70.5V191.75H69.5V192H68.5V191.75H67.5V192H66.5V191.75H65.5V192H64.5V191.75H63.5V192H62.5V191.75H61.5V192H60.5V191.75H59.5V192H58.5V191.75H57.5V192H56.5V191.75H55.5V192H54.5V191.75H53.5V192H52.5V191.75H51.5V192H50.5V191.75H49.5V192H48.5V191.75H47.5V192H46.5V191.75H45.5V192H44.5V191.75H43.5V192H42.5V191.75H41.5V192H40.5V191.75H39.5V192H38.5V191.75H37.5V192H36.5V191.75H35.5V192H34.5V191.75H33.5V192H32.5V191.75H31.5V192H30.5V191.75H29.5V192H28.5V191.75H27.5V192H26.5V191.75H25.5V192H24.5V191.75H23.5V192H22.5V191.75H21.5V192H20.5V191.75H19.5V192H18.5V191.75H17.5V192H16.5V191.75H16C15.8404 191.75 15.6814 191.748 15.523 191.743L15.5156 191.993C15.1915 191.983 14.8699 191.964 14.551 191.935L14.5734 191.686C14.2558 191.658 13.941 191.62 13.6292 191.573L13.5919 191.82C13.2716 191.772 12.9544 191.714 12.6406 191.647L12.6929 191.402C12.3813 191.336 12.0732 191.26 11.7688 191.175L11.7017 191.416C11.3902 191.329 11.0825 191.234 10.7789 191.129L10.8604 190.892C10.5598 190.789 10.2633 190.676 9.97116 190.555L9.87539 190.786C9.57701 190.662 9.28319 190.53 8.99424 190.389L9.10385 190.164C8.81816 190.025 8.53731 189.877 8.26162 189.721L8.13861 189.939C7.85765 189.78 7.58197 189.613 7.31189 189.438L7.44782 189.228C7.18132 189.055 6.92036 188.875 6.66527 188.687L6.51694 188.888C6.25735 188.697 6.00375 188.498 5.75646 188.292L5.91662 188.1C5.67292 187.896 5.43545 187.686 5.20455 187.468L5.03317 187.65C4.79855 187.429 4.57061 187.201 4.34968 186.967L4.53169 186.795C4.31425 186.565 4.10371 186.327 3.9004 186.083L3.70844 186.244C3.50213 185.996 3.30315 185.743 3.11182 185.483L3.31306 185.335C3.12505 185.08 2.94456 184.819 2.7719 184.552L2.56209 184.688C2.38711 184.418 2.22006 184.142 2.06126 183.861L2.2789 183.738C2.12307 183.463 1.97532 183.182 1.83597 182.896L1.61127 183.006C1.47032 182.717 1.33782 182.423 1.21409 182.125L1.44502 182.029C1.32389 181.737 1.2113 181.44 1.10756 181.14L0.871239 181.221C0.766488 180.918 0.670616 180.61 0.583936 180.298L0.824788 180.231C0.740092 179.927 0.66431 179.619 0.597741 179.307L0.353258 179.359C0.286215 179.046 0.228371 178.728 0.180022 178.408L0.427222 178.371C0.380156 178.059 0.342228 177.744 0.313724 177.427L0.0647252 177.449Z" fill="#232423" stroke="#F8F2F8" stroke-width="0.5" stroke-dasharray="1 1"/>
<path d="M24.0725 178.225C24.0404 177.896 24.0189 177.563 24.0081 177.228L24.2579 177.22C24.2527 177.056 24.25 176.892 24.25 176.727V176.223H24V175.214H24.25V174.205H24V173.195H24.25V172.186H24V171.177H24.25V170.168H24V169.159H24.25V168.15H24V167.141H24.25V166.132H24V165.123H24.25V164.114H24V163.105H24.25V162.095H24V161.086H24.25V160.077H24V159.068H24.25V158.059H24V157.05H24.25V156.041H24V155.032H24.25V154.023H24V153.014H24.25V152.005H24V150.995H24.25V149.986H24V148.977H24.25V147.968H24V146.959H24.25V145.95H24V144.941H24.25V143.932H24V142.923H24.25V141.914H24V140.905H24.25V139.895H24V138.886H24.25V137.877H24V136.868H24.25V135.859H24V134.85H24.25V133.841H24V132.832H24.25V131.823H24V130.814H24.25V129.805H24V128.795H24.25V127.786H24V126.777H24.25V125.768H24V124.759H24.25V123.75H24V122.741H24.25V121.732H24V120.723H24.25V119.714H24V118.705H24.25V117.695H24V116.686H24.25V115.677H24V114.668H24.25V113.659H24V112.65H24.25V111.641H24V110.632H24.25V109.623H24V108.614H24.25V107.605H24V106.595H24.25V105.586H24V104.577H24.25V103.568H24V102.559H24.25V101.55H24V100.541H24.25V99.5318H24V98.5227H24.25V97.5136H24V96.5045H24.25V96C24.25 95.8342 24.2506 95.6686 24.2517 95.5031L24.0017 95.5014C24.0039 95.1693 24.0084 94.8377 24.0152 94.5067L24.2651 94.5117C24.2718 94.1818 24.2808 93.8525 24.2919 93.5237L24.0421 93.5152C24.0533 93.1853 24.0667 92.856 24.0823 92.5272L24.332 92.5391C24.3477 92.2087 24.3656 91.879 24.3857 91.5499L24.1362 91.5346C24.1565 91.2035 24.179 90.873 24.2037 90.5431L24.453 90.5618C24.4776 90.2331 24.5045 89.905 24.5335 89.5775L24.2845 89.5554C24.3137 89.2266 24.3451 88.8984 24.3786 88.5708L24.6273 88.5963C24.6611 88.267 24.6971 87.9383 24.7353 87.6103L24.4869 87.5814C24.5253 87.2523 24.5658 86.9238 24.6086 86.5961L24.8565 86.6284C24.8991 86.3018 24.9439 85.9759 24.9909 85.6506L24.7434 85.6149C24.7907 85.2874 24.8403 84.9606 24.892 84.6346L25.1389 84.6738C25.1906 84.3472 25.2446 84.0214 25.3008 83.6964L25.0545 83.6538C25.1108 83.3276 25.1694 83.0022 25.2301 82.6775L25.4759 82.7235C25.5364 82.3999 25.5991 82.0772 25.6639 81.7552L25.4189 81.7058C25.4843 81.3808 25.552 81.0566 25.6218 80.7332L25.8662 80.786C25.9359 80.4632 26.0077 80.1412 26.0817 79.82L25.8381 79.7639C25.9124 79.4416 25.9889 79.1201 26.0675 78.7995L26.3103 78.859C26.3887 78.5391 26.4692 78.2201 26.5519 77.9019L26.3099 77.8391C26.3934 77.5181 26.4789 77.1979 26.5666 76.8787L26.8077 76.9449C26.8951 76.6268 26.9847 76.3095 27.0763 75.9932L26.8362 75.9236C26.9282 75.6062 27.0223 75.2896 27.1185 74.974L27.3577 75.0469C27.4539 74.7313 27.5522 74.4166 27.6526 74.1029L27.4146 74.0267C27.5156 73.7111 27.6187 73.3965 27.7239 73.0829L27.9609 73.1624C28.0658 72.8499 28.1728 72.5383 28.2818 72.2277L28.0459 72.1449C28.1553 71.8332 28.2668 71.5224 28.3804 71.2126L28.6151 71.2987C28.7289 70.9886 28.8447 70.6794 28.9625 70.3713L28.729 70.282C28.8473 69.9728 28.9677 69.6646 29.0901 69.3575L29.3223 69.4501C29.4443 69.144 29.5683 68.839 29.6943 68.535L29.4634 68.4393C29.5902 68.1336 29.7189 67.829 29.8498 67.5255L30.0793 67.6245C30.21 67.3214 30.3426 67.0194 30.4773 66.7185L30.2491 66.6163C30.3843 66.3144 30.5215 66.0135 30.6606 65.7138L30.8874 65.8191C31.0261 65.5204 31.1668 65.2228 31.3094 64.9263L31.0841 64.8179C31.2278 64.5194 31.3734 64.2221 31.521 63.9259L31.7448 64.0374C31.8919 63.7422 32.041 63.4482 32.192 63.1554L31.9699 63.0408C32.1214 62.7469 32.275 62.4542 32.4305 62.1627L32.6511 62.2803C32.8062 61.9895 32.9633 61.6998 33.1223 61.4113L32.9034 61.2906C33.0632 61.0007 33.225 60.712 33.3887 60.4245L33.6059 60.5482C33.769 60.2618 33.9341 59.9765 34.101 59.6925L33.8855 59.5659C34.053 59.2809 34.2224 58.9972 34.3937 58.7147L34.6075 58.8444C34.7786 58.5623 34.9516 58.2815 35.1264 58.002L34.9145 57.8694C35.0899 57.5888 35.2673 57.3096 35.4465 57.0317L35.6566 57.1672C35.8352 56.8902 36.0157 56.6146 36.198 56.3403L35.9897 56.2019C36.1728 55.9264 36.3577 55.6522 36.5445 55.3794L36.7508 55.5206C36.9371 55.2485 37.1252 54.9777 37.3151 54.7083L37.1107 54.5643C37.3013 54.2939 37.4937 54.0249 37.6879 53.7573L37.8902 53.9042C38.0838 53.6375 38.2791 53.3722 38.4761 53.1083L38.2758 52.9587C38.4739 52.6936 38.6737 52.4299 38.8752 52.1676L39.0735 52.3199C39.2743 52.0585 39.477 51.7985 39.6813 51.54L39.4852 51.3849C39.6903 51.1255 39.8972 50.8675 40.1057 50.611L40.2997 50.7687C40.5076 50.5129 40.7173 50.2587 40.9287 50.0059L40.7369 49.8455C40.9491 49.5917 41.163 49.3394 41.3786 49.0886L41.5682 49.2515C41.783 49.0016 41.9996 48.7531 42.2178 48.5062L42.0305 48.3406C42.2495 48.0928 42.4701 47.8466 42.6925 47.6018L42.8775 47.7699C43.0992 47.5259 43.3225 47.2835 43.5474 47.0426L43.3647 46.872C43.5904 46.6302 43.8178 46.39 44.0468 46.1514L44.2272 46.3245C44.4554 46.0867 44.6853 45.8505 44.9167 45.6159L44.7387 45.4403C44.971 45.2049 45.2048 44.971 45.4403 44.7388L45.6158 44.9167C45.8505 44.6853 46.0867 44.4555 46.3245 44.2272L46.1514 44.0469C46.39 43.8179 46.6302 43.5905 46.8719 43.3647L47.0425 43.5475C47.2835 43.3225 47.5259 43.0992 47.7699 42.8775L47.6018 42.6925C47.8465 42.4702 48.0928 42.2495 48.3406 42.0305L48.5062 42.2178C48.7531 41.9996 49.0016 41.7831 49.2515 41.5682L49.0885 41.3786C49.3393 41.163 49.5917 40.9491 49.8455 40.7369L50.0058 40.9287C50.2586 40.7173 50.5129 40.5077 50.7687 40.2997L50.6109 40.1058C50.8675 39.8972 51.1255 39.6903 51.3849 39.4853L51.5399 39.6814C51.7985 39.477 52.0585 39.2744 52.3199 39.0735L52.1675 38.8752C52.4298 38.6737 52.6936 38.4739 52.9587 38.2759L53.1083 38.4762C53.3722 38.2791 53.6375 38.0838 53.9041 37.8903L53.7573 37.6879C54.0249 37.4937 54.2939 37.3013 54.5642 37.1108L54.7083 37.3151C54.9777 37.1252 55.2485 36.9371 55.5206 36.7508L55.3794 36.5445C55.6522 36.3577 55.9264 36.1728 56.2019 35.9898L56.3402 36.198C56.6146 36.0157 56.8902 35.8352 57.1672 35.6566L57.0317 35.4465C57.3096 35.2673 57.5888 35.0899 57.8694 34.9145L58.0019 35.1264C58.2815 34.9516 58.5623 34.7786 58.8443 34.6075L58.7147 34.3937C58.9971 34.2224 59.2809 34.053 59.5658 33.8855L59.6925 34.101C59.9765 33.9341 60.2618 33.769 60.5482 33.6059L60.4245 33.3887C60.712 33.225 61.0007 33.0632 61.2906 32.9034L61.4113 33.1223C61.6998 32.9633 61.9895 32.8062 62.2803 32.6511L62.1627 32.4305C62.4542 32.275 62.7469 32.1214 63.0408 31.9699L63.1554 32.192C63.4482 32.041 63.7422 31.8919 64.0374 31.7448L63.9259 31.521C64.2221 31.3734 64.5194 31.2278 64.8179 31.0841L64.9263 31.3094C65.2228 31.1667 65.5204 31.0261 65.8191 30.8874L65.7138 30.6606C66.0135 30.5215 66.3144 30.3843 66.6164 30.2491L66.7185 30.4773C67.0194 30.3426 67.3214 30.21 67.6245 30.0793L67.5255 29.8498C67.829 29.7189 68.1336 29.5901 68.4393 29.4634L68.535 29.6943C68.839 29.5683 69.144 29.4443 69.4501 29.3223L69.3575 29.0901C69.6647 28.9676 69.9728 28.8473 70.282 28.729L70.3713 28.9625C70.6795 28.8447 70.9886 28.7289 71.2987 28.6151L71.2127 28.3804C71.5224 28.2668 71.8332 28.1553 72.1449 28.0459L72.2277 28.2818C72.5383 28.1727 72.8499 28.0658 73.1625 27.9609L73.0829 27.7239C73.3966 27.6187 73.7112 27.5156 74.0267 27.4145L74.1029 27.6526C74.4167 27.5522 74.7313 27.4539 75.0469 27.3577L74.974 27.1185C75.2896 27.0223 75.6062 26.9282 75.9237 26.8362L75.9932 27.0763C76.3096 26.9847 76.6268 26.8951 76.945 26.8077L76.8787 26.5666C77.198 26.4789 77.5181 26.3933 77.8391 26.3099L77.902 26.5519C78.2201 26.4692 78.5392 26.3887 78.859 26.3103L78.7995 26.0674C79.1201 25.9889 79.4416 25.9124 79.7639 25.8381L79.82 26.0817C80.1412 26.0077 80.4632 25.9359 80.786 25.8662L80.7332 25.6218C81.0566 25.552 81.3808 25.4843 81.7058 25.4189L81.7552 25.6639C82.0772 25.5991 82.4 25.5364 82.7235 25.4759L82.6775 25.2301C83.0022 25.1694 83.3277 25.1108 83.6538 25.0544L83.6964 25.3008C84.0215 25.2446 84.3473 25.1906 84.6738 25.1389L84.6347 24.8919C84.9607 24.8402 85.2875 24.7907 85.615 24.7434L85.6507 24.9909C85.9759 24.9439 86.3018 24.8991 86.6285 24.8565L86.5961 24.6086C86.9239 24.5658 87.2523 24.5253 87.5815 24.4869L87.6104 24.7353C87.9384 24.6971 88.267 24.6611 88.5964 24.6273L88.5709 24.3786C88.8984 24.345 89.2266 24.3137 89.5555 24.2845L89.5775 24.5335C89.905 24.5045 90.2332 24.4776 90.5619 24.453L90.5432 24.2037C90.8731 24.179 91.2036 24.1565 91.5347 24.1362L91.5499 24.3857C91.8791 24.3656 92.2088 24.3477 92.5392 24.332L92.5273 24.0823C92.8561 24.0667 93.1854 24.0533 93.5153 24.0421L93.5238 24.2919C93.8526 24.2808 94.1819 24.2718 94.5118 24.2651L94.5067 24.0152C94.8378 24.0084 95.1693 24.0039 95.5014 24.0017L95.5031 24.2517C95.6686 24.2506 95.8342 24.25 96 24.25C96.1658 24.25 96.3314 24.2506 96.4969 24.2517L96.4986 24.0017C96.8307 24.0039 97.1623 24.0084 97.4933 24.0152L97.4883 24.2651C97.8182 24.2718 98.1475 24.2808 98.4763 24.2919L98.4848 24.0421C98.8147 24.0533 99.144 24.0667 99.4728 24.0823L99.4609 24.332C99.7913 24.3477 100.121 24.3656 100.45 24.3857L100.465 24.1362C100.796 24.1565 101.127 24.179 101.457 24.2037L101.438 24.453C101.767 24.4776 102.095 24.5045 102.423 24.5335L102.445 24.2845C102.773 24.3137 103.102 24.3451 103.429 24.3786L103.404 24.6273C103.733 24.6611 104.062 24.6971 104.39 24.7353L104.419 24.4869C104.748 24.5253 105.076 24.5658 105.404 24.6086L105.372 24.8565C105.698 24.8991 106.024 24.9439 106.349 24.9909L106.385 24.7434C106.713 24.7907 107.039 24.8403 107.365 24.892L107.326 25.1389C107.653 25.1907 107.979 25.2446 108.304 25.3008L108.346 25.0545C108.672 25.1108 108.998 25.1694 109.323 25.2301L109.277 25.4759C109.6 25.5364 109.923 25.5991 110.245 25.6639L110.294 25.4189C110.619 25.4843 110.943 25.552 111.267 25.6218L111.214 25.8662C111.537 25.9359 111.859 26.0077 112.18 26.0817L112.236 25.8381C112.558 25.9124 112.88 25.9889 113.201 26.0675L113.141 26.3103C113.461 26.3887 113.78 26.4692 114.098 26.5519L114.161 26.3099C114.482 26.3934 114.802 26.4789 115.121 26.5667L115.055 26.8077C115.373 26.8951 115.69 26.9847 116.007 27.0763L116.076 26.8362C116.394 26.9282 116.71 27.0223 117.026 27.1185L116.953 27.3577C117.269 27.4539 117.583 27.5522 117.897 27.6526L117.973 27.4146C118.289 27.5156 118.603 27.6187 118.917 27.7239L118.838 27.9609C119.15 28.0658 119.462 28.1728 119.772 28.2818L119.855 28.0459C120.167 28.1553 120.478 28.2668 120.787 28.3804L120.701 28.6151C121.011 28.7289 121.321 28.8447 121.629 28.9625L121.718 28.729C122.027 28.8473 122.335 28.9677 122.642 29.0901L122.55 29.3223C122.856 29.4443 123.161 29.5683 123.465 29.6943L123.561 29.4634C123.866 29.5902 124.171 29.7189 124.474 29.8498L124.376 30.0793C124.679 30.21 124.981 30.3426 125.282 30.4773L125.384 30.2491C125.686 30.3843 125.986 30.5215 126.286 30.6606L126.181 30.8874C126.48 31.0261 126.777 31.1668 127.074 31.3094L127.182 31.0841C127.481 31.2278 127.778 31.3734 128.074 31.521L127.963 31.7448C128.258 31.8919 128.552 32.041 128.845 32.192L128.959 31.9699C129.253 32.1214 129.546 32.275 129.837 32.4305L129.72 32.6511C130.011 32.8062 130.3 32.9633 130.589 33.1223L130.709 32.9034C130.999 33.0632 131.288 33.225 131.575 33.3887L131.452 33.6059C131.738 33.769 132.023 33.9341 132.307 34.101L132.434 33.8855C132.719 34.053 133.003 34.2224 133.285 34.3937L133.156 34.6075C133.438 34.7786 133.719 34.9516 133.998 35.1264L134.131 34.9145C134.411 35.0899 134.69 35.2673 134.968 35.4465L134.833 35.6566C135.11 35.8352 135.385 36.0157 135.66 36.198L135.798 35.9897C136.074 36.1728 136.348 36.3577 136.621 36.5445L136.479 36.7508C136.751 36.9371 137.022 37.1252 137.292 37.3151L137.436 37.1107C137.706 37.3013 137.975 37.4937 138.243 37.6879L138.096 37.8902C138.363 38.0838 138.628 38.2791 138.892 38.4761L139.041 38.2758C139.306 38.4739 139.57 38.6737 139.832 38.8752L139.68 39.0735C139.942 39.2743 140.201 39.477 140.46 39.6813L140.615 39.4852C140.874 39.6903 141.132 39.8972 141.389 40.1057L141.231 40.2997C141.487 40.5076 141.741 40.7173 141.994 40.9287L142.155 40.7369C142.408 40.9491 142.661 41.163 142.911 41.3786L142.748 41.5682C142.998 41.783 143.247 41.9996 143.494 42.2178L143.659 42.0305C143.907 42.2495 144.153 42.4701 144.398 42.6925L144.23 42.8775C144.474 43.0992 144.717 43.3225 144.957 43.5474L145.128 43.3647C145.37 43.5904 145.61 43.8178 145.849 44.0468L145.675 44.2272C145.913 44.4554 146.149 44.6853 146.384 44.9167L146.56 44.7387C146.795 44.971 147.029 45.2048 147.261 45.4403L147.083 45.6158C147.315 45.8505 147.545 46.0867 147.773 46.3245L147.953 46.1514C148.182 46.39 148.41 46.6302 148.635 46.8719L148.453 47.0425C148.677 47.2835 148.901 47.5259 149.122 47.7699L149.307 47.6018C149.53 47.8465 149.75 48.0928 149.969 48.3406L149.782 48.5062C150 48.7531 150.217 49.0016 150.432 49.2515L150.621 49.0885C150.837 49.3393 151.051 49.5917 151.263 49.8455L151.071 50.0058C151.283 50.2586 151.492 50.5129 151.7 50.7687L151.894 50.6109C152.103 50.8675 152.31 51.1255 152.515 51.3849L152.319 51.5399C152.523 51.7985 152.726 52.0585 152.927 52.3199L153.125 52.1675C153.326 52.4298 153.526 52.6936 153.724 52.9587L153.524 53.1083C153.721 53.3722 153.916 53.6375 154.11 53.9041L154.312 53.7573C154.506 54.0249 154.699 54.2939 154.889 54.5642L154.685 54.7083C154.875 54.9777 155.063 55.2485 155.249 55.5206L155.456 55.3794C155.642 55.6522 155.827 55.9264 156.01 56.2019L155.802 56.3402C155.984 56.6146 156.165 56.8902 156.343 57.1672L156.553 57.0317C156.733 57.3096 156.91 57.5888 157.086 57.8694L156.874 58.0019C157.048 58.2815 157.221 58.5623 157.393 58.8443L157.606 58.7147C157.778 58.9971 157.947 59.2809 158.115 59.5658L157.899 59.6925C158.066 59.9765 158.231 60.2618 158.394 60.5482L158.611 60.4245C158.775 60.712 158.937 61.0007 159.097 61.2906L158.878 61.4113C159.037 61.6998 159.194 61.9895 159.349 62.2803L159.57 62.1627C159.725 62.4542 159.879 62.7469 160.03 63.0408L159.808 63.1554C159.959 63.4482 160.108 63.7422 160.255 64.0374L160.479 63.9259C160.627 64.2221 160.772 64.5194 160.916 64.8179L160.691 64.9263C160.833 65.2228 160.974 65.5204 161.113 65.8191L161.339 65.7138C161.479 66.0135 161.616 66.3144 161.751 66.6164L161.523 66.7185C161.657 67.0194 161.79 67.3214 161.921 67.6245L162.15 67.5255C162.281 67.829 162.41 68.1336 162.537 68.4393L162.306 68.535C162.432 68.839 162.556 69.144 162.678 69.4501L162.91 69.3575C163.032 69.6647 163.153 69.9728 163.271 70.282L163.037 70.3713C163.155 70.6795 163.271 70.9886 163.385 71.2987L163.62 71.2127C163.733 71.5224 163.845 71.8332 163.954 72.1449L163.718 72.2277C163.827 72.5383 163.934 72.8499 164.039 73.1625L164.276 73.0829C164.381 73.3966 164.484 73.7112 164.585 74.0267L164.347 74.1029C164.448 74.4167 164.546 74.7313 164.642 75.0469L164.881 74.974C164.978 75.2896 165.072 75.6062 165.164 75.9237L164.924 75.9932C165.015 76.3096 165.105 76.6268 165.192 76.945L165.433 76.8787C165.521 77.198 165.607 77.5181 165.69 77.8391L165.448 77.902C165.531 78.2201 165.611 78.5392 165.69 78.859L165.933 78.7995C166.011 79.1201 166.088 79.4416 166.162 79.7639L165.918 79.82C165.992 80.1412 166.064 80.4632 166.134 80.786L166.378 80.7332C166.448 81.0566 166.516 81.3808 166.581 81.7058L166.336 81.7552C166.401 82.0772 166.464 82.4 166.524 82.7235L166.77 82.6775C166.831 83.0022 166.889 83.3277 166.946 83.6538L166.699 83.6964C166.755 84.0215 166.809 84.3473 166.861 84.6738L167.108 84.6347C167.16 84.9607 167.209 85.2875 167.257 85.6149L167.009 85.6507C167.056 85.9759 167.101 86.3018 167.144 86.6285L167.391 86.5961C167.434 86.9239 167.475 87.2523 167.513 87.5815L167.265 87.6104C167.303 87.9384 167.339 88.267 167.373 88.5964L167.621 88.5709C167.655 88.8984 167.686 89.2266 167.715 89.5555L167.466 89.5775C167.496 89.905 167.522 90.2332 167.547 90.5619L167.796 90.5432C167.821 90.8731 167.844 91.2036 167.864 91.5347L167.614 91.5499C167.634 91.8791 167.652 92.2088 167.668 92.5392L167.918 92.5273C167.933 92.8561 167.947 93.1854 167.958 93.5153L167.708 93.5238C167.719 93.8526 167.728 94.1819 167.735 94.5118L167.985 94.5067C167.992 94.8378 167.996 95.1693 167.998 95.5014L167.748 95.5031C167.749 95.6686 167.75 95.8342 167.75 96V96.5045H168V97.5136H167.75V98.5227H168V99.5318H167.75V100.541H168V101.55H167.75V102.559H168V103.568H167.75V104.577H168V105.586H167.75V106.595H168V107.605H167.75V108.614H168V109.623H167.75V110.632H168V111.641H167.75V112.65H168V113.659H167.75V114.668H168V115.677H167.75V116.686H168V117.695H167.75V118.705H168V119.714H167.75V120.723H168V121.732H167.75V122.741H168V123.75H167.75V124.759H168V125.768H167.75V126.777H168V127.786H167.75V128.795H168V129.805H167.75V130.814H168V131.823H167.75V132.832H168V133.841H167.75V134.85H168V135.859H167.75V136.868H168V137.877H167.75V138.886H168V139.895H167.75V140.905H168V141.914H167.75V142.923H168V143.932H167.75V144.941H168V145.95H167.75V146.959H168V147.968H167.75V148.977H168V149.986H167.75V150.995H168V152.005H167.75V153.014H168V154.023H167.75V155.032H168V156.041H167.75V157.05H168V158.059H167.75V159.068H168V160.077H167.75V161.086H168V162.095H167.75V163.105H168V164.114H167.75V165.123H168V166.132H167.75V167.141H168V168.15H167.75V169.159H168V170.168H167.75V171.177H168V172.186H167.75V173.195H168V174.205H167.75V175.214H168V176.223H167.75V176.727C167.75 176.892 167.747 177.056 167.742 177.22L167.992 177.228C167.981 177.563 167.96 177.896 167.928 178.225L167.679 178.201C167.647 178.529 167.604 178.854 167.551 179.176L167.798 179.216C167.744 179.547 167.679 179.874 167.604 180.197L167.361 180.14C167.286 180.461 167.201 180.777 167.107 181.09L167.346 181.162C167.249 181.482 167.142 181.798 167.025 182.109L166.791 182.021C166.675 182.328 166.549 182.631 166.414 182.929L166.642 183.032C166.504 183.336 166.356 183.635 166.199 183.928L165.979 183.81C165.824 184.1 165.66 184.383 165.487 184.661L165.699 184.793C165.522 185.076 165.337 185.353 165.143 185.624L164.94 185.478C164.748 185.745 164.548 186.005 164.341 186.258L164.534 186.416C164.322 186.674 164.102 186.924 163.874 187.168L163.692 186.997C163.468 187.236 163.236 187.468 162.997 187.692L163.168 187.874C162.924 188.102 162.674 188.322 162.416 188.534L162.258 188.341C162.005 188.548 161.745 188.748 161.478 188.94L161.624 189.143C161.353 189.337 161.076 189.522 160.793 189.699L160.661 189.487C160.383 189.66 160.1 189.824 159.81 189.979L159.928 190.199C159.635 190.356 159.336 190.504 159.032 190.642L158.929 190.414C158.631 190.549 158.328 190.675 158.021 190.791L158.109 191.025C157.798 191.142 157.482 191.249 157.162 191.346L157.09 191.107C156.777 191.201 156.461 191.286 156.14 191.361L156.197 191.604C155.874 191.679 155.547 191.744 155.216 191.798L155.176 191.551C154.854 191.604 154.529 191.647 154.201 191.679L154.225 191.928C153.896 191.96 153.563 191.981 153.228 191.992L153.22 191.742C153.056 191.747 152.892 191.75 152.727 191.75H152.23V192H151.235V191.75H150.239V192H149.244V191.75H148.249V192H147.254V191.75H146.258V192H145.263V191.75H144.268V192H143.273V191.75H142.278V192H141.282V191.75H140.287V192H139.292V191.75H138.297V192H137.302V191.75H136.306V192H135.311V191.75H134.316V192H133.321V191.75H132.325V192H131.33V191.75H130.335V192H129.34V191.75H128.345V192H127.349V191.75H126.354V192H125.359V191.75H124.364V192H123.368V191.75H122.373V192H121.378V191.75H120.383V192H119.388V191.75H118.392V192H117.397V191.75H116.402V192H115.407V191.75H114.412V192H113.416V191.75H112.421V192H111.426V191.75H110.431V192H109.435V191.75H108.44V192H107.445V191.75H106.45V192H105.455V191.75H104.459V192H103.464V191.75H102.469V192H101.474V191.75H100.479V192H99.4833V191.75H98.4881V192H97.4929V191.75H96.4977V192H95.5024V191.75H94.5072V192H93.512V191.75H92.5168V192H91.5216V191.75H90.5264V192H89.5311V191.75H88.5359V192H87.5407V191.75H86.5455V192H85.5503V191.75H84.555V192H83.5598V191.75H82.5646V192H81.5694V191.75H80.5742V192H79.579V191.75H78.5838V192H77.5885V191.75H76.5933V192H75.5981V191.75H74.6029V192H73.6077V191.75H72.6125V192H71.6172V191.75H70.622V192H69.6268V191.75H68.6316V192H67.6364V191.75H66.6412V192H65.6459V191.75H64.6507V192H63.6555V191.75H62.6603V192H61.6651V191.75H60.6699V192H59.6746V191.75H58.6794V192H57.6842V191.75H56.689V192H55.6938V191.75H54.6986V192H53.7033V191.75H52.7081V192H51.7129V191.75H50.7177V192H49.7225V191.75H48.7273V192H47.7321V191.75H46.7368V192H45.7416V191.75H44.7464V192H43.7512V191.75H42.756V192H41.7608V191.75H40.7655V192H39.7703V191.75H39.2727C39.1078 191.75 38.9436 191.747 38.78 191.742L38.7719 191.992C38.4368 191.981 38.1045 191.96 37.7752 191.928L37.7994 191.679C37.4711 191.647 37.1459 191.604 36.8242 191.551L36.7838 191.798C36.4532 191.744 36.1262 191.679 35.8031 191.604L35.8596 191.361C35.5391 191.286 35.2225 191.201 34.9103 191.107L34.8378 191.346C34.5177 191.249 34.2021 191.142 33.8913 191.025L33.9794 190.791C33.6717 190.675 33.3689 190.549 33.0712 190.414L32.9679 190.642C32.6638 190.504 32.365 190.356 32.0719 190.199L32.19 189.979C31.9005 189.824 31.6167 189.66 31.3389 189.487L31.2067 189.699C30.9235 189.522 30.6465 189.337 30.3761 189.143L30.5219 188.94C30.2554 188.748 29.9954 188.548 29.7424 188.341L29.5837 188.534C29.3261 188.322 29.0755 188.102 28.8324 187.874L29.0033 187.692C28.7641 187.468 28.5322 187.236 28.3081 186.997L28.1256 187.168C27.8979 186.924 27.6779 186.674 27.4663 186.416L27.6595 186.258C27.4515 186.005 27.2517 185.745 27.0604 185.478L26.8573 185.624C26.6632 185.353 26.4777 185.076 26.3013 184.793L26.5134 184.661C26.3403 184.383 26.1761 184.1 26.021 183.81L25.8007 183.928C25.6437 183.635 25.496 183.336 25.358 183.032L25.5857 182.929C25.4506 182.631 25.3249 182.328 25.209 182.021L24.9751 182.109C24.858 181.798 24.7508 181.482 24.6539 181.162L24.8931 181.09C24.7985 180.777 24.7138 180.461 24.6394 180.14L24.3958 180.197C24.3208 179.874 24.256 179.547 24.2018 179.216L24.4485 179.176C24.3958 178.854 24.3533 178.529 24.3213 178.201L24.0725 178.225Z" fill="#232423" stroke="#F8F2F8" stroke-width="0.5" stroke-dasharray="1 1"/>
<path d="M48.0896 180.449C48.05 180.111 48.0233 179.769 48.0099 179.424L48.2597 179.414C48.2533 179.247 48.25 179.078 48.25 178.909V178.403H48V177.392H48.25V176.381H48V175.37H48.25V174.359H48V173.348H48.25V172.337H48V171.326H48.25V170.315H48V169.304H48.25V168.293H48V167.282H48.25V166.27H48V165.259H48.25V164.248H48V163.237H48.25V162.226H48V161.215H48.25V160.204H48V159.193H48.25V158.182H48V157.171H48.25V156.16H48V155.149H48.25V154.137H48V153.126H48.25V152.115H48V151.104H48.25V150.093H48V149.082H48.25V148.071H48V147.06H48.25V146.049H48V145.038H48.25V144.027H48V143.015H48.25V142.004H48V140.993H48.25V139.982H48V138.971H48.25V137.96H48V136.949H48.25V135.938H48V134.927H48.25V133.916H48V132.905H48.25V131.894H48V130.882H48.25V129.871H48V128.86H48.25V127.849H48V126.838H48.25V125.827H48V124.816H48.25V123.805H48V122.794H48.25V121.783H48V120.772H48.25V119.761H48V118.749H48.25V117.738H48V116.727H48.25V115.716H48V114.705H48.25V113.694H48V112.683H48.25V111.672H48V110.661H48.25V109.65H48V108.639H48.25V107.627H48V106.616H48.25V105.605H48V104.594H48.25V103.583H48V102.572H48.25V101.561H48V100.55H48.25V99.5388H48V98.5277H48.25V97.5166H48V96.5055H48.25V96C48.25 95.8345 48.2508 95.6693 48.2525 95.5042L48.0025 95.5016C48.0059 95.1698 48.0127 94.8388 48.0227 94.5086L48.2726 94.5162C48.2826 94.1877 48.296 93.86 48.3126 93.5332L48.0629 93.5205C48.0798 93.1885 48.1001 92.8574 48.1237 92.5272L48.3731 92.545C48.3966 92.2165 48.4234 91.889 48.4535 91.5624L48.2045 91.5394C48.2349 91.2094 48.2687 90.8804 48.3057 90.5523L48.5542 90.5804C48.5912 90.2526 48.6315 89.9259 48.6751 89.6002L48.4274 89.567C48.4713 89.2393 48.5185 88.9126 48.5689 88.5871L48.816 88.6254C48.8666 88.299 48.9205 87.9738 48.9776 87.6497L48.7314 87.6063C48.7889 87.2804 48.8496 86.9558 48.9136 86.6323L49.1589 86.6808C49.2229 86.3573 49.2901 86.035 49.3606 85.714L49.1164 85.6603C49.1875 85.3368 49.2617 85.0145 49.3393 84.6935L49.5823 84.7521C49.6595 84.4322 49.74 84.1135 49.8237 83.7961L49.5819 83.7324C49.6664 83.4118 49.7541 83.0925 49.8451 82.7746L50.0854 82.8434C50.1759 82.5271 50.2695 82.2123 50.3663 81.8987L50.1274 81.825C50.2252 81.5082 50.3261 81.1929 50.4302 80.8789L50.6675 80.9576C50.7712 80.6451 50.8779 80.3341 50.9878 80.0245L50.7522 79.9409C50.863 79.6289 50.9768 79.3184 51.0938 79.0094L51.3276 79.0979C51.4442 78.7899 51.5639 78.4833 51.6867 78.1783L51.4548 78.0849C51.5783 77.7781 51.7049 77.4729 51.8345 77.1693L52.0645 77.2674C52.1939 76.9643 52.3263 76.6628 52.4617 76.363L52.2339 76.2601C52.3701 75.9587 52.5092 75.6589 52.6514 75.3609L52.8771 75.4685C53.0189 75.1712 53.1637 74.8755 53.3114 74.5816L53.0881 74.4693C53.2367 74.1737 53.3883 73.8798 53.5428 73.5877L53.7638 73.7046C53.9177 73.4136 54.0745 73.1244 54.2343 72.8371L54.0157 72.7156C54.1765 72.4263 54.3402 72.1388 54.5068 71.8532L54.7228 71.9792C54.8885 71.695 55.0571 71.4126 55.2285 71.1322L55.0152 71.0018C55.1878 70.7194 55.3633 70.4388 55.5416 70.1603L55.7522 70.295C55.9296 70.0179 56.1097 69.7427 56.2926 69.4695L56.0849 69.3305C56.269 69.0555 56.4558 68.7825 56.6454 68.5115L56.8503 68.6549C57.0389 68.3852 57.2303 68.1176 57.4244 67.8521L57.2226 67.7046C57.4178 67.4375 57.6157 67.1726 57.8163 66.9097L58.015 67.0614C58.2147 66.7997 58.4169 66.5402 58.6218 66.2828L58.4263 66.1271C58.6322 65.8683 58.8408 65.6118 59.052 65.3574L59.2444 65.5171C59.4546 65.2639 59.6674 65.0129 59.8828 64.7641L59.6937 64.6005C59.9102 64.3504 60.1292 64.1026 60.3507 63.8571L60.5363 64.0246C60.7567 63.7803 60.9797 63.5382 61.205 63.2985L61.0229 63.1273C61.2494 62.8863 61.4785 62.6477 61.7099 62.4115L61.8885 62.5864C62.1187 62.3514 62.3514 62.1187 62.5864 61.8885L62.4114 61.7099C62.6477 61.4785 62.8863 61.2495 63.1273 61.0229L63.2985 61.205C63.5382 60.9797 63.7803 60.7568 64.0246 60.5363L63.8571 60.3507C64.1026 60.1292 64.3504 59.9102 64.6005 59.6938L64.7641 59.8828C65.0129 59.6674 65.2639 59.4546 65.5171 59.2444L65.3574 59.052C65.6118 58.8409 65.8683 58.6322 66.1271 58.4263L66.2828 58.6218C66.5402 58.417 66.7997 58.2147 67.0613 58.015L66.9097 57.8163C67.1725 57.6157 67.4375 57.4178 67.7046 57.2226L67.8521 57.4244C68.1176 57.2304 68.3852 57.039 68.6549 56.8503L68.5115 56.6454C68.7825 56.4558 69.0555 56.269 69.3305 56.0849L69.4695 56.2926C69.7427 56.1097 70.0179 55.9296 70.295 55.7522L70.1602 55.5416C70.4388 55.3633 70.7194 55.1879 71.0018 55.0152L71.1322 55.2285C71.4126 55.0571 71.695 54.8885 71.9792 54.7228L71.8532 54.5068C72.1388 54.3402 72.4263 54.1765 72.7156 54.0157L72.8371 54.2343C73.1244 54.0745 73.4136 53.9177 73.7046 53.7638L73.5877 53.5428C73.8798 53.3883 74.1737 53.2367 74.4693 53.0881L74.5816 53.3114C74.8755 53.1637 75.1711 53.0189 75.4685 52.8771L75.3608 52.6514C75.6589 52.5093 75.9586 52.3701 76.2601 52.2339L76.363 52.4618C76.6628 52.3263 76.9643 52.1939 77.2674 52.0645L77.1692 51.8345C77.4729 51.7049 77.7781 51.5783 78.0849 51.4548L78.1783 51.6867C78.4833 51.564 78.7898 51.4442 79.0979 51.3276L79.0094 51.0938C79.3184 50.9768 79.6289 50.863 79.9409 50.7522L80.0245 50.9878C80.3341 50.878 80.6451 50.7712 80.9576 50.6675L80.8789 50.4303C81.1928 50.3261 81.5082 50.2252 81.825 50.1274L81.8987 50.3663C82.2122 50.2695 82.5271 50.1759 82.8434 50.0854L82.7746 49.8451C83.0925 49.7542 83.4118 49.6664 83.7323 49.5819L83.7961 49.8237C84.1135 49.74 84.4322 49.6595 84.7521 49.5823L84.6934 49.3393C85.0145 49.2618 85.3368 49.1875 85.6603 49.1164L85.7139 49.3606C86.035 49.2901 86.3573 49.2229 86.6807 49.1589L86.6322 48.9136C86.9557 48.8496 87.2804 48.7889 87.6062 48.7314L87.6497 48.9776C87.9738 48.9205 88.299 48.8666 88.6253 48.816L88.587 48.5689C88.9126 48.5185 89.2393 48.4713 89.567 48.4274L89.6002 48.6751C89.9259 48.6315 90.2526 48.5912 90.5804 48.5542L90.5523 48.3057C90.8803 48.2687 91.2094 48.2349 91.5394 48.2045L91.5623 48.4535C91.889 48.4234 92.2165 48.3966 92.545 48.3731L92.5272 48.1237C92.8573 48.1001 93.1884 48.0798 93.5205 48.0629L93.5332 48.3126C93.86 48.296 94.1877 48.2826 94.5162 48.2726L94.5086 48.0227C94.8388 48.0127 95.1698 48.0059 95.5016 48.0025L95.5042 48.2525C95.6693 48.2508 95.8345 48.25 96 48.25C96.1655 48.25 96.3307 48.2508 96.4958 48.2525L96.4983 48.0025C96.8302 48.0059 97.1612 48.0127 97.4914 48.0227L97.4838 48.2726C97.8123 48.2826 98.14 48.296 98.4668 48.3126L98.4795 48.0629C98.8115 48.0798 99.1426 48.1001 99.4728 48.1237L99.455 48.3731C99.7835 48.3966 100.111 48.4234 100.438 48.4535L100.461 48.2045C100.791 48.2349 101.12 48.2687 101.448 48.3057L101.42 48.5542C101.747 48.5912 102.074 48.6315 102.4 48.6751L102.433 48.4274C102.761 48.4713 103.087 48.5185 103.413 48.5689L103.375 48.816C103.701 48.8666 104.026 48.9205 104.35 48.9776L104.394 48.7314C104.72 48.7889 105.044 48.8496 105.368 48.9136L105.319 49.1589C105.643 49.2229 105.965 49.2901 106.286 49.3606L106.34 49.1164C106.663 49.1875 106.985 49.2617 107.307 49.3393L107.248 49.5823C107.568 49.6595 107.887 49.74 108.204 49.8237L108.268 49.5819C108.588 49.6664 108.907 49.7541 109.225 49.8451L109.157 50.0854C109.473 50.1759 109.788 50.2695 110.101 50.3663L110.175 50.1274C110.492 50.2252 110.807 50.3261 111.121 50.4302L111.042 50.6675C111.355 50.7712 111.666 50.8779 111.975 50.9878L112.059 50.7522C112.371 50.863 112.682 50.9768 112.991 51.0938L112.902 51.3276C113.21 51.4442 113.517 51.5639 113.822 51.6867L113.915 51.4548C114.222 51.5783 114.527 51.7049 114.831 51.8345L114.733 52.0645C115.036 52.1939 115.337 52.3263 115.637 52.4617L115.74 52.2339C116.041 52.3701 116.341 52.5093 116.639 52.6514L116.532 52.8771C116.829 53.0189 117.124 53.1637 117.418 53.3114L117.531 53.0881C117.826 53.2367 118.12 53.3883 118.412 53.5428L118.295 53.7638C118.586 53.9177 118.876 54.0745 119.163 54.2343L119.284 54.0157C119.574 54.1765 119.861 54.3402 120.147 54.5068L120.021 54.7228C120.305 54.8885 120.587 55.0571 120.868 55.2285L120.998 55.0152C121.281 55.1878 121.561 55.3633 121.84 55.5416L121.705 55.7522C121.982 55.9296 122.257 56.1097 122.53 56.2926L122.67 56.0849C122.945 56.269 123.218 56.4558 123.488 56.6454L123.345 56.8503C123.615 57.0389 123.882 57.2303 124.148 57.4244L124.295 57.2226C124.562 57.4178 124.827 57.6157 125.09 57.8163L124.939 58.015C125.2 58.2147 125.46 58.4169 125.717 58.6218L125.873 58.4263C126.132 58.6322 126.388 58.8408 126.643 59.052L126.483 59.2444C126.736 59.4546 126.987 59.6674 127.236 59.8828L127.4 59.6937C127.65 59.9102 127.897 60.1292 128.143 60.3507L127.975 60.5363C128.22 60.7567 128.462 60.9797 128.701 61.205L128.873 61.0229C129.114 61.2494 129.352 61.4785 129.589 61.7099L129.414 61.8885C129.649 62.1187 129.881 62.3514 130.112 62.5864L130.29 62.4114C130.522 62.6477 130.751 62.8863 130.977 63.1273L130.795 63.2985C131.02 63.5382 131.243 63.7803 131.464 64.0246L131.649 63.8571C131.871 64.1026 132.09 64.3504 132.306 64.6005L132.117 64.7641C132.333 65.0129 132.545 65.2639 132.756 65.5171L132.948 65.3574C133.159 65.6118 133.368 65.8683 133.574 66.1271L133.378 66.2828C133.583 66.5402 133.785 66.7997 133.985 67.0613L134.184 66.9097C134.384 67.1725 134.582 67.4375 134.777 67.7046L134.576 67.8521C134.77 68.1176 134.961 68.3852 135.15 68.6549L135.355 68.5115C135.544 68.7825 135.731 69.0555 135.915 69.3305L135.707 69.4695C135.89 69.7427 136.07 70.0179 136.248 70.295L136.458 70.1602C136.637 70.4388 136.812 70.7194 136.985 71.0018L136.771 71.1322C136.943 71.4126 137.111 71.695 137.277 71.9792L137.493 71.8532C137.66 72.1388 137.823 72.4263 137.984 72.7156L137.766 72.8371C137.925 73.1244 138.082 73.4136 138.236 73.7046L138.457 73.5877C138.612 73.8798 138.763 74.1737 138.912 74.4693L138.689 74.5816C138.836 74.8755 138.981 75.1711 139.123 75.4685L139.349 75.3608C139.491 75.6589 139.63 75.9586 139.766 76.2601L139.538 76.363C139.674 76.6628 139.806 76.9643 139.936 77.2674L140.165 77.1692C140.295 77.4729 140.422 77.7781 140.545 78.0849L140.313 78.1783C140.436 78.4833 140.556 78.7898 140.672 79.0979L140.906 79.0094C141.023 79.3184 141.137 79.6289 141.248 79.9409L141.012 80.0245C141.122 80.3341 141.229 80.6451 141.332 80.9576L141.57 80.8789C141.674 81.1928 141.775 81.5082 141.873 81.825L141.634 81.8987C141.73 82.2122 141.824 82.5271 141.915 82.8434L142.155 82.7746C142.246 83.0925 142.334 83.4118 142.418 83.7323L142.176 83.7961C142.26 84.1135 142.34 84.4322 142.418 84.7521L142.661 84.6934C142.738 85.0145 142.813 85.3368 142.884 85.6603L142.639 85.7139C142.71 86.035 142.777 86.3573 142.841 86.6807L143.086 86.6322C143.15 86.9557 143.211 87.2804 143.269 87.6062L143.022 87.6497C143.08 87.9738 143.133 88.299 143.184 88.6253L143.431 88.587C143.482 88.9126 143.529 89.2393 143.573 89.567L143.325 89.6002C143.368 89.9259 143.409 90.2526 143.446 90.5804L143.694 90.5523C143.731 90.8803 143.765 91.2094 143.795 91.5394L143.547 91.5623C143.577 91.889 143.603 92.2165 143.627 92.545L143.876 92.5272C143.9 92.8573 143.92 93.1884 143.937 93.5204L143.687 93.5332C143.704 93.86 143.717 94.1877 143.727 94.5162L143.977 94.5086C143.987 94.8388 143.994 95.1698 143.997 95.5016L143.747 95.5042C143.749 95.6693 143.75 95.8345 143.75 96V96.5056H144V97.5167H143.75V98.5278H144V99.5389H143.75V100.55H144V101.561H143.75V102.572H144V103.583H143.75V104.594H144V105.605H143.75V106.616H144V107.628H143.75V108.639H144V109.65H143.75V110.661H144V111.672H143.75V112.683H144V113.694H143.75V114.705H144V115.716H143.75V116.727H144V117.738H143.75V118.749H144V119.761H143.75V120.772H144V121.783H143.75V122.794H144V123.805H143.75V124.816H144V125.827H143.75V126.838H144V127.849H143.75V128.86H144V129.871H143.75V130.883H144V131.894H143.75V132.905H144V133.916H143.75V134.927H144V135.938H143.75V136.949H144V137.96H143.75V138.971H144V139.982H143.75V140.993H144V142.004H143.75V143.016H144V144.027H143.75V145.038H144V146.049H143.75V147.06H144V148.071H143.75V149.082H144V150.093H143.75V151.104H144V152.115H143.75V153.126H144V154.137H143.75V155.149H144V156.16H143.75V157.171H144V158.182H143.75V159.193H144V160.204H143.75V161.215H144V162.226H143.75V163.237H144V164.248H143.75V165.259H144V166.271H143.75V167.282H144V168.293H143.75V169.304H144V170.315H143.75V171.326H144V172.337H143.75V173.348H144V174.359H143.75V175.37H144V176.381H143.75V177.392H144V178.404H143.75V178.909C143.75 179.078 143.747 179.247 143.74 179.414L143.99 179.424C143.977 179.769 143.95 180.111 143.91 180.449L143.662 180.42C143.623 180.756 143.57 181.088 143.506 181.415L143.751 181.464C143.684 181.802 143.604 182.136 143.512 182.464L143.271 182.396C143.179 182.721 143.076 183.041 142.96 183.355L143.194 183.441C143.075 183.764 142.944 184.081 142.8 184.391L142.573 184.286C142.432 184.592 142.279 184.892 142.115 185.184L142.333 185.307C142.165 185.606 141.985 185.898 141.795 186.183L141.587 186.044C141.4 186.323 141.202 186.595 140.994 186.859L141.19 187.014C140.978 187.283 140.755 187.544 140.522 187.795L140.339 187.625C140.11 187.872 139.872 188.11 139.625 188.339L139.795 188.522C139.544 188.755 139.283 188.978 139.014 189.19L138.859 188.994C138.595 189.202 138.323 189.4 138.044 189.587L138.183 189.795C137.898 189.985 137.606 190.165 137.307 190.333L137.184 190.115C136.892 190.279 136.592 190.432 136.286 190.573L136.391 190.8C136.081 190.944 135.764 191.075 135.441 191.194L135.355 190.96C135.041 191.076 134.721 191.179 134.396 191.271L134.464 191.512C134.136 191.604 133.802 191.684 133.464 191.751L133.415 191.506C133.088 191.57 132.756 191.623 132.42 191.662L132.449 191.91C132.111 191.95 131.769 191.977 131.424 191.99L131.414 191.74C131.247 191.747 131.078 191.75 130.909 191.75H130.41V192H129.413V191.75H128.416V192H127.418V191.75H126.421V192H125.423V191.75H124.426V192H123.429V191.75H122.431V192H121.434V191.75H120.436V192H119.439V191.75H118.442V192H117.444V191.75H116.447V192H115.449V191.75H114.452V192H113.455V191.75H112.457V192H111.46V191.75H110.462V192H109.465V191.75H108.468V192H107.47V191.75H106.473V192H105.475V191.75H104.478V192H103.481V191.75H102.483V192H101.486V191.75H100.488V192H99.4909V191.75H98.4935V192H97.4961V191.75H96.4987V192H95.5013V191.75H94.5039V192H93.5065V191.75H92.5091V192H91.5117V191.75H90.5143V192H89.5169V191.75H88.5195V192H87.5221V191.75H86.5247V192H85.5273V191.75H84.5299V192H83.5325V191.75H82.5351V192H81.5377V191.75H80.5403V192H79.5429V191.75H78.5455V192H77.5481V191.75H76.5506V192H75.5532V191.75H74.5558V192H73.5584V191.75H72.561V192H71.5636V191.75H70.5662V192H69.5688V191.75H68.5714V192H67.574V191.75H66.5766V192H65.5792V191.75H64.5818V192H63.5844V191.75H62.587V192H61.5896V191.75H61.0909C60.9218 191.75 60.7534 191.747 60.5859 191.74L60.5762 191.99C60.231 191.977 59.8892 191.95 59.5513 191.91L59.5804 191.662C59.2443 191.623 58.9122 191.57 58.5846 191.506L58.5361 191.751C58.1979 191.684 57.8643 191.604 57.5361 191.512L57.6038 191.271C57.2789 191.179 56.9592 191.076 56.6452 190.96L56.5587 191.194C56.2359 191.075 55.9191 190.944 55.6089 190.8L55.7137 190.573C55.4077 190.432 55.1081 190.279 54.8157 190.115L54.6933 190.333C54.3939 190.165 54.1017 189.985 53.8174 189.795L53.9565 189.587C53.6767 189.4 53.4047 189.202 53.1411 188.994L52.9862 189.19C52.717 188.978 52.4563 188.755 52.2048 188.522L52.3745 188.339C52.1277 188.11 51.8897 187.872 51.6614 187.625L51.4779 187.795C51.2453 187.544 51.0224 187.283 50.8099 187.014L51.0061 186.859C50.798 186.595 50.6 186.323 50.4127 186.044L50.205 186.183C50.0146 185.898 49.8351 185.606 49.6671 185.307L49.8851 185.184C49.721 184.892 49.5679 184.592 49.4266 184.286L49.1997 184.391C49.0564 184.081 48.9249 183.764 48.8058 183.441L49.0403 183.355C48.9245 183.041 48.8205 182.721 48.7291 182.396L48.4884 182.464C48.396 182.136 48.3161 181.802 48.2492 181.464L48.4944 181.415C48.4296 181.088 48.3773 180.756 48.3379 180.42L48.0896 180.449Z" fill="#232423" stroke="#F8F2F8" stroke-width="0.5" stroke-dasharray="1 1"/>
<path d="M4 96C4 45.1898 45.1898 4 96 4C146.81 4 188 45.1898 188 96V176C188 182.627 182.627 188 176 188H16C9.37258 188 4 182.627 4 176V96Z" stroke="#F8F2F8" stroke-width="8"/>
<path d="M0 144H192V176C192 184.837 184.837 192 176 192H16C7.16344 192 0 184.837 0 176V144Z" fill="#F8F2F8"/>
<path d="M76.0879 82.5355L63 75V59.2857L68.7068 56L63 52.7143V37L76.0879 29.4645L82.391 32.9808V25.8355L96 18L109.609 25.8355V32.9808L115.912 29.4645L129 37V52.7143L123.293 56L129 59.2857V75L115.912 82.5355L109.609 78.8368V86.1645L96 94L82.391 86.1645V78.8368L76.0879 82.5355Z" fill="#232423"/>
<path d="M129 37L115.912 44.5355M129 37L115.912 29.4645L109.609 32.9808M129 37V52.7143L123.293 56M96 94L82.391 86.1645V78.8368M96 94L109.609 86.1645V78.8368M96 94V78.1429M63 37L76.0879 44.5355M63 37L76.0879 29.4645L82.391 32.9808M63 37V52.7143L68.7068 56M96 56L82.391 48.1645M96 56L109.609 48.1645M96 56V71.7143M76.0879 82.5355L63 75V59.2857M76.0879 82.5355V66.7645M76.0879 82.5355L82.391 78.8368M76.0879 44.5355L89.5958 37M76.0879 44.5355V60.2498M82.391 48.1645L89.5958 44.1453M82.391 48.1645V56.8571M109.609 48.1645L102.404 44.1453M109.609 48.1645V56.8571M115.912 82.5355L129 75C129 75 129 65.4225 129 59.2857M115.912 82.5355V66.7645M115.912 82.5355L109.609 78.8368M115.912 44.5355L102.404 37M115.912 44.5355V60.2498M109.609 25.8355L96 18L82.391 25.8355M109.609 25.8355V32.9808M109.609 25.8355L96 33.4274M82.391 25.8355V32.9808M82.391 25.8355L96 33.4274M96 78.1429L109.609 70.3663M96 78.1429L82.391 70.3663M129 59.2857C123.889 62.2064 115.912 66.7645 115.912 66.7645M129 59.2857C126.771 58.0026 123.293 56 123.293 56M96 71.7143L103.604 67.336M96 71.7143L88.3955 67.336M63 59.2857L76.0879 66.7645M63 59.2857L68.7068 56M76.0879 66.7645L82.391 63.8788M82.391 63.8788L88.3955 67.336M82.391 63.8788V56.8571M115.912 66.7645L109.609 63.8788M109.609 63.8788L103.604 67.336M109.609 63.8788V56.8571M109.609 70.3663L103.604 67.336M109.609 70.3663V78.8368M82.391 70.3663L88.3955 67.336M82.391 70.3663V78.8368M89.5958 37V44.1453M89.5958 37L82.391 32.9808M89.5958 44.1453L96 40.5727M102.404 37V44.1453M102.404 37L109.609 32.9808M102.404 44.1453L96 40.5727M115.912 60.2498L109.609 56.8571M115.912 60.2498L123.293 56M76.0879 60.2498L82.391 56.8571M76.0879 60.2498L68.7068 56M96 40.5727V33.4274" stroke="#F8F2F8" stroke-width="0.5" stroke-linecap="round" stroke-linejoin="round"/>
<path d="M48.656 112.352H40.528V122.592H22.352L43.408 95.2H33.872L12.432 123.104V129.76H40.528V140H48.656V112.352ZM84.0535 114.016H65.4935V104.224C65.4935 103.2 66.3255 102.368 67.3495 102.368H81.6855C82.7095 102.368 83.6055 103.2 83.6055 104.224V108.064H91.6695V103.776C91.6695 99.04 87.8295 95.2 83.0935 95.2H65.9415C61.2055 95.2 57.3655 99.04 57.3655 103.776V131.424C57.3655 136.16 61.2055 140 65.9415 140H84.0535C88.7895 140 92.6295 136.16 92.6295 131.424V122.592C92.6295 117.856 88.7895 114.016 84.0535 114.016ZM84.5015 130.976C84.5015 132 83.6695 132.832 82.6455 132.832H67.3495C66.3255 132.832 65.4935 132 65.4935 130.976V121.184H82.6455C83.6695 121.184 84.5015 122.016 84.5015 123.104V130.976ZM132.62 116.832C134.796 115.232 136.14 112.672 136.14 109.92V103.776C136.14 99.04 132.236 95.2 127.5 95.2H108.94C104.204 95.2 100.364 99.04 100.364 103.776V111.392H108.492V104.736C108.492 103.648 109.324 102.816 110.348 102.816H126.092C127.18 102.816 128.012 103.648 128.012 104.736V109.984C128.012 110.56 127.692 111.136 127.244 111.52L100.364 133.344V140H136.588V132.384H113.356L132.62 116.832ZM171.833 114.016H153.273V104.224C153.273 103.2 154.105 102.368 155.129 102.368H169.465C170.49 102.368 171.385 103.2 171.385 104.224V108.064H179.45V103.776C179.45 99.04 175.61 95.2 170.873 95.2H153.721C148.985 95.2 145.145 99.04 145.145 103.776V131.424C145.145 136.16 148.985 140 153.721 140H171.833C176.569 140 180.41 136.16 180.41 131.424V122.592C180.41 117.856 176.569 114.016 171.833 114.016ZM172.281 130.976C172.281 132 171.449 132.832 170.425 132.832H155.129C154.105 132.832 153.273 132 153.273 130.976V121.184H170.425C171.449 121.184 172.281 122.016 172.281 123.104V130.976Z" fill="#F8F2F8"/>
<path d="M12.1 159.64L26.38 163.46H24.68L21.32 176H28.1L29.42 171.08H32.8L31.22 176.96L37.38 179.26L42.36 160.66C42.38 160.58 42.38 160.52 42.38 160.44C42.38 160.02 42.02 159.64 41.58 159.64H12.1ZM33.68 167.82H30.28L30.94 165.36L27.78 164.54H34.56L33.68 167.82ZM54.0491 159.64H47.2691L42.8891 176H58.1291L59.4491 171.1H50.9691L47.8091 170.28H51.1891L54.0491 159.64ZM74.017 159.64H67.237L62.857 176H78.097L79.417 171.1H70.937L67.777 170.28H71.157L74.017 159.64ZM89.605 176L92.445 165.38L89.285 164.56H92.665L93.985 159.64H87.205L82.825 176H89.605ZM102.357 171.1H105.757L104.437 176H111.217L115.317 160.68C115.337 160.6 115.337 160.54 115.337 160.46C115.337 160.02 114.977 159.64 114.517 159.64H99.2973C98.9173 159.64 98.5973 159.9 98.4973 160.26L94.2773 176H101.057L102.357 171.1ZM107.497 164.56L106.637 167.82H103.237L103.897 165.38L100.737 164.56H107.497ZM136.767 159.64H129.987L127.907 167.42L127.087 160.38C127.047 159.96 126.687 159.64 126.267 159.64H120.227L115.847 176H122.627L124.487 169.04L121.327 168.22H124.707L125.607 176H132.387L136.767 159.64ZM155.72 169.46H148.94L148.5 171.1H145.12L146.66 165.38L143.48 164.56H150.26L149.82 166.2H156.6L158.08 160.68C158.1 160.6 158.12 160.54 158.12 160.46C158.12 160.02 157.76 159.64 157.28 159.64H142.04C141.68 159.64 141.34 159.9 141.26 160.26L137.3 174.98C137.28 175.06 137.28 175.12 137.28 175.2C137.28 175.62 137.64 176 138.1 176H153.34C153.7 176 154.04 175.76 154.12 175.4L155.72 169.46ZM176.874 171.1H166.714L167.154 169.46H175.634L176.494 166.2H168.034L168.254 165.38L165.094 164.56H178.634L179.954 159.64H163.014L158.634 176H175.574L176.874 171.1Z" fill="#232423"/>
</svg>
