<svg width="1592" height="716" viewBox="0 0 1592 716" fill="none" xmlns="http://www.w3.org/2000/svg">
<g clip-path="url(#clip0_0_448)">
<path d="M777.367 66.9166C738.412 44.8869 694.336 31.9266 648.983 29.287C648.922 29.2804 648.853 29.2729 648.776 29.2647C648.444 29.2289 647.968 29.1783 647.384 29.1178C646.217 28.9971 644.604 28.8358 642.824 28.674C639.445 28.3668 634.864 28 631.742 28C568.207 28 509.269 46.3757 461.08 78.5585C452.369 83.3077 443.968 88.7025 435.906 94.7304C366.27 146.791 324.896 243.836 324.896 371.077C324.896 498.457 366.238 633.859 432.676 749.967C487.369 845.551 559.522 928.834 640.634 983.909C757.098 1082.1 931.675 1073.51 1039.85 961.933C1100.45 907.705 1135.99 816.604 1135.99 699.655C1135.99 574.799 1095.91 442.223 1031.35 328.305C966.89 214.544 877.376 118.277 777.367 66.9166Z" fill="white" stroke="#EC4899" stroke-width="24"/>
<path d="M1030.14 949.736L1030.13 949.749L1030.11 949.762C921.985 1061.62 744.265 1065.34 633.66 957.222L633.656 957.218C578.977 905.024 549.147 832.943 547.904 758.368L547.902 758.221L547.82 758.099C500.537 687.175 464.454 610.029 440.813 529.153L440.775 529.024L440.678 528.931C386.005 476.743 351.191 390.971 351.191 310.169C351.191 154.844 476.687 40.5 632.066 40.5C634.53 40.5 638.554 40.809 641.981 41.1205C643.69 41.2758 645.244 41.4313 646.371 41.5478C646.934 41.6061 647.391 41.6547 647.706 41.6886C647.864 41.7056 647.987 41.719 648.07 41.7281L648.164 41.7384L648.188 41.7411L648.194 41.7417L648.195 41.7419L648.196 41.742C648.196 41.742 648.196 41.742 648.251 41.245L648.196 41.742L648.209 41.7434L648.222 41.7442C691.722 44.2299 733.978 56.6585 771.261 77.7856L771.271 77.7907L771.28 77.7955C868.281 127.54 955.992 221.455 1019.45 333.449C1082.92 445.439 1122.1 575.459 1122.1 697.37C1122.1 811.82 1087.27 898.814 1030.14 949.736Z" fill="white" stroke="#831843"/>
<path d="M699.073 100.208C798.562 149.953 888.762 245.424 954.092 359.441C1019.42 473.454 1059.85 605.964 1059.85 729.741C1059.85 853.524 1019.42 946.101 954.225 995.309C889.048 1044.5 798.995 1050.45 699.52 1000.71C600.031 950.964 509.832 855.492 444.502 741.32C379.173 627.151 338.741 494.33 338.741 369.93C338.741 245.524 379.172 153.26 444.367 104.519C509.543 55.7925 599.596 50.4694 699.073 100.208Z" fill="white" stroke="#831843"/>
<path d="M699.523 896.128C623.689 857.589 555.277 784.218 505.82 696.502C456.366 608.79 425.892 506.783 425.892 411.016C425.892 315.242 456.366 244.455 505.686 207.232C554.985 170.025 623.247 166.255 699.07 204.788C774.904 243.327 843.317 316.699 892.773 404.414C942.228 492.126 972.701 594.134 972.701 689.9C972.701 785.675 942.228 856.461 892.907 893.684C843.609 930.891 775.347 934.661 699.523 896.128ZM680.847 259.922C620.338 229.356 565.653 232.748 526.09 263.084C486.55 293.404 462.243 350.54 462.243 427.201C462.243 503.888 492.787 592.062 538.415 668.68C584.041 745.293 644.797 810.432 705.296 840.994C765.806 871.561 820.49 868.169 860.053 837.832C899.593 807.513 923.9 750.376 923.9 673.715C923.9 597.028 893.356 508.854 847.728 432.237C802.102 355.623 741.346 290.484 680.847 259.922Z" fill="white" stroke="#831843"/>
<path d="M449.793 422.221C449.793 515.695 478.768 614.757 525.957 700.568C571.269 782.968 633.398 853.191 702.847 894.521C701.396 893.885 699.903 893.205 698.277 892.392C623.067 854.476 554.966 781.417 505.665 694.168C456.365 606.922 425.892 505.537 425.892 411.016C425.892 316.489 456.364 245.699 505.534 208.008C554.675 170.338 622.615 165.637 697.8 203.531C698.617 204.074 699.434 204.559 700.247 205.009C631.609 177.724 570.167 185.834 525.3 222.475C478.457 260.73 449.793 329.998 449.793 422.221Z" fill="white" stroke="#831843"/>
<path d="M690.107 385.029L690.11 385.037L726.216 487.129L726.274 487.294L726.423 487.387L808.581 538.424C808.583 538.425 808.586 538.427 808.588 538.428C815.939 543.332 821.163 551.622 823.159 559.452C825.167 567.33 823.865 574.473 818.576 577.412L818.556 577.423L818.537 577.435L760.021 617.276L759.766 617.45L759.807 617.757L773.502 718.602C774.732 727.827 771.643 733.433 766.824 735.185C761.954 736.956 754.995 734.929 748.211 728.148C748.21 728.146 748.208 728.144 748.206 728.142L674.759 650.96L674.578 650.771L674.32 650.811L602.109 662.016L602.096 662.018C595.532 663.212 588.54 658.734 583.443 651.939C578.36 645.161 575.318 636.27 576.533 628.977L576.534 628.971L590.229 540.575L590.257 540.392L590.16 540.235L531.644 445.613L531.644 445.613L531.64 445.606C526.093 436.978 524.907 428.42 526.869 422.535C527.848 419.598 529.604 417.336 531.985 416.026C534.363 414.717 537.417 414.328 541.049 415.234L621.965 438.886L622.357 439.001L622.548 438.64L658.653 370.163L658.66 370.151L658.666 370.137C660.166 366.837 662.464 365.006 665.14 364.346C667.835 363.682 670.982 364.19 674.181 365.713C680.582 368.761 687.033 375.806 690.107 385.029Z" fill="white" stroke="#831843"/>
<path d="M1200.15 294.6C1193.22 294.6 1187.3 293.853 1182.39 292.36C1177.59 290.76 1173.64 288.84 1170.55 286.6C1167.56 284.36 1165.32 282.067 1163.83 279.72C1162.34 277.267 1161.54 275.187 1161.43 273.48C1161.32 272.307 1161.7 271.347 1162.55 270.6C1163.4 269.747 1164.31 269.32 1165.27 269.32H1183.51C1183.83 269.32 1184.1 269.373 1184.31 269.48C1184.52 269.587 1184.84 269.8 1185.27 270.12C1186.66 270.867 1188.04 271.827 1189.43 273C1190.82 274.067 1192.42 275.027 1194.23 275.88C1196.04 276.733 1198.23 277.16 1200.79 277.16C1203.78 277.16 1206.28 276.573 1208.31 275.4C1210.34 274.227 1211.35 272.467 1211.35 270.12C1211.35 268.413 1210.87 267.027 1209.91 265.96C1208.95 264.787 1206.98 263.667 1203.99 262.6C1201.11 261.533 1196.74 260.467 1190.87 259.4C1185.32 258.12 1180.47 256.467 1176.31 254.44C1172.15 252.307 1168.95 249.587 1166.71 246.28C1164.47 242.867 1163.35 238.76 1163.35 233.96C1163.35 229.693 1164.74 225.587 1167.51 221.64C1170.28 217.693 1174.34 214.493 1179.67 212.04C1185 209.48 1191.56 208.2 1199.35 208.2C1205.54 208.2 1210.87 208.947 1215.35 210.44C1219.94 211.827 1223.78 213.64 1226.87 215.88C1230.07 218.12 1232.47 220.413 1234.07 222.76C1235.67 225.107 1236.52 227.24 1236.63 229.16C1236.74 230.227 1236.42 231.187 1235.67 232.04C1234.92 232.787 1234.07 233.16 1233.11 233.16H1216.47C1216.04 233.16 1215.62 233.107 1215.19 233C1214.76 232.787 1214.39 232.573 1214.07 232.36C1212.79 231.72 1211.51 230.867 1210.23 229.8C1208.95 228.733 1207.46 227.773 1205.75 226.92C1204.04 226.067 1201.91 225.64 1199.35 225.64C1196.47 225.64 1194.23 226.28 1192.63 227.56C1191.03 228.84 1190.23 230.493 1190.23 232.52C1190.23 233.907 1190.66 235.187 1191.51 236.36C1192.47 237.533 1194.34 238.6 1197.11 239.56C1199.99 240.52 1204.42 241.587 1210.39 242.76C1217.75 243.933 1223.62 245.853 1227.99 248.52C1232.36 251.08 1235.46 254.12 1237.27 257.64C1239.08 261.053 1239.99 264.68 1239.99 268.52C1239.99 273.64 1238.44 278.173 1235.35 282.12C1232.36 286.067 1227.88 289.16 1221.91 291.4C1215.94 293.533 1208.68 294.6 1200.15 294.6ZM1268.91 294.6C1262.83 294.6 1257.39 293.213 1252.59 290.44C1247.89 287.667 1244.21 283.613 1241.55 278.28C1238.88 272.84 1237.55 266.227 1237.55 258.44V213.8C1237.55 212.627 1237.92 211.667 1238.67 210.92C1239.41 210.173 1240.37 209.8 1241.55 209.8H1261.55C1262.72 209.8 1263.68 210.173 1264.43 210.92C1265.17 211.667 1265.55 212.627 1265.55 213.8V257.48C1265.55 267.933 1270.24 273.16 1279.63 273.16C1284 273.16 1287.47 271.827 1290.03 269.16C1292.69 266.387 1294.03 262.493 1294.03 257.48V213.8C1294.03 212.627 1294.4 211.667 1295.15 210.92C1295.89 210.173 1296.85 209.8 1298.03 209.8H1318.03C1319.2 209.8 1320.16 210.173 1320.91 210.92C1321.65 211.667 1322.03 212.627 1322.03 213.8V289C1322.03 290.173 1321.65 291.133 1320.91 291.88C1320.16 292.627 1319.2 293 1318.03 293H1299.47C1298.4 293 1297.44 292.627 1296.59 291.88C1295.84 291.133 1295.47 290.173 1295.47 289V282.92C1292.69 286.76 1289.07 289.693 1284.59 291.72C1280.21 293.64 1274.99 294.6 1268.91 294.6ZM1328.85 323.4C1327.67 323.4 1326.71 323.027 1325.97 322.28C1325.22 321.533 1324.85 320.573 1324.85 319.4V213.8C1324.85 212.627 1325.22 211.667 1325.97 210.92C1326.71 210.173 1327.67 209.8 1328.85 209.8H1346.93C1347.99 209.8 1348.9 210.173 1349.65 210.92C1350.5 211.667 1350.93 212.627 1350.93 213.8V219.72C1353.38 216.413 1356.63 213.693 1360.69 211.56C1364.74 209.32 1369.75 208.2 1375.73 208.2C1381.06 208.2 1385.75 209.053 1389.81 210.76C1393.86 212.36 1397.33 214.76 1400.21 217.96C1403.09 221.16 1405.33 225.053 1406.93 229.64C1408.63 234.227 1409.59 239.507 1409.81 245.48C1409.91 247.613 1409.97 249.587 1409.97 251.4C1409.97 253.213 1409.91 255.187 1409.81 257.32C1409.59 263.08 1408.69 268.253 1407.09 272.84C1405.49 277.427 1403.25 281.32 1400.37 284.52C1397.49 287.72 1393.97 290.227 1389.81 292.04C1385.75 293.747 1381.06 294.6 1375.73 294.6C1370.5 294.6 1365.91 293.693 1361.97 291.88C1358.13 289.96 1354.93 287.293 1352.37 283.88V319.4C1352.37 320.573 1351.99 321.533 1351.25 322.28C1350.5 323.027 1349.54 323.4 1348.37 323.4H1328.85ZM1367.09 273.16C1370.71 273.16 1373.54 272.413 1375.57 270.92C1377.59 269.427 1379.03 267.4 1379.89 264.84C1380.85 262.28 1381.43 259.453 1381.65 256.36C1381.86 253.053 1381.86 249.747 1381.65 246.44C1381.43 243.347 1380.85 240.52 1379.89 237.96C1379.03 235.4 1377.59 233.373 1375.57 231.88C1373.54 230.387 1370.71 229.64 1367.09 229.64C1363.57 229.64 1360.74 230.44 1358.61 232.04C1356.47 233.533 1354.93 235.507 1353.97 237.96C1353.01 240.413 1352.47 243.08 1352.37 245.96C1352.26 247.987 1352.21 249.96 1352.21 251.88C1352.21 253.8 1352.26 255.827 1352.37 257.96C1352.47 260.627 1353.06 263.133 1354.13 265.48C1355.19 267.72 1356.79 269.587 1358.93 271.08C1361.06 272.467 1363.78 273.16 1367.09 273.16ZM1448.18 294.6C1435.6 294.6 1425.57 291.187 1418.1 284.36C1410.64 277.533 1406.74 267.4 1406.42 253.96C1406.42 253.213 1406.42 252.253 1406.42 251.08C1406.42 249.907 1406.42 249 1406.42 248.36C1406.74 239.933 1408.61 232.733 1412.02 226.76C1415.54 220.68 1420.34 216.093 1426.42 213C1432.61 209.8 1439.81 208.2 1448.02 208.2C1457.41 208.2 1465.14 210.067 1471.22 213.8C1477.41 217.533 1482.05 222.6 1485.14 229C1488.24 235.4 1489.78 242.707 1489.78 250.92V254.76C1489.78 255.933 1489.36 256.893 1488.5 257.64C1487.76 258.387 1486.85 258.76 1485.78 258.76H1434.58C1434.58 258.867 1434.58 259.027 1434.58 259.24C1434.58 259.453 1434.58 259.667 1434.58 259.88C1434.69 262.973 1435.22 265.8 1436.18 268.36C1437.14 270.92 1438.64 272.947 1440.66 274.44C1442.69 275.933 1445.14 276.68 1448.02 276.68C1450.16 276.68 1451.92 276.36 1453.3 275.72C1454.8 274.973 1456.02 274.173 1456.98 273.32C1457.94 272.36 1458.69 271.56 1459.22 270.92C1460.18 269.853 1460.93 269.213 1461.46 269C1462.1 268.68 1463.06 268.52 1464.34 268.52H1484.18C1485.25 268.52 1486.1 268.84 1486.74 269.48C1487.49 270.013 1487.81 270.813 1487.7 271.88C1487.6 273.693 1486.69 275.88 1484.98 278.44C1483.28 281 1480.77 283.56 1477.46 286.12C1474.26 288.573 1470.21 290.6 1465.3 292.2C1460.4 293.8 1454.69 294.6 1448.18 294.6ZM1434.58 242.92H1461.62V242.6C1461.62 239.187 1461.09 236.2 1460.02 233.64C1459.06 231.08 1457.52 229.107 1455.38 227.72C1453.36 226.333 1450.9 225.64 1448.02 225.64C1445.14 225.64 1442.69 226.333 1440.66 227.72C1438.74 229.107 1437.25 231.08 1436.18 233.64C1435.12 236.2 1434.58 239.187 1434.58 242.6V242.92ZM1492.78 293C1491.61 293 1490.65 292.627 1489.9 291.88C1489.16 291.133 1488.78 290.173 1488.78 289V213.8C1488.78 212.733 1489.16 211.827 1489.9 211.08C1490.65 210.227 1491.61 209.8 1492.78 209.8H1511.18C1512.36 209.8 1513.32 210.227 1514.06 211.08C1514.81 211.827 1515.18 212.733 1515.18 213.8V220.2C1518.06 216.893 1521.48 214.333 1525.42 212.52C1529.48 210.707 1534.01 209.8 1539.02 209.8H1546.06C1547.13 209.8 1548.04 210.173 1548.78 210.92C1549.64 211.667 1550.06 212.627 1550.06 213.8V230.28C1550.06 231.347 1549.64 232.307 1548.78 233.16C1548.04 233.907 1547.13 234.28 1546.06 234.28H1530.54C1526.17 234.28 1522.76 235.507 1520.3 237.96C1517.96 240.307 1516.78 243.667 1516.78 248.04V289C1516.78 290.173 1516.36 291.133 1515.5 291.88C1514.76 292.627 1513.8 293 1512.62 293H1492.78ZM1109.66 413C1108.49 413 1107.53 412.627 1106.78 411.88C1106.03 411.133 1105.66 410.173 1105.66 409V333.8C1105.66 332.733 1106.03 331.827 1106.78 331.08C1107.53 330.227 1108.49 329.8 1109.66 329.8H1128.06C1129.23 329.8 1130.19 330.227 1130.94 331.08C1131.69 331.827 1132.06 332.733 1132.06 333.8V340.2C1134.94 336.893 1138.35 334.333 1142.3 332.52C1146.35 330.707 1150.89 329.8 1155.9 329.8H1162.94C1164.01 329.8 1164.91 330.173 1165.66 330.92C1166.51 331.667 1166.94 332.627 1166.94 333.8V350.28C1166.94 351.347 1166.51 352.307 1165.66 353.16C1164.91 353.907 1164.01 354.28 1162.94 354.28H1147.42C1143.05 354.28 1139.63 355.507 1137.18 357.96C1134.83 360.307 1133.66 363.667 1133.66 368.04V409C1133.66 410.173 1133.23 411.133 1132.38 411.88C1131.63 412.627 1130.67 413 1129.5 413H1109.66ZM1201.05 414.6C1192.09 414.6 1184.52 413.16 1178.33 410.28C1172.25 407.4 1167.56 403.293 1164.25 397.96C1161.05 392.52 1159.24 386.067 1158.81 378.6C1158.7 376.467 1158.65 374.067 1158.65 371.4C1158.65 368.627 1158.7 366.227 1158.81 364.2C1159.24 356.627 1161.16 350.173 1164.57 344.84C1167.98 339.507 1172.73 335.4 1178.81 332.52C1185 329.64 1192.41 328.2 1201.05 328.2C1209.8 328.2 1217.21 329.64 1223.29 332.52C1229.48 335.4 1234.28 339.507 1237.69 344.84C1241.1 350.173 1243.02 356.627 1243.45 364.2C1243.56 366.227 1243.61 368.627 1243.61 371.4C1243.61 374.067 1243.56 376.467 1243.45 378.6C1243.02 386.067 1241.16 392.52 1237.85 397.96C1234.65 403.293 1229.96 407.4 1223.77 410.28C1217.69 413.16 1210.12 414.6 1201.05 414.6ZM1201.05 395.08C1205.85 395.08 1209.32 393.64 1211.45 390.76C1213.69 387.88 1214.97 383.56 1215.29 377.8C1215.4 376.2 1215.45 374.067 1215.45 371.4C1215.45 368.733 1215.4 366.6 1215.29 365C1214.97 359.347 1213.69 355.08 1211.45 352.2C1209.32 349.213 1205.85 347.72 1201.05 347.72C1196.36 347.72 1192.89 349.213 1190.65 352.2C1188.41 355.08 1187.18 359.347 1186.97 365C1186.86 366.6 1186.81 368.733 1186.81 371.4C1186.81 374.067 1186.86 376.2 1186.97 377.8C1187.18 383.56 1188.41 387.88 1190.65 390.76C1192.89 393.64 1196.36 395.08 1201.05 395.08ZM1294.23 414.6C1288.25 414.6 1283.24 413.587 1279.19 411.56C1275.24 409.533 1271.99 406.973 1269.43 403.88V409C1269.43 410.173 1269 411.133 1268.15 411.88C1267.4 412.627 1266.49 413 1265.43 413H1247.35C1246.17 413 1245.21 412.627 1244.47 411.88C1243.72 411.133 1243.35 410.173 1243.35 409V303.4C1243.35 302.227 1243.72 301.267 1244.47 300.52C1245.21 299.773 1246.17 299.4 1247.35 299.4H1266.87C1268.04 299.4 1269 299.773 1269.75 300.52C1270.49 301.267 1270.87 302.227 1270.87 303.4V337.64C1273.43 334.867 1276.63 332.627 1280.47 330.92C1284.41 329.107 1289 328.2 1294.23 328.2C1299.56 328.2 1304.25 329.107 1308.31 330.92C1312.47 332.627 1315.99 335.133 1318.87 338.44C1321.75 341.747 1323.99 345.693 1325.59 350.28C1327.19 354.867 1328.09 360.04 1328.31 365.8C1328.41 367.827 1328.47 369.693 1328.47 371.4C1328.47 373 1328.41 374.867 1328.31 377C1328.09 382.973 1327.13 388.307 1325.43 393C1323.83 397.587 1321.59 401.533 1318.71 404.84C1315.83 408.04 1312.36 410.493 1308.31 412.2C1304.25 413.8 1299.56 414.6 1294.23 414.6ZM1285.59 393.16C1289.21 393.16 1292.04 392.413 1294.07 390.92C1296.09 389.427 1297.53 387.4 1298.39 384.84C1299.35 382.28 1299.93 379.453 1300.15 376.36C1300.36 373.053 1300.36 369.747 1300.15 366.44C1299.93 363.347 1299.35 360.52 1298.39 357.96C1297.53 355.4 1296.09 353.373 1294.07 351.88C1292.04 350.387 1289.21 349.64 1285.59 349.64C1282.28 349.64 1279.56 350.387 1277.43 351.88C1275.29 353.267 1273.69 355.133 1272.63 357.48C1271.56 359.72 1270.97 362.173 1270.87 364.84C1270.76 366.867 1270.71 368.84 1270.71 370.76C1270.71 372.68 1270.76 374.707 1270.87 376.84C1270.97 379.72 1271.51 382.387 1272.47 384.84C1273.43 387.293 1274.97 389.32 1277.11 390.92C1279.24 392.413 1282.07 393.16 1285.59 393.16ZM1358.84 414.6C1352.76 414.6 1347.32 413.213 1342.52 410.44C1337.83 407.667 1334.15 403.613 1331.48 398.28C1328.82 392.84 1327.48 386.227 1327.48 378.44V333.8C1327.48 332.627 1327.86 331.667 1328.6 330.92C1329.35 330.173 1330.31 329.8 1331.48 329.8H1351.48C1352.66 329.8 1353.62 330.173 1354.36 330.92C1355.11 331.667 1355.48 332.627 1355.48 333.8V377.48C1355.48 387.933 1360.18 393.16 1369.56 393.16C1373.94 393.16 1377.4 391.827 1379.96 389.16C1382.63 386.387 1383.96 382.493 1383.96 377.48V333.8C1383.96 332.627 1384.34 331.667 1385.08 330.92C1385.83 330.173 1386.79 329.8 1387.96 329.8H1407.96C1409.14 329.8 1410.1 330.173 1410.84 330.92C1411.59 331.667 1411.96 332.627 1411.96 333.8V409C1411.96 410.173 1411.59 411.133 1410.84 411.88C1410.1 412.627 1409.14 413 1407.96 413H1389.4C1388.34 413 1387.38 412.627 1386.52 411.88C1385.78 411.133 1385.4 410.173 1385.4 409V402.92C1382.63 406.76 1379 409.693 1374.52 411.72C1370.15 413.64 1364.92 414.6 1358.84 414.6ZM1449.02 414.6C1442.09 414.6 1436.17 413.853 1431.26 412.36C1426.46 410.76 1422.52 408.84 1419.42 406.6C1416.44 404.36 1414.2 402.067 1412.7 399.72C1411.21 397.267 1410.41 395.187 1410.3 393.48C1410.2 392.307 1410.57 391.347 1411.42 390.6C1412.28 389.747 1413.18 389.32 1414.14 389.32H1432.38C1432.7 389.32 1432.97 389.373 1433.18 389.48C1433.4 389.587 1433.72 389.8 1434.14 390.12C1435.53 390.867 1436.92 391.827 1438.3 393C1439.69 394.067 1441.29 395.027 1443.1 395.88C1444.92 396.733 1447.1 397.16 1449.66 397.16C1452.65 397.16 1455.16 396.573 1457.18 395.4C1459.21 394.227 1460.22 392.467 1460.22 390.12C1460.22 388.413 1459.74 387.027 1458.78 385.96C1457.82 384.787 1455.85 383.667 1452.86 382.6C1449.98 381.533 1445.61 380.467 1439.74 379.4C1434.2 378.12 1429.34 376.467 1425.18 374.44C1421.02 372.307 1417.82 369.587 1415.58 366.28C1413.34 362.867 1412.22 358.76 1412.22 353.96C1412.22 349.693 1413.61 345.587 1416.38 341.64C1419.16 337.693 1423.21 334.493 1428.54 332.04C1433.88 329.48 1440.44 328.2 1448.22 328.2C1454.41 328.2 1459.74 328.947 1464.22 330.44C1468.81 331.827 1472.65 333.64 1475.74 335.88C1478.94 338.12 1481.34 340.413 1482.94 342.76C1484.54 345.107 1485.4 347.24 1485.5 349.16C1485.61 350.227 1485.29 351.187 1484.54 352.04C1483.8 352.787 1482.94 353.16 1481.98 353.16H1465.34C1464.92 353.16 1464.49 353.107 1464.06 353C1463.64 352.787 1463.26 352.573 1462.94 352.36C1461.66 351.72 1460.38 350.867 1459.1 349.8C1457.82 348.733 1456.33 347.773 1454.62 346.92C1452.92 346.067 1450.78 345.64 1448.22 345.64C1445.34 345.64 1443.1 346.28 1441.5 347.56C1439.9 348.84 1439.1 350.493 1439.1 352.52C1439.1 353.907 1439.53 355.187 1440.38 356.36C1441.34 357.533 1443.21 358.6 1445.98 359.56C1448.86 360.52 1453.29 361.587 1459.26 362.76C1466.62 363.933 1472.49 365.853 1476.86 368.52C1481.24 371.08 1484.33 374.12 1486.14 377.64C1487.96 381.053 1488.86 384.68 1488.86 388.52C1488.86 393.64 1487.32 398.173 1484.22 402.12C1481.24 406.067 1476.76 409.16 1470.78 411.4C1464.81 413.533 1457.56 414.6 1449.02 414.6ZM1529.31 413C1522.49 413 1516.57 411.933 1511.55 409.8C1506.65 407.56 1502.86 404.147 1500.19 399.56C1497.53 394.867 1496.19 388.84 1496.19 381.48V350.76H1483.71C1482.54 350.76 1481.53 350.387 1480.67 349.64C1479.93 348.893 1479.55 347.933 1479.55 346.76V333.8C1479.55 332.627 1479.93 331.667 1480.67 330.92C1481.53 330.173 1482.54 329.8 1483.71 329.8H1496.19V303.4C1496.19 302.227 1496.57 301.267 1497.31 300.52C1498.17 299.773 1499.13 299.4 1500.19 299.4H1518.75C1519.93 299.4 1520.89 299.773 1521.63 300.52C1522.38 301.267 1522.75 302.227 1522.75 303.4V329.8H1542.75C1543.93 329.8 1544.89 330.173 1545.63 330.92C1546.38 331.667 1546.75 332.627 1546.75 333.8V346.76C1546.75 347.933 1546.38 348.893 1545.63 349.64C1544.89 350.387 1543.93 350.76 1542.75 350.76H1522.75V379.24C1522.75 382.867 1523.45 385.747 1524.83 387.88C1526.22 390.013 1528.57 391.08 1531.87 391.08H1544.19C1545.37 391.08 1546.33 391.453 1547.07 392.2C1547.82 392.947 1548.19 393.907 1548.19 395.08V409C1548.19 410.173 1547.82 411.133 1547.07 411.88C1546.33 412.627 1545.37 413 1544.19 413H1529.31ZM1173.7 533C1172.1 533 1170.92 532.627 1170.18 531.88C1169.43 531.027 1168.79 530.067 1168.26 529L1138.02 454.76C1137.8 454.333 1137.7 453.853 1137.7 453.32C1137.7 452.36 1138.02 451.56 1138.66 450.92C1139.4 450.173 1140.31 449.8 1141.38 449.8H1159.46C1160.84 449.8 1161.91 450.173 1162.66 450.92C1163.4 451.667 1163.88 452.413 1164.1 453.16L1182.18 502.28L1200.42 453.16C1200.63 452.413 1201.11 451.667 1201.86 450.92C1202.6 450.173 1203.67 449.8 1205.06 449.8H1223.14C1224.1 449.8 1224.95 450.173 1225.7 450.92C1226.44 451.56 1226.82 452.36 1226.82 453.32C1226.82 453.853 1226.71 454.333 1226.5 454.76L1196.26 529C1195.83 530.067 1195.19 531.027 1194.34 531.88C1193.59 532.627 1192.36 533 1190.66 533H1173.7ZM1244.62 534.6C1238.86 534.6 1233.69 533.533 1229.1 531.4C1224.62 529.16 1221.05 526.173 1218.38 522.44C1215.71 518.707 1214.38 514.493 1214.38 509.8C1214.38 502.227 1217.47 496.253 1223.66 491.88C1229.85 487.4 1238.06 484.36 1248.3 482.76L1268.3 479.72V477.48C1268.3 473.64 1267.5 470.707 1265.9 468.68C1264.3 466.653 1261.37 465.64 1257.1 465.64C1254.11 465.64 1251.66 466.227 1249.74 467.4C1247.93 468.573 1246.49 470.173 1245.42 472.2C1244.46 473.587 1243.13 474.28 1241.42 474.28H1223.5C1222.33 474.28 1221.42 473.96 1220.78 473.32C1220.14 472.573 1219.87 471.72 1219.98 470.76C1219.98 468.84 1220.67 466.653 1222.06 464.2C1223.55 461.64 1225.79 459.133 1228.78 456.68C1231.77 454.227 1235.61 452.2 1240.3 450.6C1244.99 449 1250.65 448.2 1257.26 448.2C1264.19 448.2 1270.11 449 1275.02 450.6C1279.93 452.2 1283.87 454.44 1286.86 457.32C1289.95 460.2 1292.25 463.613 1293.74 467.56C1295.23 471.4 1295.98 475.667 1295.98 480.36V529C1295.98 530.173 1295.55 531.133 1294.7 531.88C1293.95 532.627 1293.05 533 1291.98 533H1273.42C1272.25 533 1271.29 532.627 1270.54 531.88C1269.79 531.133 1269.42 530.173 1269.42 529V523.4C1268.03 525.427 1266.17 527.293 1263.82 529C1261.47 530.707 1258.7 532.04 1255.5 533C1252.41 534.067 1248.78 534.6 1244.62 534.6ZM1252.14 516.36C1255.23 516.36 1258.01 515.72 1260.46 514.44C1263.02 513.053 1264.99 510.973 1266.38 508.2C1267.87 505.32 1268.62 501.747 1268.62 497.48V495.24L1255.02 497.64C1250.01 498.493 1246.33 499.827 1243.98 501.64C1241.74 503.347 1240.62 505.373 1240.62 507.72C1240.62 509.533 1241.15 511.08 1242.22 512.36C1243.29 513.64 1244.67 514.653 1246.38 515.4C1248.09 516.04 1250.01 516.36 1252.14 516.36ZM1328.59 534.6C1322.51 534.6 1317.07 533.213 1312.27 530.44C1307.58 527.667 1303.9 523.613 1301.23 518.28C1298.57 512.84 1297.23 506.227 1297.23 498.44V453.8C1297.23 452.627 1297.61 451.667 1298.35 450.92C1299.1 450.173 1300.06 449.8 1301.23 449.8H1321.23C1322.41 449.8 1323.37 450.173 1324.11 450.92C1324.86 451.667 1325.23 452.627 1325.23 453.8V497.48C1325.23 507.933 1329.93 513.16 1339.31 513.16C1343.69 513.16 1347.15 511.827 1349.71 509.16C1352.38 506.387 1353.71 502.493 1353.71 497.48V453.8C1353.71 452.627 1354.09 451.667 1354.83 450.92C1355.58 450.173 1356.54 449.8 1357.71 449.8H1377.71C1378.89 449.8 1379.85 450.173 1380.59 450.92C1381.34 451.667 1381.71 452.627 1381.71 453.8V529C1381.71 530.173 1381.34 531.133 1380.59 531.88C1379.85 532.627 1378.89 533 1377.71 533H1359.15C1358.09 533 1357.13 532.627 1356.27 531.88C1355.53 531.133 1355.15 530.173 1355.15 529V522.92C1352.38 526.76 1348.75 529.693 1344.27 531.72C1339.9 533.64 1334.67 534.6 1328.59 534.6ZM1388.53 533C1387.36 533 1386.4 532.627 1385.65 531.88C1384.91 531.133 1384.53 530.173 1384.53 529V423.4C1384.53 422.227 1384.91 421.267 1385.65 420.52C1386.4 419.773 1387.36 419.4 1388.53 419.4H1407.41C1408.59 419.4 1409.55 419.773 1410.29 420.52C1411.04 421.267 1411.41 422.227 1411.41 423.4V529C1411.41 530.173 1411.04 531.133 1410.29 531.88C1409.55 532.627 1408.59 533 1407.41 533H1388.53ZM1456.88 533C1450.05 533 1444.13 531.933 1439.12 529.8C1434.21 527.56 1430.42 524.147 1427.76 519.56C1425.09 514.867 1423.76 508.84 1423.76 501.48V470.76H1411.28C1410.1 470.76 1409.09 470.387 1408.24 469.64C1407.49 468.893 1407.12 467.933 1407.12 466.76V453.8C1407.12 452.627 1407.49 451.667 1408.24 450.92C1409.09 450.173 1410.1 449.8 1411.28 449.8H1423.76V423.4C1423.76 422.227 1424.13 421.267 1424.88 420.52C1425.73 419.773 1426.69 419.4 1427.76 419.4H1446.32C1447.49 419.4 1448.45 419.773 1449.2 420.52C1449.94 421.267 1450.32 422.227 1450.32 423.4V449.8H1470.32C1471.49 449.8 1472.45 450.173 1473.2 450.92C1473.94 451.667 1474.32 452.627 1474.32 453.8V466.76C1474.32 467.933 1473.94 468.893 1473.2 469.64C1472.45 470.387 1471.49 470.76 1470.32 470.76H1450.32V499.24C1450.32 502.867 1451.01 505.747 1452.4 507.88C1453.78 510.013 1456.13 511.08 1459.44 511.08H1471.76C1472.93 511.08 1473.89 511.453 1474.64 512.2C1475.38 512.947 1475.76 513.907 1475.76 515.08V529C1475.76 530.173 1475.38 531.133 1474.64 531.88C1473.89 532.627 1472.93 533 1471.76 533H1456.88ZM1507.24 534.6C1500.31 534.6 1494.39 533.853 1489.48 532.36C1484.68 530.76 1480.74 528.84 1477.64 526.6C1474.66 524.36 1472.42 522.067 1470.92 519.72C1469.43 517.267 1468.63 515.187 1468.52 513.48C1468.42 512.307 1468.79 511.347 1469.64 510.6C1470.5 509.747 1471.4 509.32 1472.36 509.32H1490.6C1490.92 509.32 1491.19 509.373 1491.4 509.48C1491.62 509.587 1491.94 509.8 1492.36 510.12C1493.75 510.867 1495.14 511.827 1496.52 513C1497.91 514.067 1499.51 515.027 1501.32 515.88C1503.14 516.733 1505.32 517.16 1507.88 517.16C1510.87 517.16 1513.38 516.573 1515.4 515.4C1517.43 514.227 1518.44 512.467 1518.44 510.12C1518.44 508.413 1517.96 507.027 1517 505.96C1516.04 504.787 1514.07 503.667 1511.08 502.6C1508.2 501.533 1503.83 500.467 1497.96 499.4C1492.42 498.12 1487.56 496.467 1483.4 494.44C1479.24 492.307 1476.04 489.587 1473.8 486.28C1471.56 482.867 1470.44 478.76 1470.44 473.96C1470.44 469.693 1471.83 465.587 1474.6 461.64C1477.38 457.693 1481.43 454.493 1486.76 452.04C1492.1 449.48 1498.66 448.2 1506.44 448.2C1512.63 448.2 1517.96 448.947 1522.44 450.44C1527.03 451.827 1530.87 453.64 1533.96 455.88C1537.16 458.12 1539.56 460.413 1541.16 462.76C1542.76 465.107 1543.62 467.24 1543.72 469.16C1543.83 470.227 1543.51 471.187 1542.76 472.04C1542.02 472.787 1541.16 473.16 1540.2 473.16H1523.56C1523.14 473.16 1522.71 473.107 1522.28 473C1521.86 472.787 1521.48 472.573 1521.16 472.36C1519.88 471.72 1518.6 470.867 1517.32 469.8C1516.04 468.733 1514.55 467.773 1512.84 466.92C1511.14 466.067 1509 465.64 1506.44 465.64C1503.56 465.64 1501.32 466.28 1499.72 467.56C1498.12 468.84 1497.32 470.493 1497.32 472.52C1497.32 473.907 1497.75 475.187 1498.6 476.36C1499.56 477.533 1501.43 478.6 1504.2 479.56C1507.08 480.52 1511.51 481.587 1517.48 482.76C1524.84 483.933 1530.71 485.853 1535.08 488.52C1539.46 491.08 1542.55 494.12 1544.36 497.64C1546.18 501.053 1547.08 504.68 1547.08 508.52C1547.08 513.64 1545.54 518.173 1542.44 522.12C1539.46 526.067 1534.98 529.16 1529 531.4C1523.03 533.533 1515.78 534.6 1507.24 534.6Z" fill="url(#paint0_linear_0_448)"/>
</g>
<defs>
<linearGradient id="paint0_linear_0_448" x1="756" y1="0" x2="756" y2="716" gradientUnits="userSpaceOnUse">
<stop stop-color="#FCE7F3"/>
<stop offset="0.4375" stop-color="#EC4899"/>
<stop offset="1" stop-color="#831843"/>
</linearGradient>
<clipPath id="clip0_0_448">
<rect width="1592" height="716" fill="white"/>
</clipPath>
</defs>
</svg>
