<svg width="377" height="376" viewBox="0 0 377 376" fill="none" xmlns="http://www.w3.org/2000/svg">
<rect width="375.162" height="375" transform="translate(0.930664 0.323975)" fill="#160033"/>
<path d="M155.525 157.41H193.854C200.61 157.41 207.291 158.924 213.348 161.92C236.645 173.449 247.568 198.197 240.618 222.856C239.703 226.105 238.398 229.237 236.744 232.18C224.574 253.819 200.481 263.613 176.588 256.549C173.841 255.736 171.188 254.636 168.672 253.267C151.287 243.801 141.336 226.724 141.336 208.113V202.235C129.948 202.235 119.213 197.997 110.931 190.259V213.063C110.931 235.9 127.147 266.93 152.967 279.659C189.672 297.755 226.447 288.392 249.344 265.478C264.018 250.799 273.093 230.516 273.093 208.116C273.093 185.715 264.018 165.432 249.344 150.753C234.672 136.071 214.402 126.99 192.012 126.99H155.434L155.525 157.412V157.41Z" fill="#FBFAFF"/>
<path d="M141.336 117.083V188.041C124.544 188.041 110.931 174.426 110.931 157.632V86.6741C119.327 86.6741 126.928 90.0774 132.429 95.5828C137.933 101.084 141.336 108.688 141.336 117.086V117.083Z" fill="#791AFF"/>
<path d="M141.336 116.942V188.042C124.544 188.042 110.931 174.398 110.931 157.572V86.4722C119.327 86.4722 126.928 89.8836 132.429 95.3972C137.933 100.911 141.336 108.528 141.336 116.942Z" fill="#07F8BD"/>
</svg>
