<svg width="89" height="78" viewBox="0 0 89 78" fill="none" xmlns="http://www.w3.org/2000/svg">
<path d="M18.1504 48.8923V67.2649C18.1504 68.3958 19.1106 68.8653 19.4094 68.972C19.7081 69.1 20.711 69.3774 21.6072 68.5452L37.3338 53.4801C38.7848 51.6023 39.3183 50.4287 39.3183 50.4287C40.1719 48.7003 40.1718 47.0359 39.3396 45.3715C38.102 42.8962 34.9439 40.3782 30.1854 37.9883L22.0554 42.5121C19.6441 43.8778 18.1504 46.289 18.1504 48.8923Z" fill="#2E4A85"/>
<path d="M10 8.02913V27.2979C10 29.7092 11.6218 31.843 13.9264 32.5259C21.779 34.7878 35.457 39.653 38.7645 46.8014C39.1913 47.7403 39.4474 48.6579 39.5327 49.6181C41.7306 45.6278 42.7335 41.04 42.2641 36.3882C41.6239 29.7945 38.1244 23.7984 32.6617 19.9788L13.1795 6.38605C12.8381 6.12999 12.4326 6.00195 12.0272 6.00195C11.6858 6.00195 11.387 6.06597 11.0669 6.23668C10.4268 6.59944 10 7.26094 10 8.02913Z" fill="url(#paint0_linear_2520_5007)"/>
<path d="M70.8371 48.8923V67.2649C70.8371 68.3958 69.8769 68.8653 69.5782 68.972C69.2794 69.1 68.2765 69.3774 67.3803 68.5452L51.6537 53.4801C50.2027 51.6023 49.6692 50.4287 49.6692 50.4287C48.8157 48.7003 48.8157 47.0359 49.6479 45.3715C50.8855 42.8962 54.0436 40.3782 58.8021 37.9883L66.9321 42.5121C69.3647 43.8778 70.8371 46.289 70.8371 48.8923Z" fill="#183779"/>
<path d="M79.0004 8.02718V27.296C79.0004 29.7072 77.3787 31.8411 75.0741 32.5239C67.2215 34.7858 53.5435 39.651 50.236 46.7995C49.8092 47.7384 49.5532 48.6559 49.4678 49.6162C47.2699 45.6259 46.267 41.038 46.7365 36.3862C47.3766 29.7926 50.8762 23.7964 56.3388 19.9768L75.821 6.3841C76.1624 6.12803 76.5679 6 76.9733 6C77.3147 6 77.6134 6.06402 77.9335 6.23473C78.5737 6.59748 79.0004 7.25899 79.0004 8.02718Z" fill="url(#paint1_linear_2520_5007)"/>
<defs>
<linearGradient id="paint0_linear_2520_5007" x1="10.0906" y1="49.3379" x2="42.1216" y2="49.3379" gradientUnits="userSpaceOnUse">
<stop stop-color="#1E245C"/>
<stop offset="0.932292" stop-color="#0094FF"/>
</linearGradient>
<linearGradient id="paint1_linear_2520_5007" x1="46.7137" y1="49.336" x2="78.7446" y2="49.336" gradientUnits="userSpaceOnUse">
<stop offset="0.0520833" stop-color="#0094FF"/>
<stop offset="1" stop-color="#1E245C"/>
</linearGradient>
</defs>
</svg>
