<svg width="46" height="46" viewBox="0 0 46 46" fill="none" xmlns="http://www.w3.org/2000/svg">
<path d="M39.6245 9.67188L26.0893 1.85335C25.1211 1.29431 24.0227 1 22.9046 1C21.7865 1 20.6882 1.29431 19.7199 1.85335L6.18474 9.67188C5.21624 10.231 4.41204 11.0353 3.85299 12.0039C3.29394 12.9724 2.99975 14.0711 3 15.1894V30.8106C2.99975 31.9289 3.29394 33.0276 3.85299 33.9961C4.41204 34.9647 5.21624 35.769 6.18474 36.3281L19.7199 44.1467C20.6882 44.7057 21.7865 45 22.9046 45C24.0227 45 25.1211 44.7057 26.0893 44.1467L39.6245 36.3281C40.593 35.769 41.3972 34.9647 41.9562 33.9961C42.5153 33.0276 42.8095 31.9289 42.8092 30.8106V15.1894C42.8095 14.0711 42.5153 12.9724 41.9562 12.0039C41.3972 11.0353 40.593 10.231 39.6245 9.67188V9.67188ZM39.6245 30.8106C39.6246 31.3697 39.4775 31.9191 39.198 32.4033C38.9185 32.8876 38.5164 33.2898 38.0321 33.5693L24.497 41.3799C24.0142 41.6634 23.4645 41.8128 22.9046 41.8128C22.3447 41.8128 21.795 41.6634 21.3122 41.3799L7.77711 33.5693C7.29286 33.2898 6.89076 32.8876 6.61123 32.4033C6.33171 31.9191 6.18461 31.3697 6.18474 30.8106V15.1894C6.18602 14.6295 6.33364 14.0796 6.61295 13.5943C6.89227 13.109 7.29358 12.7051 7.77711 12.4227L21.3122 4.61213C21.7964 4.33261 22.3456 4.18545 22.9046 4.18545C23.4636 4.18545 24.0128 4.33261 24.497 4.61213L38.0321 12.4227C38.5156 12.7051 38.9169 13.109 39.1963 13.5943C39.4756 14.0796 39.6232 14.6295 39.6245 15.1894V30.8106Z" fill="#7B3FE4"/>
<path d="M35.2454 21.3162L30.0702 18.3305C29.7063 18.1232 29.2948 18.0141 28.876 18.0141C28.4572 18.0141 28.0456 18.1232 27.6817 18.3305L16.9332 24.5447L12.5542 22.0129V16.9531L16.9332 14.4212L21.3122 16.9531V19.6761L24.4969 17.8249V16.4913C24.4972 16.0718 24.387 15.6596 24.1773 15.2962C23.9677 14.9328 23.666 14.631 23.3027 14.4212L18.1275 11.4555C17.7636 11.2481 17.352 11.1391 16.9332 11.1391C16.5144 11.1391 16.1028 11.2481 15.7389 11.4555L10.5637 14.4411C10.2023 14.653 9.90213 14.9553 9.69275 15.3182C9.48338 15.6811 9.37196 16.0922 9.36945 16.5112V22.4826C9.37167 22.9022 9.48292 23.314 9.69229 23.6776C9.90166 24.0412 10.202 24.3441 10.5637 24.5567L15.7389 27.5424C16.1034 27.7478 16.5148 27.8557 16.9332 27.8557C17.3516 27.8557 17.763 27.7478 18.1275 27.5424L28.876 21.3162L33.255 23.852V28.9038L28.876 31.4357L24.4969 28.9038V26.149L21.3122 27.9882V29.3696C21.314 29.7871 21.4253 30.1969 21.6348 30.558C21.8444 30.9191 22.1449 31.219 22.5065 31.4277L27.6817 34.4214C28.044 34.6331 28.4563 34.7444 28.876 34.7438C29.2959 34.7464 29.7086 34.6349 30.0702 34.4214L35.2454 31.4357C35.6082 31.2263 35.9095 30.9251 36.1191 30.5625C36.3287 30.1998 36.4393 29.7885 36.4397 29.3696V23.3982C36.4421 22.9767 36.3328 22.562 36.1231 22.1963C35.9133 21.8306 35.6105 21.527 35.2454 21.3162V21.3162Z" fill="#7B3FE4"/>
</svg>
