<svg version="1.1" xmlns="http://www.w3.org/2000/svg"  width="48" height="48" viewBox="0 0 48 48" fill="none">
    <path d="M37.1 22.4134C36.7689 22.3426 36.4239 22.2743 36.0658 22.2089C35.9636 21.3851 35.7848 20.5863 35.537 19.8205C40.1908 20.5695 43.2 21.7603 43.2 23.1014C43.2 23.1164 43.1996 23.1313 43.1989 23.1463C43.0879 25.3926 34.5348 27.2062 24 27.2062C13.3961 27.2062 4.79999 25.3687 4.79999 23.102C4.79999 23.0881 4.80031 23.0741 4.80096 23.0602C4.86261 21.7204 7.92786 20.5341 12.6264 19.7945C12.3771 20.5594 12.1967 21.3572 12.0927 22.1802C11.6777 22.2544 11.2798 22.3322 10.9 22.4134C10.4025 22.5197 9.94719 22.6296 9.53418 22.741V22.7416C9.09358 22.8605 8.7011 22.9813 8.35675 23.1017C9.02388 23.335 9.87172 23.5697 10.9 23.7895C11.2484 23.864 11.612 23.9356 11.9901 24.0042L11.9901 24.0048C15.1675 24.5813 19.3607 24.9418 24 24.9418C28.7152 24.9418 32.9697 24.5694 36.1652 23.9763L36.1652 23.9757C36.4878 23.9158 36.7996 23.8537 37.1 23.7895C38.1287 23.5696 38.9768 23.3348 39.6441 23.1014C38.9768 22.8681 38.1287 22.6333 37.1 22.4134Z"
          fill="#CBD5E1"/>
    <path d="M38.465 16.0224C38.4655 16.0118 38.4657 16.0011 38.4657 15.9904C38.4657 14.7802 35.2516 13.732 30.5641 13.2211C31.6797 13.9604 32.6708 14.8849 33.4976 15.9529C33.5583 15.9653 33.6185 15.9778 33.6781 15.9904C33.6348 15.9995 33.5912 16.0086 33.5473 16.0176L33.5477 16.0181C31.1594 16.5092 27.8268 16.8275 24.0876 16.8275C20.3393 16.8275 16.9995 16.5076 14.61 16.0145L14.6104 16.014C14.5724 16.0062 14.5347 15.9983 14.4972 15.9904C14.5489 15.9794 14.601 15.9686 14.6536 15.9579C15.4801 14.8891 16.4712 13.9638 17.5868 13.2237C12.9125 13.7356 9.7096 14.7823 9.7096 15.9904V15.9908L9.70957 15.9909C9.70957 17.5026 16.6706 18.7041 21.3624 19.0363C22.4122 19.1106 24.0561 19.1158 24.0561 19.1158C24.6363 19.141 25.6931 19.1114 26.7387 19.0393C31.456 18.714 38.3957 17.5257 38.465 16.0224Z"
          fill="#CBD5E1"/>
    <path d="M9.7096 31.6774C9.7096 30.8868 11.0816 30.1653 13.3401 29.6175C13.7005 30.3402 14.1263 31.0218 14.6093 31.654C14.5717 31.6618 14.5344 31.6696 14.4972 31.6774C14.5484 31.6882 14.6 31.699 14.6521 31.7096C14.6555 31.714 14.6589 31.7184 14.6623 31.7228H14.7138C17.0958 32.2038 20.3933 32.5146 24.0876 32.5146C27.782 32.5146 31.0795 32.2038 33.4615 31.7228H33.4927C33.4948 31.7201 33.4969 31.7173 33.499 31.7146C33.5593 31.7023 33.619 31.6899 33.6781 31.6774C33.6352 31.6684 33.5919 31.6593 33.5484 31.6504C34.0313 31.018 34.4569 30.336 34.817 29.6131C37.0864 30.1614 38.4657 30.8847 38.4657 31.6774C38.4657 31.6926 38.4652 31.7077 38.4642 31.7228C38.3533 33.4147 31.9591 34.779 24.0876 34.779C16.2161 34.779 9.82202 33.4147 9.71104 31.7228C9.71004 31.7077 9.7096 31.6926 9.7096 31.6774Z"
          fill="#CBD5E1"/>
</svg>
