<svg width="110" viewBox="0 0 110 29" fill="none" xmlns="http://www.w3.org/2000/svg">
  <path fill-rule="evenodd" clip-rule="evenodd"
        d="m17.031 1.191 10.07 10.07a4.066 4.066 0 0 1 0 5.75l-10.09 10.09a4.066 4.066 0 0 1-5.75 0L1.19 17.031a4.066 4.066 0 0 1 0-5.75l10.09-10.09a4.066 4.066 0 0 1 5.75 0Zm-3.556 2.554-.041.039-9.65 9.65a1.017 1.017 0 0 0-.039 1.397l.039.04 9.636 9.638c.384.383.998.396 1.398.038l.04-.038 9.65-9.651a1.017 1.017 0 0 0 0-1.438l-9.636-9.636a1.017 1.017 0 0 0-1.397-.039Zm.855 4.249 5.969 5.968c.099.1.099.26 0 .36l-5.977 5.977a.255.255 0 0 1-.36 0l-5.968-5.97a.252.252 0 0 1 0-.359l5.976-5.976c.1-.1.26-.1.36 0Z"
        fill="currentColor"/>
  <path
    d="m41.357 3.504-8.072 21.309h3.769l1.81-4.867h9.2l1.84 4.867h3.829L45.66 3.504h-4.304Zm2.078 4.214 3.383 8.904h-6.707l3.324-8.904ZM67.77 21.786h-8.22l8.131-9.853V9.232H55.187v3.027h8.25l-8.37 9.883v2.67H67.77v-3.026Zm3.562-.891c0 3.176 1.603 4.096 4.57 4.096.92 0 1.81-.09 2.464-.208v-2.997c-.534.059-.861.089-1.454.089-1.277 0-2.078-.149-2.078-1.544V12.26h3.265V9.232h-3.265v-4.57h-3.502v4.57h-2.166v3.027h2.166v8.636Zm15.993 4.245c3.116 0 5.58-1.633 6.678-4.363l-3.057-1.158c-.475 1.603-1.87 2.493-3.62 2.493-2.286 0-3.889-1.632-4.156-4.303h10.922v-1.187c0-4.274-2.404-7.687-6.915-7.687-4.333 0-7.42 3.532-7.42 8.102 0 4.808 3.117 8.102 7.568 8.102Zm-.178-13.207c2.256 0 3.324 1.483 3.354 3.205h-7.153c.534-2.107 1.959-3.205 3.8-3.205Zm12.199 5.104c0-3.175 1.662-5.045 4.095-5.045 1.9 0 3.057 1.276 3.502 2.968l2.998-1.633c-.831-2.492-3.146-4.392-6.5-4.392-4.451 0-7.657 3.294-7.657 8.102s3.206 8.102 7.657 8.102c3.384 0 5.758-1.988 6.559-4.51l-3.057-1.544c-.445 1.721-1.602 2.968-3.502 2.968-2.433 0-4.095-1.84-4.095-5.016Z"
    fill="currentColor"/>
</svg>