<svg width="315" height="315" viewBox="0 0 315 315" fill="none" xmlns="http://www.w3.org/2000/svg">
<rect width="315" height="315" rx="32" fill="#062819"/>
<path d="M162.897 131.076H160.004C156.546 143.142 147.056 152.632 134.99 156.09V158.983C147.056 162.44 156.546 171.93 160.004 183.996H162.897C166.354 171.93 175.844 162.44 187.91 158.983V156.09C175.844 152.632 166.354 143.142 162.897 131.076Z" fill="#E9FEA2"/>
<path d="M209.468 169.036C204.281 190.734 184.772 206.892 161.487 206.892C134.215 206.892 112.095 184.771 112.095 157.5C112.095 130.228 134.215 108.108 161.487 108.108C184.772 108.108 204.246 124.266 209.468 145.963C221.78 139.683 232.717 131.11 241.678 120.738C227.743 90.3972 197.084 69.2998 161.522 69.2998C112.8 69.2998 73.322 108.778 73.322 157.5C73.322 206.221 112.8 245.7 161.522 245.7C197.12 245.7 227.743 224.602 241.678 194.262C232.717 183.889 221.815 175.281 209.503 169.001L209.468 169.036Z" fill="#E9FEA2"/>
</svg>
