<svg width="100" height="100" viewBox="0 0 34 34" fill="none" xmlns="http://www.w3.org/2000/svg" class="sm:flex hidden">
  <rect width="34" height="34" rx="12" fill="#ffffff"/>
  <path
    d="M16.9998 26.0086C16.9998 26.5828 17.4646 27.0536 18.0328 26.9951C23.0703 26.4757 27 22.199 27 17C27 11.801 23.0703 7.52437 18.0328 7.00498C17.4646 6.94608 16.9998 7.4173 16.9998 7.99143V10.7633C16.9998 11.3374 17.4677 11.792 18.0278 11.9053C20.3922 12.3845 22.1725 14.4832 22.1725 17C22.1725 19.5169 20.3922 21.6155 18.0278 22.0948C17.4677 22.208 16.9998 22.663 16.9998 23.2368V26.0086ZM13.8964 8.87774C13.8964 8.1709 13.2078 7.67266 12.5774 7.98554C9.27281 9.62545 7 13.0459 7 17C7 20.9541 9.27281 24.3746 12.5774 26.0145C13.2078 26.3274 13.8964 25.8292 13.8964 25.1223V8.87808V8.87774Z"
    fill="#4E80EE"/>
</svg>