<svg class="w-32 md:w-40 xl:w-44 transition-all" width="220" height="45" viewBox="0 0 220 45" fill="none" xmlns="http://www.w3.org/2000/svg">
    <path fill-rule="evenodd" clip-rule="evenodd"
          d="M29.4575 26.5103C32.3587 26.4328 35.2504 26.144 38.1097 25.6462C38.3156 25.6089 38.5273 25.6172 38.7296 25.6707C38.932 25.7242 39.1201 25.8215 39.2808 25.9557C39.4414 26.0899 39.5706 26.2578 39.6592 26.4474C39.7478 26.637 39.7937 26.8438 39.7935 27.0531V32.4704C35.6885 33.3057 31.5086 33.7177 27.3194 33.7001C17.4597 33.7001 8.82976 31.562 4.05502 28.3604C2.53821 27.4475 1.31248 26.1219 0.521039 24.5384C0.23431 23.9202 0.0831878 23.2478 0.0778809 22.5664C0.100334 21.5172 0.436007 20.4987 1.04172 19.6418C1.09205 19.5635 1.15935 19.4976 1.23862 19.4488C1.31789 19.4001 1.4071 19.3698 1.49965 19.3603C1.59221 19.3507 1.68573 19.3621 1.7733 19.3935C1.86086 19.425 1.94024 19.4758 2.00553 19.5421C2.53666 20.0692 3.11104 20.551 3.72265 20.9822C6.43364 22.7566 9.43251 24.0461 12.5853 24.7932C16.7166 25.8443 20.9529 26.4277 25.2145 26.5325V29.2134C25.2145 29.4913 25.2693 29.7664 25.3756 30.0231C25.4819 30.2799 25.6378 30.5131 25.8343 30.7096C26.0308 30.9061 26.264 31.0619 26.5207 31.1683C26.7774 31.2746 27.0526 31.3294 27.3305 31.3294C27.8908 31.3264 28.4273 31.1026 28.8235 30.7064C29.2197 30.3102 29.4435 29.7737 29.4464 29.2134L29.4575 26.5103Z"
          fill="#C4C4C4" />
    <path fill-rule="evenodd" clip-rule="evenodd"
          d="M29.4575 26.5103C32.3587 26.4328 35.2504 26.144 38.1097 25.6462C38.3156 25.6089 38.5273 25.6172 38.7296 25.6707C38.932 25.7242 39.1201 25.8215 39.2808 25.9557C39.4414 26.0899 39.5706 26.2578 39.6592 26.4474C39.7478 26.637 39.7937 26.8438 39.7935 27.0531V32.4704C35.6885 33.3057 31.5086 33.7177 27.3194 33.7001C17.4597 33.7001 8.82976 31.562 4.05502 28.3604C2.53821 27.4475 1.31248 26.1219 0.521039 24.5384C0.23431 23.9202 0.0831878 23.2478 0.0778809 22.5664C0.100334 21.5172 0.436007 20.4987 1.04172 19.6418C1.09205 19.5635 1.15935 19.4976 1.23862 19.4488C1.31789 19.4001 1.4071 19.3698 1.49965 19.3603C1.59221 19.3507 1.68573 19.3621 1.7733 19.3935C1.86086 19.425 1.94024 19.4758 2.00553 19.5421C2.53666 20.0692 3.11104 20.551 3.72265 20.9822C6.43364 22.7566 9.43251 24.0461 12.5853 24.7932C16.7166 25.8443 20.9529 26.4277 25.2145 26.5325V29.2134C25.2145 29.4913 25.2693 29.7664 25.3756 30.0231C25.4819 30.2799 25.6378 30.5131 25.8343 30.7096C26.0308 30.9061 26.264 31.0619 26.5207 31.1683C26.7774 31.2746 27.0526 31.3294 27.3305 31.3294C27.8908 31.3264 28.4273 31.1026 28.8235 30.7064C29.2197 30.3102 29.4435 29.7737 29.4464 29.2134L29.4575 26.5103Z"
          fill="#FF7900" />
    <path fill-rule="evenodd" clip-rule="evenodd"
          d="M54.5496 22.4998C54.5483 23.1972 54.3932 23.8856 54.0954 24.5161C53.2947 26.0781 52.0749 27.3862 50.5725 28.2938C48.5284 29.5939 46.3137 30.6043 43.992 31.296V25.1808C43.9895 24.8842 44.0801 24.5942 44.251 24.3518C44.4219 24.1093 44.6645 23.9266 44.9447 23.8292C47.0494 23.1377 49.0479 22.1572 50.8827 20.9156C51.5037 20.4835 52.0857 19.9979 52.622 19.4644C52.6873 19.3981 52.7666 19.3473 52.8542 19.3159C52.9418 19.2844 53.0353 19.273 53.1279 19.2826C53.2204 19.2922 53.3096 19.3224 53.3889 19.3712C53.4682 19.4199 53.5355 19.4858 53.5858 19.5641C54.1986 20.4216 54.5349 21.4459 54.5496 22.4998Z"
          fill="#C4C4C4" />
    <path fill-rule="evenodd" clip-rule="evenodd"
          d="M54.5496 22.4998C54.5483 23.1972 54.3932 23.8856 54.0954 24.5161C53.2947 26.0781 52.0749 27.3862 50.5725 28.2938C48.5284 29.5939 46.3137 30.6043 43.992 31.296V25.1808C43.9895 24.8842 44.0801 24.5942 44.251 24.3518C44.4219 24.1093 44.6645 23.9266 44.9447 23.8292C47.0494 23.1377 49.0479 22.1572 50.8827 20.9156C51.5037 20.4835 52.0857 19.9979 52.622 19.4644C52.6873 19.3981 52.7666 19.3473 52.8542 19.3159C52.9418 19.2844 53.0353 19.273 53.1279 19.2826C53.2204 19.2922 53.3096 19.3224 53.3889 19.3712C53.4682 19.4199 53.5355 19.4858 53.5858 19.5641C54.1986 20.4216 54.5349 21.4459 54.5496 22.4998Z"
          fill="#FF7900" />
    <path fill-rule="evenodd" clip-rule="evenodd"
          d="M54.5497 33.8774C54.546 34.5709 54.391 35.2552 54.0954 35.8826C53.2948 37.4445 52.0749 38.7526 50.5726 39.6603C45.7757 42.8619 37.1457 45 27.3082 45C17.4706 45 8.81849 42.8619 4.04375 39.6603C2.52695 38.7474 1.30122 37.4218 0.509775 35.8383C0.223281 35.2239 0.0721655 34.5552 0.0666504 33.8774C0.0875785 32.8245 0.423257 31.802 1.03046 30.9417C1.08079 30.8634 1.14808 30.7975 1.22736 30.7487C1.30663 30.7 1.39583 30.6697 1.48839 30.6601C1.58094 30.6506 1.67447 30.6619 1.76203 30.6934C1.8496 30.7249 1.92897 30.7757 1.99426 30.842C2.52299 31.3718 3.0976 31.8537 3.71138 32.2821C6.4199 34.0611 9.4196 35.351 12.574 36.0931C17.3874 37.301 22.3346 37.8929 27.2971 37.8545C31.4862 37.8727 35.6662 37.4606 39.7712 36.6248V38.8405C39.7698 39.1188 39.8235 39.3946 39.9293 39.6519C40.0351 39.9093 40.1909 40.1432 40.3877 40.34C40.5845 40.5367 40.8183 40.6925 41.0757 40.7983C41.3331 40.9042 41.6089 40.9579 41.8872 40.9564C42.1651 40.9564 42.4402 40.9017 42.6969 40.7954C42.9536 40.689 43.1869 40.5332 43.3834 40.3367C43.5799 40.1402 43.7357 39.9069 43.842 39.6502C43.9484 39.3935 44.0031 39.1183 44.0031 38.8405V35.517C46.447 34.7986 48.7669 33.7115 50.8827 32.2932C51.5089 31.8679 52.0915 31.3818 52.622 30.842C52.6884 30.7755 52.7686 30.7247 52.857 30.6932C52.9455 30.6617 53.0398 30.6503 53.1332 30.6599C53.2266 30.6694 53.3166 30.6997 53.3969 30.7484C53.4771 30.7972 53.5455 30.8632 53.5969 30.9417C54.2014 31.8027 54.5333 32.8255 54.5497 33.8774Z"
          fill="#C4C4C4" />
    <path fill-rule="evenodd" clip-rule="evenodd"
          d="M54.5497 33.8774C54.546 34.5709 54.391 35.2552 54.0954 35.8826C53.2948 37.4445 52.0749 38.7526 50.5726 39.6603C45.7757 42.8619 37.1457 45 27.3082 45C17.4706 45 8.81849 42.8619 4.04375 39.6603C2.52695 38.7474 1.30122 37.4218 0.509775 35.8383C0.223281 35.2239 0.0721655 34.5552 0.0666504 33.8774C0.0875785 32.8245 0.423257 31.802 1.03046 30.9417C1.08079 30.8634 1.14808 30.7975 1.22736 30.7487C1.30663 30.7 1.39583 30.6697 1.48839 30.6601C1.58094 30.6506 1.67447 30.6619 1.76203 30.6934C1.8496 30.7249 1.92897 30.7757 1.99426 30.842C2.52299 31.3718 3.0976 31.8537 3.71138 32.2821C6.4199 34.0611 9.4196 35.351 12.574 36.0931C17.3874 37.301 22.3346 37.8929 27.2971 37.8545C31.4862 37.8727 35.6662 37.4606 39.7712 36.6248V38.8405C39.7698 39.1188 39.8235 39.3946 39.9293 39.6519C40.0351 39.9093 40.1909 40.1432 40.3877 40.34C40.5845 40.5367 40.8183 40.6925 41.0757 40.7983C41.3331 40.9042 41.6089 40.9579 41.8872 40.9564C42.1651 40.9564 42.4402 40.9017 42.6969 40.7954C42.9536 40.689 43.1869 40.5332 43.3834 40.3367C43.5799 40.1402 43.7357 39.9069 43.842 39.6502C43.9484 39.3935 44.0031 39.1183 44.0031 38.8405V35.517C46.447 34.7986 48.7669 33.7115 50.8827 32.2932C51.5089 31.8679 52.0915 31.3818 52.622 30.842C52.6884 30.7755 52.7686 30.7247 52.857 30.6932C52.9455 30.6617 53.0398 30.6503 53.1332 30.6599C53.2266 30.6694 53.3166 30.6997 53.3969 30.7484C53.4771 30.7972 53.5455 30.8632 53.5969 30.9417C54.2014 31.8027 54.5333 32.8255 54.5497 33.8774Z"
          fill="#FF7900" />
    <path fill-rule="evenodd" clip-rule="evenodd"
          d="M54.5495 11.1337C54.5447 11.8579 54.3821 12.5724 54.0731 13.2275C53.3027 14.6942 52.1556 15.9293 50.7496 16.8058C49.5875 17.5885 48.352 18.2563 47.0605 18.7998C41.4324 20.9966 35.4541 22.16 29.4128 22.2341V19.254C29.4121 18.4051 29.6647 17.5752 30.1384 16.8706C30.612 16.166 31.2851 15.6189 32.0716 15.2991L34.9963 14.1027C37.4889 13.1942 39.0731 11.8316 39.0731 10.325C39.0731 7.56646 33.7998 5.32865 27.2969 5.32865C20.7939 5.32865 15.5207 7.5443 15.5207 10.325C15.5207 11.8316 17.1049 13.1942 19.5975 14.1027L22.5332 15.2991C23.3188 15.6201 23.9911 16.1676 24.4646 16.8719C24.9381 17.5762 25.1913 18.4054 25.192 19.254V22.2341C19.1237 22.1683 13.1178 21.0009 7.46675 18.7888C6.18403 18.2462 4.95614 17.5821 3.79984 16.8058C2.3956 15.9272 1.24894 14.6927 0.476358 13.2275C0.167359 12.5724 0.00480777 11.8579 0 11.1337C0 4.98522 12.1861 0 27.2415 0C42.2969 0 54.5495 4.98522 54.5495 11.1337Z"
          fill="#C4C4C4" />
    <path fill-rule="evenodd" clip-rule="evenodd"
          d="M54.5495 11.1337C54.5447 11.8579 54.3821 12.5724 54.0731 13.2275C53.3027 14.6942 52.1556 15.9293 50.7496 16.8058C49.5875 17.5885 48.352 18.2563 47.0605 18.7998C41.4324 20.9966 35.4541 22.16 29.4128 22.2341V19.254C29.4121 18.4051 29.6647 17.5752 30.1384 16.8706C30.612 16.166 31.2851 15.6189 32.0716 15.2991L34.9963 14.1027C37.4889 13.1942 39.0731 11.8316 39.0731 10.325C39.0731 7.56646 33.7998 5.32865 27.2969 5.32865C20.7939 5.32865 15.5207 7.5443 15.5207 10.325C15.5207 11.8316 17.1049 13.1942 19.5975 14.1027L22.5332 15.2991C23.3188 15.6201 23.9911 16.1676 24.4646 16.8719C24.9381 17.5762 25.1913 18.4054 25.192 19.254V22.2341C19.1237 22.1683 13.1178 21.0009 7.46675 18.7888C6.18403 18.2462 4.95614 17.5821 3.79984 16.8058C2.3956 15.9272 1.24894 14.6927 0.476358 13.2275C0.167359 12.5724 0.00480777 11.8579 0 11.1337C0 4.98522 12.1861 0 27.2415 0C42.2969 0 54.5495 4.98522 54.5495 11.1337Z"
          fill="#FF7900" />
    <path d="M77.8141 8.69659H83.597L92.9803 20.4064L102.364 8.69659H108.146V36.1929H101.743V18.9883L93.645 28.8812H92.3931L84.2173 18.9108V36.1597H77.8141V8.69659Z"
          fill="#1D1D1B" />
    <path d="M123.545 8.69659H130.425L142.677 36.1929H135.731L133.682 31.2409H120.133L118.095 36.1929H111.215L123.545 8.69659ZM131.411 25.7018L126.979 14.8672L122.46 25.7018H131.411Z"
          fill="#1D1D1B" />
    <path d="M145.78 8.69659H158.941C165.388 8.69659 169.476 12.5075 169.476 18.5563C169.476 24.605 165.388 28.4159 158.941 28.4159H152.227V36.1707H145.78V8.69659ZM158.686 22.7992C159.262 22.8536 159.844 22.7838 160.391 22.5945C160.939 22.4053 161.439 22.101 161.859 21.7021C162.279 21.3032 162.608 20.8191 162.825 20.2822C163.042 19.7453 163.142 19.1681 163.117 18.5895C163.117 16.0415 161.389 14.3908 158.686 14.3908H152.238V22.7992H158.686Z"
          fill="#1D1D1B" />
    <path d="M173.597 8.69659H180.044V30.3768H193.87V36.1929H173.597V8.69659Z" fill="#1D1D1B" />
    <path d="M197.914 8.69659H218.896V14.0806H204.162V19.6198H218.11V24.8044H204.162V30.7424H219.328V36.1597H197.914V8.69659Z" fill="#1D1D1B" />
</svg>
