<svg width="200" height="200" viewBox="0 0 52 52" fill="none" xmlns="http://www.w3.org/2000/svg">
<circle cx="26" cy="26" r="26" fill="#484643"/>
<path d="M23.2183 22.7892L23.2244 23.2947L24.8002 23.3008C26.2903 23.3049 26.3739 23.3029 26.3719 23.2702C26.3719 23.2499 26.3535 23.205 26.3311 23.1724C26.3107 23.1377 26.2842 23.0929 26.274 23.0705C26.2638 23.048 26.2312 22.995 26.2027 22.9522C26.1741 22.9094 26.1497 22.8707 26.1497 22.8646C26.1497 22.8544 26.0029 22.6016 25.9458 22.5099C25.9336 22.4936 25.903 22.4365 25.8745 22.3815L25.8235 22.2856H24.5189H23.2142L23.2183 22.7892Z" fill="white"/>
<path d="M26.1086 22.302C26.1086 22.3244 26.1678 22.4386 26.2636 22.6016C26.2901 22.6465 26.3206 22.7015 26.3329 22.7239C26.3451 22.7464 26.3777 22.8055 26.4083 22.8564C26.4368 22.9074 26.4756 22.9747 26.4939 23.0093C26.5123 23.042 26.551 23.1072 26.5795 23.152C26.6081 23.1969 26.6387 23.2478 26.6448 23.2641C26.6529 23.2805 26.6794 23.3273 26.7018 23.3661C26.7263 23.4048 26.7671 23.4741 26.7895 23.519C26.8344 23.5985 26.9077 23.7228 26.9607 23.8044C26.973 23.8268 26.9913 23.8594 26.9995 23.8757C27.0076 23.892 27.0647 23.9939 27.1279 24.0999C27.1911 24.2059 27.2482 24.3079 27.2563 24.3242C27.3236 24.4648 27.4133 24.526 27.4296 24.4424C27.4337 24.4241 27.4765 24.3466 27.5274 24.2691C27.5764 24.1937 27.6171 24.1264 27.6171 24.1162C27.6171 24.1081 27.6457 24.0612 27.6783 24.0123C27.7129 23.9613 27.7394 23.9165 27.7394 23.9104C27.7394 23.9042 27.7823 23.8268 27.8353 23.7391C28.0534 23.3742 28.1675 23.1439 28.1675 23.0746C28.1675 23.0093 28.0778 22.9074 27.9066 22.781C27.7109 22.6342 27.7028 22.6302 27.5152 22.5405C27.4316 22.4997 27.346 22.4569 27.3277 22.4467C27.2767 22.4202 27.0586 22.355 26.924 22.3264C26.7671 22.2938 26.1086 22.2734 26.1086 22.302Z" fill="white"/>
<path d="M28.3165 23.3496C28.3064 23.3638 28.29 23.3903 28.2819 23.4066C28.2758 23.4229 28.2513 23.4637 28.2289 23.4984C28.2065 23.531 28.18 23.5799 28.1677 23.6064C28.1575 23.6309 28.1147 23.7043 28.074 23.7675C28.0352 23.8306 27.9924 23.9 27.9822 23.9244C27.972 23.9489 27.9517 23.9856 27.9394 24.008C27.8701 24.116 27.8069 24.2261 27.7335 24.3647C27.6887 24.4483 27.6296 24.5502 27.6031 24.589C27.5786 24.6277 27.5562 24.6664 27.5562 24.6746C27.5562 24.6827 27.5297 24.7296 27.495 24.7785C27.4624 24.8295 27.4339 24.8764 27.4339 24.8846C27.4339 24.8927 27.3972 24.96 27.3523 25.0313C27.3054 25.1027 27.2606 25.1822 27.2484 25.2066C27.2382 25.2311 27.2096 25.2841 27.1852 25.3228C27.1627 25.3616 27.122 25.4349 27.0955 25.4839C27.069 25.5328 27.0384 25.5838 27.0282 25.596C27.0201 25.6082 26.9813 25.6735 26.9446 25.7407C26.9079 25.808 26.8651 25.8875 26.8468 25.916C26.7938 26.0118 26.8182 26.0282 27.0404 26.0424C27.1505 26.0506 27.4971 26.0567 27.813 26.0567C28.4857 26.0567 28.4144 26.0832 28.551 25.7713C28.712 25.4023 28.7589 25.1679 28.7589 24.7419C28.7589 24.434 28.7467 24.3219 28.6774 24.0284C28.6264 23.8062 28.606 23.7532 28.4959 23.5289C28.4022 23.3394 28.3573 23.2966 28.3165 23.3496Z" fill="white"/>
<path d="M23.4037 23.5026C23.3221 23.5067 23.2691 23.5209 23.2508 23.5433C23.2304 23.5698 23.2222 23.7737 23.2182 24.5463C23.2161 25.0804 23.2202 25.6349 23.2284 25.7816C23.2426 26.0181 23.2487 26.0466 23.2814 26.0466C23.3058 26.0466 23.3405 26.0059 23.3813 25.9345C23.4404 25.8265 23.5647 25.6104 23.6034 25.5472C23.6136 25.5309 23.6503 25.4657 23.6829 25.4045C23.7808 25.2292 23.8338 25.1354 23.8888 25.0478C23.9174 25.0029 23.948 24.952 23.9561 24.9356C23.9643 24.9193 23.9806 24.8867 23.9948 24.8643C24.0091 24.8419 24.0703 24.7359 24.1314 24.6299C24.1926 24.5239 24.2537 24.4179 24.268 24.3954C24.2823 24.373 24.3006 24.3363 24.3128 24.3119C24.3292 24.2752 24.4657 24.0428 24.5187 23.9572C24.5289 23.9409 24.5514 23.898 24.5697 23.8654C24.586 23.8308 24.6268 23.7574 24.6614 23.7024C24.747 23.5576 24.7511 23.5495 24.7267 23.525C24.7042 23.5026 23.6626 23.4842 23.4037 23.5026Z" fill="white"/>
<path d="M24.1316 25.0823C24.1112 25.1312 24.0949 25.1557 24.0052 25.2964C23.9726 25.3432 23.9482 25.3861 23.9482 25.3922C23.9482 25.3983 23.9237 25.437 23.8952 25.4798C23.8666 25.5226 23.834 25.5756 23.8238 25.5981C23.8136 25.6205 23.7871 25.6653 23.7647 25.7C23.7423 25.7326 23.7158 25.7795 23.7035 25.8019C23.6933 25.8243 23.675 25.8569 23.6628 25.8733C23.6077 25.9589 23.3978 26.3217 23.3978 26.3299C23.3978 26.336 23.3713 26.3788 23.3386 26.4277C23.3081 26.4767 23.2714 26.548 23.2591 26.5867C23.2449 26.6357 23.2347 27.2574 23.2306 28.5029L23.2245 30.3478L23.9971 30.3539C24.5495 30.3559 24.7778 30.3518 24.7962 30.3355C24.8206 30.3152 24.8247 30.0563 24.8247 28.8087C24.8247 27.6304 24.8308 27.3002 24.8512 27.2839C24.8634 27.2717 24.9837 27.2594 25.1142 27.2554C25.2446 27.2533 25.3608 27.2391 25.3731 27.2289C25.3853 27.2146 25.369 27.1636 25.3241 27.076C25.1488 26.7315 25.0836 26.6071 25.0184 26.495C24.9796 26.4277 24.9246 26.3258 24.8961 26.2708C24.8675 26.2137 24.8247 26.1362 24.8003 26.0975C24.7778 26.0588 24.7371 25.9854 24.7085 25.9344C24.682 25.8834 24.627 25.7876 24.5882 25.7204C24.5495 25.6531 24.5087 25.5797 24.4986 25.5573C24.4863 25.5349 24.47 25.5022 24.4578 25.4859C24.4048 25.4044 24.2539 25.1333 24.2539 25.121C24.2539 25.1027 24.1846 25.0375 24.1642 25.0375C24.1581 25.0375 24.1418 25.0579 24.1316 25.0823Z" fill="white"/>
<path d="M25.5847 26.279C25.3768 26.2851 25.2259 26.2994 25.2116 26.3136C25.1912 26.334 25.2891 26.546 25.4828 26.8926C25.5174 26.9537 25.5908 27.0923 25.6458 27.1983C25.7009 27.3043 25.7783 27.4511 25.8171 27.5245C25.8558 27.5979 25.9333 27.7446 25.9903 27.8507C26.0474 27.9567 26.133 28.1177 26.1799 28.2074C26.2268 28.2971 26.3022 28.4418 26.3491 28.5274C26.396 28.6151 26.4857 28.7843 26.5489 28.9046C26.6121 29.0248 26.6794 29.1533 26.6997 29.1899C26.7201 29.2246 26.7976 29.3673 26.8689 29.5059C26.9423 29.6445 27.0279 29.8076 27.0626 29.8688C27.0952 29.9299 27.1604 30.0543 27.2073 30.144C27.2542 30.2337 27.3072 30.3193 27.3256 30.3335C27.3643 30.3621 28.2286 30.3662 28.7036 30.3397C28.9971 30.3234 29.0522 30.305 28.9971 30.2357C28.9829 30.2194 28.9503 30.1644 28.9258 30.1134C28.8993 30.0624 28.8606 29.989 28.8381 29.9503C28.8137 29.9116 28.7749 29.8423 28.7525 29.7974C28.7281 29.7526 28.6975 29.7016 28.6852 29.6853C28.673 29.669 28.6282 29.5895 28.5854 29.512C28.5446 29.4325 28.5018 29.3551 28.4916 29.3388C28.4345 29.2429 28.2898 28.9902 28.2898 28.9841C28.2898 28.9759 28.1267 28.6885 28.0859 28.6253C28.0757 28.609 28.0431 28.5478 28.0125 28.4928C27.9514 28.3725 27.931 28.3399 27.8556 28.2237C27.825 28.1748 27.8005 28.1258 27.8005 28.1116C27.8005 28.0993 27.7883 28.0728 27.772 28.0565C27.7577 28.0382 27.7108 27.9587 27.668 27.8812C27.6273 27.8017 27.5743 27.7059 27.5518 27.6672C27.5294 27.6285 27.4886 27.5551 27.4601 27.5041C27.4336 27.4531 27.3908 27.3798 27.3684 27.341C27.2746 27.18 27.2277 27.076 27.2338 27.0434C27.2379 27.0251 27.2909 26.9822 27.3521 26.9476C27.7251 26.7478 27.6905 26.7682 27.8821 26.6255C28.0941 26.4665 28.2205 26.3483 28.2021 26.3299C28.194 26.3218 28.0982 26.3075 27.9881 26.2994C27.7149 26.2769 26.0128 26.2627 25.5847 26.279Z" fill="white"/>
<path d="M48.2857 25.9999C48.2857 38.3084 38.3084 48.2857 25.9999 48.2857C13.6915 48.2857 3.71423 38.3084 3.71423 25.9999C3.71423 13.6915 13.6915 3.71423 25.9999 3.71423C38.3084 3.71423 48.2857 13.6915 48.2857 25.9999ZM28.1538 48.048C29.2176 47.9349 30.1719 47.7764 31.0508 47.569L31.5299 47.4558V47.4256C31.5299 47.3841 17.5051 33.3216 16.7658 32.6238C16.4602 32.3371 16.2075 32.107 16.2 32.1146C16.1811 32.1372 16.0264 41.2092 16 43.7138L15.9774 45.7923L16.0868 45.8338C16.1472 45.8564 16.4414 45.9884 16.7432 46.1242C18.2294 46.8108 19.8665 47.3464 21.5073 47.6859L22.2316 47.8368L22.9106 47.9311C23.284 47.9801 23.8121 48.0442 24.0799 48.0631C24.3515 48.0857 24.6458 48.1121 24.7401 48.1197C24.8344 48.1272 25.5133 48.1272 26.2489 48.1235L27.588 48.1084L28.1538 48.048V48.048ZM32.9444 47.0295L33.8875 46.7165L34.491 46.4675C36.5468 45.615 38.4744 44.4419 40.2624 42.9519L40.7527 42.5445L41.6241 41.6769L42.4954 40.8055L42.8915 40.334C43.7478 39.3193 44.5928 38.116 45.2001 37.0598C45.5169 36.5053 45.7508 36.0564 45.7508 35.9961V35.9584H38.8139H31.8769L31.8543 37.2899C31.843 38.0179 31.8128 40.2322 31.7939 42.2012C31.7751 44.174 31.7449 46.1469 31.7336 46.592L31.7109 47.3992L31.8543 47.3728C31.9373 47.3577 32.4276 47.2031 32.9444 47.0295V47.0295ZM31.5676 46.9654C31.5676 46.8749 31.594 44.8757 31.6242 42.5219C31.6544 40.1681 31.6808 37.7577 31.6808 37.1654V36.0904L28.8819 38.8893L26.0792 41.692L28.7951 44.4079C30.2889 45.9017 31.5223 47.1238 31.5374 47.1238H31.5676V46.9654ZM15.7775 45.3434C15.7888 45.1925 15.8077 44.5777 15.819 43.9741C15.868 41.2582 15.9548 36.3054 15.9887 34.242L16.0227 31.9788L15.9963 31.9524L15.9699 31.9297L13.3105 31.8882C11.8469 31.8656 9.29321 31.8354 7.63724 31.8203L4.62332 31.7977L4.64972 31.9335C4.69121 32.1561 5.07974 33.3292 5.31361 33.9365C6.94694 38.2103 9.87789 41.8693 13.7255 44.4381C14.5138 44.9662 15.6153 45.615 15.7247 45.615H15.7549L15.7775 45.3434V45.3434ZM28.8404 38.7045L31.6808 35.8641V34.0648V32.2654L31.5223 32.2466C31.3526 32.224 30.0701 32.1938 23.7593 32.0731C18.2218 31.9637 16.547 31.9373 16.4452 31.9561L16.3584 31.9712L21.1414 36.7543C23.7744 39.3872 25.9434 41.5411 25.966 41.5411C25.9849 41.5411 27.2825 40.2624 28.8404 38.7045ZM46.2035 35.1398C47.3653 32.5144 47.9537 30.0889 48.131 27.207L48.1763 26.4715L48.1536 25.5096L48.131 24.5477L48.0707 23.9441C48.0405 23.6122 47.9801 23.103 47.9386 22.8125C47.8179 21.9789 47.5011 20.4587 47.4332 20.3908L47.4143 20.3682L46.8938 20.8623C46.6071 21.1339 43.1329 24.6005 39.1684 28.5612L31.9637 35.7698H38.9421H45.9205L46.2035 35.1398V35.1398ZM38.6781 23.1331L35.8112 20.2663H33.8422H31.8694V27.969V35.6754L36.7052 30.8396L41.5449 25.9999L38.6781 23.1331ZM31.6808 26.1508V20.2663H25.9471H20.2135V26.0528V31.8354L21.696 31.8656C22.507 31.8807 24.5665 31.9222 26.2678 31.9599C27.969 31.9939 29.8815 32.0278 30.5227 32.0316L31.6808 32.0353V26.1508ZM20.0249 24.1327V16.4188H19.991C19.9721 16.4188 17.7956 18.5726 15.1551 21.2093L10.3494 25.9999L13.2351 28.863L16.1208 31.7298L16.2716 31.7524C16.3546 31.7675 17.1015 31.7902 17.9314 31.8052C18.7612 31.8203 19.5722 31.8354 19.7344 31.8392L20.0249 31.8467V24.1327ZM15.7058 31.5751C15.6228 31.4846 14.378 30.2285 12.9333 28.7838L10.3117 26.1508H10.2702H10.2287L7.51654 28.8781L4.80438 31.6016L6.06804 31.628C7.70514 31.6657 12.1638 31.7185 14.2347 31.726L15.8529 31.7336L15.7058 31.5751V31.5751ZM13.3256 22.8389L19.9231 16.2377L18.814 16.2151C18.203 16.2037 16.1773 16.1849 14.3101 16.1736C12.4429 16.1622 9.84394 16.1434 8.53878 16.1283L6.15857 16.1057L5.93979 16.5734C4.88736 18.7914 4.20461 21.3037 3.92924 23.963L3.86512 24.5854V25.9622L3.86135 27.3391L3.91038 27.8294C3.99337 28.6819 4.10276 29.4665 4.24233 30.187C4.37058 30.8547 4.50638 31.4507 4.54787 31.5186L4.56673 31.5487L5.64556 30.4925C6.24156 29.9116 9.69682 26.4677 13.3256 22.8389V22.8389ZM44.3891 23.1482C45.864 21.6658 47.071 20.4361 47.071 20.421V20.3908L45.5358 20.3644C44.6871 20.3531 42.4615 20.3229 40.583 20.304C38.7045 20.2852 36.9203 20.2588 36.6147 20.2475L36.0564 20.2248V20.255C36.0564 20.2701 37.3088 21.5375 38.8365 23.0652L41.6203 25.8491H41.6618H41.7071L44.3891 23.1482V23.1482ZM47.2747 19.8514C47.0635 19.0517 46.5693 17.7201 46.1242 16.7507C44.1401 12.4014 40.6018 8.66326 36.3695 6.43394L35.9055 6.18875V13.1106V20.0362L35.9734 20.0551C36.0074 20.0664 37.6181 20.0928 39.5456 20.1154C41.477 20.1381 43.3329 20.1607 43.6761 20.1645C44.0194 20.172 44.9888 20.1796 45.8338 20.1833L47.369 20.1909L47.2747 19.8514ZM30.7755 15.2607C28.1538 12.6278 25.9924 10.4701 25.9735 10.4626L25.9396 10.4512L23.0766 13.3105L20.2135 16.1736V18.1049V20.04H27.8747H35.5359L30.7755 15.2607V15.2607ZM35.7169 13.0163V6.13971L35.6868 6.09822C35.6566 6.05672 34.838 5.69083 34.2081 5.44187C32.2013 4.64218 30.1267 4.14803 27.9841 3.95565L27.3617 3.89907L26.5884 3.87643L25.8151 3.85003L24.9664 3.89152L24.1177 3.93302L23.6084 3.9896C22.5862 4.10653 20.6247 4.46866 20.4398 4.57805L20.3833 4.60823L28.0218 12.2506C32.224 16.4527 35.6717 19.8891 35.6868 19.8891H35.7169V13.0163V13.0163ZM20.04 14.7892C20.0513 14.0989 20.0815 11.896 20.1003 9.89297C20.123 7.88998 20.1456 5.89829 20.1532 5.46827L20.1645 4.68367L20.1418 4.67235C20.0702 4.63086 18.7839 5.04957 17.8182 5.43055L17.1015 5.71346L16.3471 6.07936C12.1412 8.12385 8.7123 11.4131 6.46411 15.5625L6.28682 15.8944L6.30568 15.9133L6.32454 15.9359L9.92315 15.9699C13.9933 16.0114 15.2607 16.0189 18.0483 16.034L20.0174 16.0415L20.04 14.7892V14.7892ZM23.0992 7.59198L20.3833 4.87605L20.3606 5.27967C20.3455 5.50599 20.3154 7.67496 20.2927 10.1004C20.2701 12.5297 20.2399 14.8269 20.2286 15.2117L20.206 15.9095L23.0124 13.1106L25.8151 10.3079L23.0992 7.59198V7.59198Z" fill="white" stroke="white" stroke-width="0.8"/>
</svg>