<svg width="200" height="200" viewBox="0 0 40 40" fill="none" xmlns="http://www.w3.org/2000/svg">
  <path
    d="M0 13.8883L10.3833 19.8857C12.6452 21.1917 14.0333 23.6104 14.0198 26.2224L13.9903 31.8882C15.8308 32.9556 17.8577 33.6582 19.9515 33.9639L19.9913 26.2533C20.016 21.4969 17.4883 17.0924 13.3691 14.7142L1.78576 8.02604C0.938576 9.86058 0.330051 11.8279 0 13.8883Z"
    fill="#45A6FF"/>
  <path
    d="M30.349 38.6238C28.4666 39.3397 26.4638 39.8114 24.3793 40L24.3797 26.6299C24.3797 21.8735 26.9302 17.4822 31.0617 15.1253L37.7592 11.3046C38.5414 13.2707 38.9464 15.3773 38.9422 17.5049L34.0207 20.3123C31.7519 21.6066 30.3513 24.0181 30.3513 26.6299L30.349 38.6238Z"
    fill="#45A6FF"/>
  <path
    d="M40.803 4.4849L29.2582 11.1498C25.139 13.528 20.0607 13.5149 15.9538 11.1153L9.29622 7.22546C10.6079 5.56506 12.2298 4.16103 14.0744 3.10082L18.9664 5.95925C21.2217 7.27696 24.0104 7.28417 26.2724 5.97824L36.6316 0C38.2159 1.29824 39.6207 2.80752 40.803 4.4849Z"
    fill="#45A6FF"/>
  <path
    d="M14.0193 26.2218C14.0325 23.6706 12.7085 21.3036 10.5391 19.978L13.335 21.5924C17.3867 23.9316 19.8987 28.2312 19.9565 32.8979L19.951 33.9633C17.8572 33.6576 15.8303 32.955 13.9899 31.8877L14.0193 26.2218Z"
    fill="url(#paint0_linear_813_4740)"/>
  <path
    d="M26.1125 6.06766C23.8798 7.28362 21.168 7.24683 18.9651 5.95974L14.0731 3.10132C12.2285 4.16152 10.6066 5.56556 9.29492 7.22596L10.2149 7.76346C14.2852 10.0467 19.2648 10.0211 23.3164 7.68186L26.1125 6.06766Z"
    fill="url(#paint1_linear_813_4740)"/>
  <path
    d="M30.3535 26.4493C30.4168 23.9077 31.8046 21.5776 34.0207 20.3134L38.9422 17.506C38.9463 15.3784 38.5413 13.2718 37.7592 11.3057L36.8337 11.8336C32.8212 14.217 30.3536 18.5422 30.3536 23.2207L30.3535 26.4493Z"
    fill="url(#paint2_linear_813_4740)"/>
  <defs>
    <linearGradient id="paint0_linear_813_4740" x1="16.474" y1="22.4858" x2="16.474" y2="33.0311" gradientUnits="userSpaceOnUse">
      <stop stop-color="#0066FF"/>
      <stop offset="1" stop-color="#0066FF" stop-opacity="0.3"/>
    </linearGradient>
    <linearGradient id="paint1_linear_813_4740" x1="19.4007" y1="9.15287" x2="11.6188" y2="4.85071" gradientUnits="userSpaceOnUse">
      <stop stop-color="#0066FF"/>
      <stop offset="1" stop-color="#0066FF" stop-opacity="0.3"/>
    </linearGradient>
    <linearGradient id="paint2_linear_813_4740" x1="30.3535" y1="19.2804" x2="38.9435" y2="14.0643" gradientUnits="userSpaceOnUse">
      <stop stop-color="#0066FF"/>
      <stop offset="1" stop-color="#0066FF" stop-opacity="0.3"/>
    </linearGradient>
  </defs>
</svg>