<svg width="100%" height="100%" viewBox="0 0 56 56" fill="none" xmlns="http://www.w3.org/2000/svg">
  <path fill-rule="evenodd" clip-rule="evenodd"
        d="M27.8633 11.6667C30.9424 11.6667 33.8954 10.4375 36.0727 8.24958C38.2499 6.06165 39.4731 3.09419 39.4731 0H16.2536C16.2536 3.09419 17.4768 6.06165 19.654 8.24958C21.8313 10.4375 24.7843 11.6667 27.8633 11.6667ZM0 39.6667V16.3333C3.07909 16.3333 6.03208 17.5625 8.20933 19.7504C10.3866 21.9383 11.6097 24.9058 11.6097 28C11.6097 31.0942 10.3866 34.0617 8.20933 36.2496C6.03208 38.4375 3.07909 39.6667 0 39.6667ZM27.8633 39.6667C34.2752 39.6667 39.4731 34.4433 39.4731 28C39.4731 21.5567 34.2752 16.3333 27.8633 16.3333C21.4515 16.3333 16.2536 21.5567 16.2536 28C16.2536 34.4433 21.4515 39.6667 27.8633 39.6667ZM44.117 28C44.117 31.0942 45.3401 34.0617 47.5174 36.2496C49.6946 38.4375 52.6476 39.6667 55.7267 39.6667V16.3333C52.6476 16.3333 49.6946 17.5625 47.5174 19.7504C45.3401 21.9383 44.117 24.9058 44.117 28ZM55.7267 0V11.6667C52.6476 11.6667 49.6946 10.4375 47.5174 8.24958C45.3401 6.06165 44.117 3.09419 44.117 0H55.7267ZM0 11.6667C3.07909 11.6667 6.03208 10.4375 8.20933 8.24958C10.3866 6.06165 11.6097 3.09419 11.6097 0H0V11.6667ZM19.654 47.7504C21.8313 45.5625 24.7843 44.3333 27.8633 44.3333C30.9424 44.3333 33.8954 45.5625 36.0727 47.7504C38.2499 49.9383 39.4731 52.9058 39.4731 56H16.2536C16.2536 52.9058 17.4768 49.9383 19.654 47.7504ZM44.117 56H55.7267V44.3333C52.6476 44.3333 49.6946 45.5625 47.5174 47.7504C45.3401 49.9383 44.117 52.9058 44.117 56ZM0 56V44.3333C3.07909 44.3333 6.03208 45.5625 8.20933 47.7504C10.3866 49.9383 11.6097 52.9058 11.6097 56H0Z"
        fill="currentColor"></path>
</svg>