<svg width="200" height="200" viewBox="0 0 200 200" fill="none" xmlns="http://www.w3.org/2000/svg">
<g clip-path="url(#clip0_0_3)">
<path d="M22.6365 150.425L0 127.788L27.7875 100.001C36.9722 90.8158 48.814 85.8785 60.8623 85.168C57.5949 82.5367 53.4507 80.9515 48.9389 80.9515H9.6401V48.9381H48.9389C61.928 48.9381 73.7925 53.8207 82.8141 61.8375C82.3649 57.6664 80.5546 53.6142 77.3646 50.4231L49.5771 22.6355L72.2125 0L99.9998 27.7876C109.185 36.9724 114.122 48.8152 114.833 60.8626C117.465 57.5952 119.049 53.451 119.049 48.9381V9.64016H151.062V48.9392C151.062 61.9283 146.179 73.7939 138.162 82.8145C142.333 82.3653 146.384 80.555 149.576 77.364L177.364 49.5763L200 72.2129L172.213 100.001C163.028 109.185 151.185 114.122 139.138 114.832C142.405 117.464 146.551 119.048 151.062 119.048H190.36V151.062H151.062C138.073 151.062 126.208 146.178 117.186 138.161C117.635 142.334 119.446 146.385 122.636 149.576L150.424 177.363L127.788 200L99.998 172.212C90.8143 163.028 85.877 151.185 85.1676 139.137C82.5352 142.405 80.9511 146.549 80.9511 151.062V190.361H48.9379V151.062C48.9379 138.073 53.8204 126.208 61.8361 117.188C57.6651 117.637 53.6139 119.446 50.4229 122.637L22.6365 150.425Z" fill="#404040"/>
</g>
<defs>
<clipPath id="clip0_0_3">
<rect width="200" height="200" fill="white"/>
</clipPath>
</defs>
</svg>
