<svg width="100" height="100" viewBox="0 0 32 32" fill="none" xmlns="http://www.w3.org/2000/svg">
    <rect width="32" height="32" fill="#fff"/>
    <circle cx="16" cy="16" r="16" fill="#178DD0"/>
    <path d="M7.46268 16.6239C7.5453 15.8873 7.5866 15.5189 7.90854 15.2606C8.23048 15.0023 8.598 15.0417 9.33305 15.1204C9.66482 15.156 10.0499 15.202 10.4907 15.2616C10.8781 15.314 11.2309 15.3951 11.5476 15.4912C12.1934 15.6873 12.5164 15.7853 13.0082 16.4486C13.5 17.1119 13.5 17.6452 13.5 18.7119C13.5 19.3686 13.5 20.2019 13.5 21.25C13.5 22.7226 13.5 23.7711 13.5 24.5015C13.5 25.2076 13.5 25.5607 13.2803 25.7803C13.0607 26 12.7072 26 12.0004 26C11.4586 26 10.8361 26 10.25 26C10.2094 26 10.1692 26 10.1293 26C8.9673 25.9995 8.38631 25.9993 7.95647 25.6053C7.52663 25.2113 7.47891 24.6667 7.38349 23.5774C7.30868 22.7236 7.25 21.6783 7.25 20.5C7.25 18.9261 7.35469 17.5868 7.46268 16.6239Z"
          fill="white"/>
    <path d="M24.2873 16.6239C24.2047 15.8873 24.1634 15.5189 23.8415 15.2606C23.5195 15.0023 23.152 15.0417 22.417 15.1204C22.0852 15.156 21.7001 15.202 21.2593 15.2616C20.8719 15.314 20.5191 15.3951 20.2024 15.4912C19.5566 15.6873 19.2336 15.7853 18.7418 16.4486C18.25 17.1119 18.25 17.6452 18.25 18.7119C18.25 19.3686 18.25 20.2019 18.25 21.25C18.25 22.7226 18.25 23.7711 18.25 24.5015C18.25 25.2076 18.25 25.5607 18.4697 25.7803C18.6893 26 19.0428 26 19.7496 26C20.2914 26 20.9139 26 21.5 26C21.5406 26 21.5808 26 21.6207 26C22.7827 25.9995 23.3637 25.9993 23.7935 25.6053C24.2234 25.2113 24.2711 24.6667 24.3665 23.5774C24.4413 22.7236 24.5 21.6783 24.5 20.5C24.5 18.9261 24.3953 17.5868 24.2873 16.6239Z"
          fill="white"/>
    <path d="M7.5 8.51043C7.5 7.35905 7.5 6.78336 7.83282 6.37106C7.87514 6.31864 7.92494 6.26501 7.97409 6.21893C8.36065 5.85653 8.91977 5.81507 10.038 5.73215C11.6002 5.61631 13.7332 5.5 16 5.5C18.2668 5.5 20.3998 5.61631 21.962 5.73215C23.0802 5.81507 23.6393 5.85653 24.0259 6.21893C24.0751 6.26501 24.1249 6.31864 24.1672 6.37106C24.5 6.78336 24.5 7.35905 24.5 8.51043V8.51043C24.5 9.65222 24.5 10.2231 24.1674 10.6353C24.1254 10.6875 24.0751 10.7416 24.0263 10.7874C23.64 11.1498 23.0881 11.1911 21.9842 11.2736C20.4614 11.3875 18.3601 11.5 16 11.5C13.6399 11.5 11.5386 11.3875 10.0158 11.2736C8.9119 11.1911 8.35997 11.1498 7.97371 10.7874C7.92485 10.7416 7.87462 10.6875 7.83255 10.6353C7.5 10.2231 7.5 9.65222 7.5 8.51043V8.51043Z"
          fill="white"/>
</svg>
