<svg viewBox="0 0 37 37" fill="none" xmlns="http://www.w3.org/2000/svg">
    <g filter="url(#filter0_b_613_17183)">
        <rect x="37" y="37" width="37" height="37" rx="1" transform="rotate(180 37 37)" fill="#178DD0"/>
    </g>
    <circle cx="19" cy="19" r="17" fill="#178DD0"/>
    <path d="M10.0007 19.0738C10.0693 18.5514 10.1036 18.2902 10.3235 18.114C10.5434 17.9377 10.8042 17.9609 11.3258 18.0073C11.7848 18.0482 12.3878 18.1129 13.1464 18.2155C13.8959 18.3168 14.5239 18.5192 15.0194 18.7355C15.5206 18.9542 15.7712 19.0636 16.0575 19.5009C16.3437 19.9381 16.3437 20.3191 16.3437 21.081C16.3437 21.8588 16.3437 22.9848 16.3437 24.5781C16.3437 26.5518 16.3437 27.8085 16.3437 28.5742C16.3437 29.0694 16.3437 29.317 16.1898 29.471C16.0358 29.625 15.7881 29.625 15.2928 29.625C14.6202 29.625 13.7209 29.625 12.8906 29.625C12.5271 29.625 12.1887 29.6244 11.8826 29.6234C11.0678 29.6207 10.6604 29.6194 10.3624 29.3524C10.0643 29.0854 10.0205 28.699 9.93277 27.9262C9.81674 26.9039 9.70312 25.4713 9.70312 23.7813C9.70312 21.7586 9.86587 20.1005 10.0007 19.0738Z"
          fill="white"/>
    <path d="M27.7337 19.0738C27.6651 18.5514 27.6308 18.2902 27.4109 18.114C27.191 17.9377 26.9302 17.9609 26.4086 18.0073C25.9496 18.0482 25.3466 18.1129 24.588 18.2155C23.8385 18.3168 23.2105 18.5192 22.715 18.7355C22.2137 18.9542 21.9631 19.0636 21.6769 19.5009C21.3906 19.9381 21.3906 20.3191 21.3906 21.081C21.3906 21.8588 21.3906 22.9848 21.3906 24.5781C21.3906 26.5518 21.3906 27.8085 21.3906 28.5742C21.3906 29.0694 21.3906 29.317 21.5446 29.471C21.6986 29.625 21.9463 29.625 22.4416 29.625C23.1142 29.625 24.0135 29.625 24.8438 29.625C25.2072 29.625 25.5457 29.6244 25.8517 29.6234C26.6665 29.6207 27.0739 29.6194 27.372 29.3524C27.67 29.0854 27.7139 28.699 27.8016 27.9262C27.9176 26.9039 28.0312 25.4713 28.0312 23.7813C28.0312 21.7586 27.8685 20.1005 27.7337 19.0738Z"
          fill="white"/>
    <path d="M9.96875 10.2076C9.96875 9.31494 9.96875 8.8686 10.2465 8.56677C10.5242 8.26494 10.9606 8.22859 11.8333 8.15589C13.5167 8.01564 16.1594 7.84375 19 7.84375C21.8406 7.84375 24.4833 8.01564 26.1667 8.15589C27.0394 8.22859 27.4758 8.26494 27.7535 8.56677C28.0312 8.8686 28.0312 9.31494 28.0312 10.2076V11.8702C28.0312 12.756 28.0312 13.1988 27.7542 13.5005C27.4771 13.8022 27.0461 13.8389 26.184 13.9123C24.5495 14.0514 21.9673 14.2187 19 14.2187C16.0327 14.2187 13.4505 14.0514 11.816 13.9123C10.9539 13.8389 10.5229 13.8022 10.2458 13.5005C9.96875 13.1988 9.96875 12.756 9.96875 11.8702V10.2076Z"
          fill="white"/>
    <defs>
        <filter id="filter0_b_613_17183" x="-14" y="-14" width="65" height="65" filterUnits="userSpaceOnUse" color-interpolation-filters="sRGB">
            <feFlood flood-opacity="0" result="BackgroundImageFix"/>
            <feGaussianBlur in="BackgroundImage" stdDeviation="7"/>
            <feComposite in2="SourceAlpha" operator="in" result="effect1_backgroundBlur_613_17183"/>
            <feBlend mode="normal" in="SourceGraphic" in2="effect1_backgroundBlur_613_17183" result="shape"/>
        </filter>
    </defs>
</svg>
