<svg width="32" height="32" viewBox="0 0 32 32" fill="none" xmlns="http://www.w3.org/2000/svg">
<path d="M17.1349 13.9167C19.1775 11.9184 21.5493 10.3707 24.1848 9.31262C26.6793 8.3122 29.3044 7.79627 31.9948 7.77532V3.88625C26.4782 3.95958 21.0477 5.82162 16.6413 9.16596L16.3017 9.42261L15.9073 9.26024C15.4946 9.09001 14.0135 8.41696 12.2687 6.93203C10.247 5.20879 8.60926 3.0482 7.38944 0.5L4.84271 3.23414C7.15697 8.4091 11.7123 12.3689 17.1349 13.9167Z" fill="black"/>
<path d="M16.508 16.2422C10.6571 14.5897 5.81438 10.5776 3.07697 5.13023L0 8.43791C2.80793 13.3798 7.21704 17.3081 12.4568 19.5316L12.462 19.5342L12.8721 19.7097L12.8982 19.9087L12.9322 20.1942C13.0471 21.171 13.3971 26.0815 9.88393 31.5H13.9482C15.377 29.3054 16.3618 26.7807 16.8058 24.1775C17.2551 21.5403 17.1506 18.8062 16.508 16.2422Z" fill="black"/>
<path d="M18.838 15.6216C19.5615 18.4709 19.6999 21.3805 19.2533 24.2718C18.8563 26.8226 18.0204 29.2477 16.764 31.5H21.6015C22.4739 29.4625 23.0851 27.315 23.4195 25.1072C23.7799 22.7345 23.8139 20.333 23.5187 17.976L23.4665 17.5491L23.8061 17.2898C24.3624 16.8655 27.2696 14.8071 32 14.3174V10.1978C27.0894 10.2607 22.3433 12.2118 18.838 15.6216Z" fill="black"/>
</svg>
