<?xml version="1.0" standalone="no"?>
<!DOCTYPE svg PUBLIC "-//W3C//DTD SVG 20010904//EN"
 "http://www.w3.org/TR/2001/REC-SVG-20010904/DTD/svg10.dtd">
<svg version="1.0" xmlns="http://www.w3.org/2000/svg"
 width="700.000000pt" height="700.000000pt" viewBox="0 0 700.000000 700.000000"
 preserveAspectRatio="xMidYMid meet">
<metadata>
Created by potrace 1.14, written by Peter Selinger 2001-2017
</metadata>
<g transform="translate(0.000000,700.000000) scale(0.100000,-0.100000)"
fill="#000000" stroke="none">
<path d="M3219 6996 c-2 -2 -37 -7 -77 -10 -40 -3 -76 -7 -80 -10 -5 -3 -37
-8 -73 -11 -84 -8 -97 -10 -209 -35 -52 -12 -102 -23 -110 -24 -9 -1 -21 -6
-28 -10 -7 -4 -16 -5 -19 -2 -3 3 -21 -1 -39 -9 -19 -8 -37 -14 -39 -14 -35 0
-382 -125 -490 -177 -28 -13 -55 -24 -62 -24 -6 0 -13 -4 -15 -9 -1 -5 -48
-31 -103 -57 -55 -26 -106 -54 -113 -61 -7 -7 -20 -13 -28 -13 -8 0 -14 -3
-14 -7 0 -5 -23 -21 -51 -38 -28 -16 -63 -38 -78 -47 -14 -10 -33 -21 -41 -25
-8 -3 -22 -12 -30 -20 -33 -30 -109 -83 -119 -83 -6 0 -11 -5 -11 -10 0 -6
-11 -15 -25 -20 -14 -5 -28 -17 -31 -25 -4 -8 -12 -15 -20 -15 -7 0 -18 -9
-24 -20 -6 -11 -15 -20 -21 -20 -6 0 -23 -12 -38 -27 -36 -37 -133 -123 -137
-123 -5 0 -144 -143 -144 -147 0 -2 -19 -23 -42 -47 -24 -24 -56 -61 -73 -81
-16 -20 -40 -48 -52 -62 -13 -13 -23 -28 -23 -32 0 -5 -11 -16 -25 -25 -14 -9
-25 -23 -25 -31 0 -8 -5 -15 -10 -15 -6 0 -14 -8 -17 -17 -9 -24 -74 -117 -85
-121 -4 -2 -8 -9 -8 -17 0 -7 -7 -19 -16 -26 -9 -7 -20 -22 -25 -34 -5 -11
-18 -33 -29 -50 -11 -16 -24 -39 -29 -50 -5 -11 -20 -36 -33 -55 -12 -19 -32
-53 -43 -75 -11 -22 -26 -48 -34 -57 -8 -10 -11 -18 -8 -18 6 0 -60 -142 -84
-180 -5 -8 -12 -22 -15 -30 -3 -8 -10 -24 -14 -35 -5 -11 -16 -42 -25 -70 -9
-27 -23 -63 -30 -80 -17 -37 -45 -122 -51 -151 -2 -12 -14 -53 -26 -90 -12
-38 -22 -73 -23 -79 -1 -5 -4 -17 -7 -25 -4 -8 -14 -60 -24 -115 -9 -55 -20
-105 -25 -110 -4 -6 -8 -20 -9 -30 0 -11 -2 -36 -4 -55 -3 -19 -7 -60 -11 -90
-3 -30 -9 -71 -12 -90 -3 -19 -7 -789 -9 -1710 -4 -1670 -4 -1700 27 -1762 5
-10 9 -22 9 -27 0 -28 127 -210 146 -211 7 0 19 -11 28 -25 9 -14 23 -25 30
-25 8 0 16 -3 18 -7 4 -9 83 -48 118 -58 14 -4 31 -13 39 -19 21 -17 6044 -21
6121 -4 81 17 127 36 210 83 22 13 140 134 157 161 7 10 22 39 34 64 12 25 25
52 29 60 30 61 31 167 27 1810 -2 910 -7 1674 -10 1698 -4 24 -13 82 -21 129
-9 47 -15 88 -14 91 2 9 -21 119 -33 158 -5 17 -12 44 -14 60 -7 44 -16 87
-21 104 -3 8 -5 16 -5 17 0 2 -6 18 -15 38 -8 19 -11 35 -8 35 4 0 2 6 -4 13
-9 11 -42 111 -48 147 -2 8 -8 24 -13 37 -6 13 -15 33 -20 46 -5 12 -19 43
-30 68 -12 25 -21 50 -21 56 0 11 -41 100 -61 133 -5 8 -32 60 -59 115 -51
101 -70 136 -81 145 -3 3 -19 27 -35 53 -16 27 -37 61 -46 75 -10 15 -22 37
-28 50 -5 12 -14 22 -19 22 -5 0 -13 9 -16 20 -4 11 -20 35 -36 52 -16 18 -29
36 -29 40 0 5 -9 18 -20 31 -43 48 -50 57 -50 67 0 5 -9 15 -20 22 -11 7 -20
17 -20 21 0 5 -12 21 -27 36 -46 45 -123 132 -123 137 0 7 -143 144 -150 144
-3 0 -23 21 -44 45 -22 25 -44 45 -50 45 -7 0 -18 8 -27 18 -8 9 -35 33 -59
52 -23 19 -53 45 -65 58 -12 12 -27 22 -34 22 -6 0 -11 5 -11 10 0 6 -8 14
-17 17 -21 8 -139 88 -169 114 -11 11 -25 19 -31 19 -5 0 -18 9 -28 20 -10 11
-21 17 -26 15 -4 -3 -10 -1 -13 4 -3 5 -29 21 -58 36 -29 15 -55 31 -58 34 -3
4 -25 17 -50 30 -25 12 -52 26 -60 30 -8 5 -51 25 -95 45 -44 21 -87 42 -95
47 -8 5 -22 12 -30 15 -8 3 -23 10 -32 15 -10 5 -27 9 -37 9 -11 0 -23 5 -26
10 -3 6 -13 10 -21 10 -8 0 -34 9 -56 20 -23 11 -49 20 -58 20 -9 0 -20 4 -25
8 -6 5 -30 14 -55 21 -25 8 -52 16 -60 19 -8 3 -19 6 -25 7 -41 6 -86 19 -91
26 -3 5 -10 7 -15 3 -5 -3 -15 -1 -22 4 -13 10 -70 23 -104 22 -12 0 -25 5
-28 10 -4 6 -10 8 -15 5 -5 -3 -28 -1 -52 5 -93 24 -120 28 -233 36 -44 3 -86
9 -95 14 -14 7 -603 13 -611 6z m626 -306 c767 -88 1447 -425 1978 -979 438
-458 738 -1058 841 -1681 38 -230 39 -257 43 -1272 l4 -1008 -290 0 -291 0 -1
23 -2 22 -4 -23 -4 -22 -2915 0 -2915 0 4 1008 c4 1015 5 1040 43 1272 163
999 814 1880 1727 2337 375 187 773 299 1192 333 129 10 461 5 590 -10z
m-2307 -5537 c3 -17 -164 -669 -174 -682 -5 -5 -213 70 -219 79 -2 4 7 49 20
99 14 51 25 97 25 102 0 5 -26 9 -59 9 l-59 0 -24 -87 -23 -88 -123 -3 c-67
-1 -122 0 -122 4 0 9 97 376 111 421 7 21 17 33 32 35 12 2 -86 32 -218 67
-132 35 -242 65 -244 67 -3 3 238 3 535 2 l539 -3 3 -22z m430 15 c-3 -7 -27
-95 -53 -195 l-49 -183 -50 -1 -51 -1 50 -14 c32 -9 103 -14 201 -14 l152 0
-14 -47 c-7 -27 -18 -67 -24 -90 l-11 -43 -274 0 c-213 0 -275 3 -275 13 0 6
34 141 77 300 l76 287 125 0 c95 0 123 -3 120 -12z m696 -115 c-18 -71 -42
-157 -51 -193 l-18 -65 -50 -4 -50 -3 45 -14 c30 -9 96 -14 198 -14 83 0 152
-3 152 -7 0 -5 -9 -45 -21 -90 l-22 -83 -280 0 c-219 0 -278 3 -274 13 2 6 37
134 76 282 40 149 75 278 77 288 5 15 20 17 129 17 l123 0 -34 -127z m750 80
c-7 -27 -18 -67 -24 -90 l-11 -43 -52 -1 -52 0 48 -15 c29 -9 47 -20 44 -27
-2 -7 -26 -94 -52 -194 l-48 -183 -124 0 c-114 0 -124 2 -119 18 2 9 34 130
71 267 36 138 71 265 76 283 l11 32 123 0 123 0 -14 -47z m783 12 c1 -16 -30
-149 -70 -295 l-72 -265 -123 -3 c-67 -1 -122 1 -122 5 0 5 9 41 20 81 11 39
20 76 20 82 0 6 -26 10 -60 10 l-59 0 -11 -42 c-6 -24 -17 -63 -23 -88 l-13
-45 -122 -3 c-67 -1 -122 1 -122 5 0 9 147 559 155 581 3 10 69 12 302 10
l298 -3 2 -30z m428 24 c4 -6 13 -63 21 -127 8 -64 16 -121 17 -126 2 -5 14
31 26 80 13 49 30 110 38 137 l14 47 123 0 122 0 -80 -300 -80 -300 -123 0
c-91 0 -123 3 -124 13 0 6 -8 71 -17 142 l-17 130 -55 2 -55 2 50 -16 c28 -8
51 -16 52 -17 1 -1 -18 -75 -56 -213 l-12 -43 -119 0 c-89 0 -120 3 -120 13 0
6 34 141 76 300 l77 287 118 0 c73 0 120 -4 124 -11z m1132 -6 c6 -15 -5 -69
-38 -189 l-10 -34 -124 0 -124 0 9 30 9 30 -117 -1 c-64 0 -112 -2 -107 -4 6
-2 28 -9 51 -14 l41 -11 -22 -84 c-13 -46 -26 -93 -30 -105 -6 -20 -3 -21 55
-21 59 0 61 1 71 30 l11 30 123 0 122 0 -29 -107 c-16 -59 -34 -113 -40 -120
-8 -10 -74 -13 -288 -13 -153 0 -285 3 -294 6 -9 3 -16 16 -16 29 0 22 137
541 147 558 2 4 137 7 299 7 267 0 295 -2 301 -17z m797 -10 c-4 -16 -15 -55
-24 -88 l-17 -60 -239 -5 c-172 -4 -227 -7 -195 -14 30 -5 45 -14 48 -27 5
-18 17 -19 154 -19 165 0 157 4 135 -70 l-13 -45 -157 -3 c-86 -1 -156 -6
-156 -10 0 -4 -3 -17 -6 -29 l-6 -23 185 0 186 0 -20 -72 c-11 -40 -22 -81
-25 -90 -5 -17 -29 -18 -310 -18 -236 0 -304 3 -304 13 0 6 34 141 76 300 l77
287 309 0 308 0 -6 -27z"/>
<path d="M3290 6234 c-190 -110 -261 -149 -289 -156 -10 -3 -13 -31 -12 -132
1 -70 -2 -126 -6 -125 -5 2 -52 28 -106 57 -53 29 -103 52 -110 50 -7 -2 -117
-63 -245 -137 l-232 -133 0 -293 0 -293 90 -52 c49 -28 92 -55 94 -59 3 -4
-37 -32 -89 -61 l-95 -54 0 -47 c0 -32 -5 -49 -15 -53 -8 -3 -15 -10 -15 -17
0 -6 7 -9 15 -5 13 4 15 -27 17 -231 l3 -237 180 -104 c99 -57 207 -119 240
-137 l60 -34 95 55 c52 31 101 58 108 61 9 4 12 -23 12 -115 0 -120 0 -121 28
-140 57 -39 469 -272 482 -272 13 0 428 234 483 272 27 19 27 20 27 140 0 92
3 119 13 115 6 -2 55 -30 107 -60 l95 -56 60 34 c33 18 141 80 240 137 l180
104 3 238 c2 211 4 237 17 226 9 -7 18 -10 22 -7 8 9 -17 38 -28 31 -5 -3 -9
19 -9 48 l0 54 -95 54 c-52 29 -92 57 -90 60 3 4 45 31 95 59 l90 52 0 294 0
293 -236 136 c-130 75 -241 136 -248 136 -6 0 -56 -25 -110 -55 -55 -30 -101
-55 -103 -55 -1 0 -3 52 -3 116 0 117 -9 154 -36 154 -8 0 -116 59 -240 130
-124 72 -231 130 -237 129 -7 0 -100 -52 -207 -115z m452 -39 c125 -71 228
-133 228 -136 0 -3 -106 -65 -235 -137 l-235 -130 -235 131 c-129 72 -235 134
-235 137 1 9 464 270 475 268 6 -2 113 -61 237 -133z m-483 -289 l231 -129 0
-126 0 -126 -102 -57 -103 -57 -3 120 -3 119 -37 24 c-20 12 -81 47 -134 76
l-98 54 0 119 c0 66 4 117 9 115 5 -1 113 -61 240 -132z m731 16 l0 -118 -97
-54 c-54 -29 -115 -64 -135 -77 l-37 -23 -3 -120 -3 -119 -102 57 -103 57 0
125 0 126 233 131 c127 72 235 132 240 132 4 1 7 -52 7 -117z m-978 -139 c125
-70 228 -129 228 -132 0 -5 -368 -214 -440 -250 -26 -13 -36 -8 -241 109 -118
68 -219 128 -226 134 -9 8 43 42 210 139 122 70 226 127 231 127 6 0 113 -57
238 -127z m1445 0 c122 -70 220 -131 217 -134 -2 -4 -103 -64 -225 -134 -169
-98 -225 -125 -239 -119 -51 25 -450 250 -450 254 0 7 452 260 465 260 6 0
110 -57 232 -127z m-1894 -295 l207 -120 0 -267 c0 -147 -2 -270 -5 -273 -4
-3 -106 52 -228 122 l-222 128 -3 277 -2 276 22 -12 c13 -6 116 -66 231 -131z
m695 25 l-3 -118 -120 -67 c-65 -37 -124 -69 -130 -71 -6 -2 -12 -67 -15 -167
l-5 -162 -99 -54 c-54 -30 -101 -54 -103 -54 -2 0 -2 124 -1 276 l3 276 230
129 c127 70 234 128 238 129 4 0 6 -53 5 -117z m727 -12 l230 -129 3 -276 c1
-152 1 -276 -1 -276 -2 0 -50 25 -106 56 l-101 55 0 154 c0 111 -4 157 -12
165 -7 6 -67 42 -133 78 l-120 67 -3 118 c-1 64 1 117 5 117 4 0 112 -58 238
-129z m698 -422 c-20 -19 -442 -256 -447 -251 -3 3 -6 126 -6 273 l0 267 228
131 227 131 3 -272 c1 -149 -1 -275 -5 -279z m-943 298 c124 -69 225 -130 224
-134 -1 -4 -105 -68 -232 -141 l-232 -133 -222 127 c-123 70 -229 133 -236
139 -11 10 33 38 220 143 128 72 238 130 243 128 6 -2 111 -60 235 -129z
m-477 -292 l227 -130 0 -277 0 -277 -217 126 c-120 68 -228 131 -240 139 -23
14 -23 15 -23 285 0 223 2 270 14 267 7 -2 115 -61 239 -133z m727 -134 c0
-203 -3 -271 -12 -278 -7 -6 -115 -69 -240 -141 l-228 -131 0 277 0 277 228
132 c125 72 233 131 240 132 9 1 12 -59 12 -268z m-1312 -103 c45 -26 89 -48
97 -48 8 0 29 8 47 19 18 10 63 34 101 54 l67 37 0 -118 0 -118 -102 -47 c-57
-26 -107 -47 -112 -47 -21 0 -454 256 -447 263 5 5 46 30 92 57 l84 48 45 -26
c25 -14 82 -47 128 -74z m1965 14 c22 -13 37 -25 35 -26 -7 -7 -431 -248 -443
-252 -8 -3 -61 16 -119 42 l-106 48 0 118 0 118 88 -47 c48 -25 91 -50 97 -55
19 -17 46 -6 171 66 l129 73 55 -30 c30 -17 72 -42 93 -55z m-2070 -191 l197
-113 0 -274 c0 -151 -3 -274 -7 -274 -5 1 -107 58 -228 128 l-220 128 -3 278
-2 278 32 -20 c18 -10 122 -70 231 -131z m2113 -397 c-4 -10 -437 -264 -450
-264 -3 0 -6 123 -6 274 l0 273 228 130 227 130 3 -266 c1 -146 0 -271 -2
-277z m-1583 330 l100 -57 -94 -48 c-52 -27 -97 -49 -101 -49 -13 0 -18 -43
-21 -184 l-2 -140 -95 -57 c-52 -32 -98 -59 -103 -59 -4 0 -6 124 -5 275 l3
276 105 49 c58 26 107 49 109 49 3 1 49 -24 104 -55z m1004 6 l108 -49 3 -276
c1 -151 -1 -275 -5 -274 -5 0 -51 26 -103 58 l-95 57 -5 156 c-3 86 -7 158
-10 161 -3 3 -49 27 -104 54 l-98 49 98 57 c55 31 100 57 101 57 1 0 51 -22
110 -50z m-745 -155 c71 -41 133 -75 138 -75 4 0 67 34 139 75 71 41 135 75
141 75 23 0 192 -92 184 -100 -5 -5 -111 -67 -236 -139 l-228 -130 -227 130
c-126 72 -232 134 -237 139 -9 9 157 99 183 99 7 1 72 -33 143 -74z m-102
-177 l230 -131 0 -279 0 -278 -48 27 c-27 16 -135 78 -240 138 l-192 110 0
273 c0 165 4 272 10 272 5 0 113 -59 240 -132z m730 -141 l0 -273 -182 -104
c-100 -58 -208 -120 -240 -138 l-58 -33 0 278 0 279 228 131 c125 72 233 132
240 132 9 1 12 -60 12 -272z"/>
<path d="M2935 6070 c-8 -13 -1 -24 14 -19 6 3 7 10 2 18 -6 10 -10 10 -16 1z"/>
<path d="M4020 6070 c0 -5 9 -10 20 -10 11 0 20 5 20 10 0 6 -9 10 -20 10 -11
0 -20 -4 -20 -10z"/>
<path d="M4080 6055 c0 -9 5 -15 11 -13 6 2 11 8 11 13 0 5 -5 11 -11 13 -6 2
-11 -4 -11 -13z"/>
<path d="M2860 6050 c0 -5 6 -10 14 -10 8 0 18 5 21 10 3 6 -3 10 -14 10 -12
0 -21 -4 -21 -10z"/>
<path d="M2815 6040 c-3 -5 3 -10 14 -10 12 0 21 5 21 10 0 6 -6 10 -14 10 -8
0 -18 -4 -21 -10z"/>
<path d="M4142 6038 c6 -18 28 -21 28 -4 0 9 -7 16 -16 16 -9 0 -14 -5 -12
-12z"/>
<path d="M2760 6015 c0 -9 5 -15 11 -13 6 2 11 8 11 13 0 5 -5 11 -11 13 -6 2
-11 -4 -11 -13z"/>
<path d="M4190 6020 c0 -5 7 -10 15 -10 8 0 15 5 15 10 0 6 -7 10 -15 10 -8 0
-15 -4 -15 -10z"/>
<path d="M4252 6008 c6 -18 28 -21 28 -4 0 9 -7 16 -16 16 -9 0 -14 -5 -12
-12z"/>
<path d="M2699 5993 c-12 -15 -12 -16 4 -10 10 4 23 7 28 7 6 0 7 5 4 10 -9
15 -21 12 -36 -7z"/>
<path d="M4305 6000 c-4 -6 -4 -10 -1 -10 2 0 11 -3 20 -6 9 -3 16 -2 16 4 0
14 -28 23 -35 12z"/>
<path d="M2656 5993 c-11 -11 -6 -23 9 -23 8 0 15 4 15 9 0 13 -16 22 -24 14z"/>
<path d="M4360 5976 c0 -9 7 -16 16 -16 17 0 14 22 -4 28 -7 2 -12 -3 -12 -12z"/>
<path d="M2595 5969 c-4 -6 -5 -13 -2 -16 7 -7 27 6 27 18 0 12 -17 12 -25 -2z"/>
<path d="M2535 5950 c-3 -5 1 -10 9 -10 8 0 18 5 21 10 3 6 -1 10 -9 10 -8 0
-18 -4 -21 -10z"/>
<path d="M4416 5951 c-3 -5 1 -11 9 -15 9 -3 15 0 15 9 0 16 -16 20 -24 6z"/>
<path d="M2486 5932 c-3 -6 -1 -14 5 -17 15 -10 25 3 12 16 -7 7 -13 7 -17 1z"/>
<path d="M4460 5931 c0 -11 31 -24 39 -16 3 3 -1 10 -9 15 -19 12 -30 12 -30
1z"/>
<path d="M4527 5914 c-8 -8 1 -24 14 -24 5 0 9 7 9 15 0 15 -12 20 -23 9z"/>
<path d="M2434 5895 c-17 -13 -17 -14 -2 -15 9 0 20 5 23 11 11 17 0 20 -21 4z"/>
<path d="M4580 5892 c0 -5 7 -13 16 -16 10 -4 14 -1 12 6 -5 15 -28 23 -28 10z"/>
<path d="M2385 5879 c-10 -15 3 -25 16 -12 7 7 7 13 1 17 -6 3 -14 1 -17 -5z"/>
<path d="M4630 5865 c0 -8 7 -15 15 -15 8 0 15 4 15 9 0 5 -7 11 -15 15 -9 3
-15 0 -15 -9z"/>
<path d="M2330 5860 c-12 -7 -12 -12 -3 -21 10 -10 14 -9 19 5 8 22 2 27 -16
16z"/>
<path d="M2277 5833 c-12 -12 -7 -22 8 -17 8 4 15 10 15 15 0 11 -14 12 -23 2z"/>
<path d="M4680 5830 c0 -5 7 -10 15 -10 8 0 15 5 15 10 0 6 -7 10 -15 10 -8 0
-15 -4 -15 -10z"/>
<path d="M4726 5811 c-3 -4 6 -13 19 -19 19 -9 23 -8 19 3 -7 17 -31 27 -38
16z"/>
<path d="M2222 5801 c4 -13 18 -16 19 -4 0 4 -5 9 -11 12 -7 2 -11 -2 -8 -8z"/>
<path d="M4787 5784 c-8 -8 1 -24 14 -24 5 0 9 7 9 15 0 15 -12 20 -23 9z"/>
<path d="M2180 5770 c-8 -5 -11 -12 -7 -16 4 -4 13 -2 19 4 15 15 7 24 -12 12z"/>
<path d="M4837 5763 c-10 -16 11 -39 23 -27 8 8 7 14 -4 23 -8 7 -17 8 -19 4z"/>
<path d="M2125 5739 c-10 -14 -1 -21 19 -13 9 3 13 10 10 15 -7 12 -21 11 -29
-2z"/>
<path d="M4880 5730 c0 -12 28 -25 36 -17 3 3 -4 10 -15 17 -15 7 -21 7 -21 0z"/>
<path d="M2070 5711 c0 -17 18 -21 24 -6 3 9 0 15 -9 15 -8 0 -15 -4 -15 -9z"/>
<path d="M4937 5694 c-8 -8 1 -24 14 -24 5 0 9 7 9 15 0 15 -12 20 -23 9z"/>
<path d="M2020 5680 c-8 -5 -12 -12 -9 -15 8 -8 39 5 39 16 0 11 -11 11 -30
-1z"/>
<path d="M1976 5653 c-11 -11 -6 -23 9 -23 8 0 15 4 15 9 0 13 -16 22 -24 14z"/>
<path d="M4980 5652 c0 -5 7 -13 16 -16 10 -4 14 -1 12 6 -5 15 -28 23 -28 10z"/>
<path d="M5030 5621 c0 -6 5 -13 10 -16 6 -3 10 1 10 9 0 9 -4 16 -10 16 -5 0
-10 -4 -10 -9z"/>
<path d="M1935 5609 c-4 -6 -5 -13 -2 -16 7 -7 27 6 27 18 0 12 -17 12 -25 -2z"/>
<path d="M5080 5585 c0 -9 5 -15 11 -13 6 2 11 8 11 13 0 5 -5 11 -11 13 -6 2
-11 -4 -11 -13z"/>
<path d="M1885 5571 c-10 -17 12 -21 25 -6 10 12 10 15 -3 15 -9 0 -18 -4 -22
-9z"/>
<path d="M5122 5559 c2 -7 10 -15 17 -17 8 -3 12 1 9 9 -2 7 -10 15 -17 17 -8
3 -12 -1 -9 -9z"/>
<path d="M1840 5535 c0 -8 5 -15 10 -15 6 0 10 7 10 15 0 8 -4 15 -10 15 -5 0
-10 -7 -10 -15z"/>
<path d="M1790 5505 c-10 -12 -10 -15 3 -15 19 0 31 16 18 24 -5 3 -14 -1 -21
-9z"/>
<path d="M5170 5510 c0 -5 4 -10 9 -10 6 0 13 5 16 10 3 6 -1 10 -9 10 -9 0
-16 -4 -16 -10z"/>
<path d="M5206 5482 c-7 -12 22 -38 31 -28 4 3 0 14 -9 22 -9 10 -18 12 -22 6z"/>
<path d="M1750 5465 c-10 -13 -9 -15 8 -15 15 0 20 5 16 15 -4 8 -7 15 -9 15
-1 0 -8 -7 -15 -15z"/>
<path d="M5252 5438 c2 -6 10 -14 16 -16 7 -2 10 2 6 12 -7 18 -28 22 -22 4z"/>
<path d="M1702 5419 c2 -6 8 -10 13 -10 5 0 11 4 13 10 2 6 -4 11 -13 11 -9 0
-15 -5 -13 -11z"/>
<path d="M5300 5395 c0 -9 5 -15 11 -13 6 2 11 8 11 13 0 5 -5 11 -11 13 -6 2
-11 -4 -11 -13z"/>
<path d="M1665 5381 c-10 -17 12 -21 25 -6 10 12 10 15 -3 15 -9 0 -18 -4 -22
-9z"/>
<path d="M5340 5368 c0 -18 18 -34 28 -24 3 4 -2 14 -11 23 -16 16 -17 16 -17
1z"/>
<path d="M1625 5350 c-4 -6 -3 -16 3 -22 6 -6 12 -6 17 2 4 6 3 16 -3 22 -6 6
-12 6 -17 -2z"/>
<path d="M5386 5323 c-11 -11 -6 -23 9 -23 8 0 15 4 15 9 0 13 -16 22 -24 14z"/>
<path d="M1580 5305 c-18 -21 -3 -32 16 -13 10 9 12 18 6 22 -5 3 -15 -1 -22
-9z"/>
<path d="M5420 5265 c7 -8 17 -15 22 -15 6 0 5 7 -2 15 -7 8 -17 15 -22 15 -6
0 -5 -7 2 -15z"/>
<path d="M1540 5255 c0 -9 6 -12 15 -9 8 4 15 10 15 15 0 5 -7 9 -15 9 -8 0
-15 -7 -15 -15z"/>
<path d="M5452 5228 c6 -18 28 -21 28 -4 0 9 -7 16 -16 16 -9 0 -14 -5 -12
-12z"/>
<path d="M1502 5209 c2 -6 8 -10 13 -10 5 0 11 4 13 10 2 6 -4 11 -13 11 -9 0
-15 -5 -13 -11z"/>
<path d="M5500 5185 c0 -8 5 -15 10 -15 6 0 10 7 10 15 0 8 -4 15 -10 15 -5 0
-10 -7 -10 -15z"/>
<path d="M1477 5173 c-10 -9 -9 -23 2 -23 5 0 11 7 15 15 5 15 -5 20 -17 8z"/>
<path d="M5536 5152 c-7 -12 22 -38 31 -28 4 3 0 14 -9 22 -9 10 -18 12 -22 6z"/>
<path d="M1430 5126 c0 -8 4 -17 9 -20 10 -7 23 19 14 28 -11 11 -23 6 -23 -8z"/>
<path d="M5576 5103 c-11 -11 -6 -23 9 -23 8 0 15 4 15 9 0 13 -16 22 -24 14z"/>
<path d="M1395 5079 c-11 -17 1 -21 15 -4 8 9 8 15 2 15 -6 0 -14 -5 -17 -11z"/>
<path d="M5602 5049 c2 -7 10 -15 17 -17 8 -3 12 1 9 9 -2 7 -10 15 -17 17 -8
3 -12 -1 -9 -9z"/>
<path d="M1361 5036 c-7 -8 -8 -17 -3 -20 6 -3 13 1 16 10 9 23 2 28 -13 10z"/>
<path d="M5636 4996 c3 -9 11 -16 16 -16 13 0 5 23 -10 28 -7 2 -10 -2 -6 -12z"/>
<path d="M1320 4980 c0 -5 7 -10 15 -10 8 0 15 5 15 10 0 6 -7 10 -15 10 -8 0
-15 -4 -15 -10z"/>
<path d="M5675 4960 c-4 -6 -3 -16 3 -22 6 -6 12 -6 17 2 4 6 3 16 -3 22 -6 6
-12 6 -17 -2z"/>
<path d="M1307 4944 c-4 -4 -7 -14 -7 -23 0 -11 3 -12 11 -4 6 6 10 16 7 23
-2 6 -7 8 -11 4z"/>
<path d="M5710 4908 c0 -18 18 -34 28 -24 3 4 -2 14 -11 23 -16 16 -17 16 -17
1z"/>
<path d="M1266 4893 c-11 -11 -6 -23 9 -23 8 0 15 4 15 9 0 13 -16 22 -24 14z"/>
<path d="M5736 4863 c-11 -11 -6 -23 9 -23 8 0 15 4 15 9 0 13 -16 22 -24 14z"/>
<path d="M1230 4835 c0 -8 5 -15 10 -15 6 0 10 7 10 15 0 8 -4 15 -10 15 -5 0
-10 -7 -10 -15z"/>
<path d="M1207 4796 c-4 -10 -5 -21 -2 -24 9 -9 17 6 13 25 -3 17 -4 17 -11
-1z"/>
<path d="M5762 4799 c2 -6 8 -10 13 -10 5 0 11 4 13 10 2 6 -4 11 -13 11 -9 0
-15 -5 -13 -11z"/>
<path d="M5790 4749 c7 -11 14 -18 17 -15 8 8 -5 36 -17 36 -7 0 -7 -6 0 -21z"/>
<path d="M1170 4730 c0 -5 7 -10 15 -10 8 0 15 5 15 10 0 6 -7 10 -15 10 -8 0
-15 -4 -15 -10z"/>
<path d="M2220 4695 c0 -8 5 -15 10 -15 6 0 10 7 10 15 0 8 -4 15 -10 15 -5 0
-10 -7 -10 -15z"/>
<path d="M4765 4700 c-4 -6 -3 -16 3 -22 13 -13 23 4 13 21 -7 10 -10 10 -16
1z"/>
<path d="M5820 4695 c0 -8 5 -15 10 -15 6 0 10 7 10 15 0 8 -4 15 -10 15 -5 0
-10 -7 -10 -15z"/>
<path d="M1156 4684 c-8 -21 -8 -24 3 -24 12 0 22 28 12 35 -5 3 -12 -2 -15
-11z"/>
<path d="M2175 4659 c-4 -6 -5 -13 -2 -16 7 -7 27 6 27 18 0 12 -17 12 -25 -2z"/>
<path d="M4807 4664 c-8 -8 3 -34 14 -34 11 0 12 27 0 34 -4 3 -11 3 -14 0z"/>
<path d="M5852 4648 c2 -6 10 -14 16 -16 7 -2 10 2 6 12 -7 18 -28 22 -22 4z"/>
<path d="M1126 4625 c4 -8 10 -12 15 -9 14 8 10 24 -6 24 -9 0 -12 -6 -9 -15z"/>
<path d="M2146 4623 c-11 -11 -6 -23 9 -23 8 0 15 4 15 9 0 13 -16 22 -24 14z"/>
<path d="M4840 4625 c0 -18 19 -40 26 -32 4 4 0 15 -9 24 -9 10 -17 13 -17 8z"/>
<path d="M5872 4599 c2 -7 10 -15 17 -17 8 -3 12 1 9 9 -2 7 -10 15 -17 17 -8
3 -12 -1 -9 -9z"/>
<path d="M1097 4584 c-8 -8 1 -24 14 -24 5 0 9 7 9 15 0 15 -12 20 -23 9z"/>
<path d="M2110 4570 c-12 -7 -12 -12 -3 -21 10 -10 14 -9 19 5 8 22 2 27 -16
16z"/>
<path d="M4872 4559 c2 -6 8 -10 13 -10 5 0 11 4 13 10 2 6 -4 11 -13 11 -9 0
-15 -5 -13 -11z"/>
<path d="M1077 4536 c-4 -10 -5 -21 -2 -24 9 -9 17 6 13 25 -3 17 -4 17 -11
-1z"/>
<path d="M5890 4540 c0 -5 7 -10 15 -10 8 0 15 5 15 10 0 6 -7 10 -15 10 -8 0
-15 -4 -15 -10z"/>
<path d="M2075 4519 c-4 -6 -5 -13 -2 -16 7 -7 27 6 27 18 0 12 -17 12 -25 -2z"/>
<path d="M4906 4521 c-3 -5 1 -14 9 -21 12 -10 15 -10 15 3 0 19 -16 31 -24
18z"/>
<path d="M5910 4498 c0 -9 5 -20 11 -23 17 -11 20 0 4 21 -13 17 -14 17 -15 2z"/>
<path d="M2040 4476 c0 -9 5 -16 10 -16 6 0 10 4 10 9 0 6 -4 13 -10 16 -5 3
-10 -1 -10 -9z"/>
<path d="M1050 4470 c0 -5 7 -10 15 -10 8 0 15 5 15 10 0 6 -7 10 -15 10 -8 0
-15 -4 -15 -10z"/>
<path d="M4940 4465 c0 -8 7 -15 15 -15 9 0 12 6 9 15 -4 8 -10 15 -15 15 -5
0 -9 -7 -9 -15z"/>
<path d="M5941 4441 c-10 -6 -10 -10 -1 -16 13 -8 24 -1 19 14 -3 6 -10 7 -18
2z"/>
<path d="M2007 4433 c-4 -3 -7 -13 -7 -21 0 -12 3 -12 15 -2 8 7 15 16 15 21
0 11 -14 12 -23 2z"/>
<path d="M1040 4408 c0 -19 2 -20 10 -8 13 19 13 30 0 30 -5 0 -10 -10 -10
-22z"/>
<path d="M4980 4415 c0 -8 5 -15 10 -15 6 0 10 7 10 15 0 8 -4 15 -10 15 -5 0
-10 -7 -10 -15z"/>
<path d="M5967 4393 c-12 -12 -7 -33 8 -33 17 0 19 9 7 28 -5 7 -11 9 -15 5z"/>
<path d="M1975 4379 c-4 -6 -5 -13 -2 -16 7 -7 27 6 27 18 0 12 -17 12 -25 -2z"/>
<path d="M5010 4376 c0 -8 5 -18 10 -21 6 -3 10 1 10 9 0 8 -4 18 -10 21 -5 3
-10 -1 -10 -9z"/>
<path d="M1017 4374 c-9 -9 4 -35 14 -28 5 3 9 12 9 20 0 14 -12 19 -23 8z"/>
<path d="M5982 4328 c2 -6 10 -14 16 -16 7 -2 10 2 6 12 -7 18 -28 22 -22 4z"/>
<path d="M1946 4321 c-3 -5 0 -11 8 -14 8 -3 17 1 20 9 6 15 -19 20 -28 5z"/>
<path d="M5036 4323 c-11 -11 -6 -23 9 -23 8 0 15 4 15 9 0 13 -16 22 -24 14z"/>
<path d="M990 4306 c0 -9 7 -16 16 -16 9 0 14 5 12 12 -6 18 -28 21 -28 4z"/>
<path d="M1930 4271 c-7 -15 -7 -21 0 -21 12 0 25 28 17 36 -3 3 -10 -4 -17
-15z"/>
<path d="M978 4260 c-7 -24 -3 -38 8 -28 3 4 4 17 2 30 l-3 23 -7 -25z"/>
<path d="M5057 4273 c-7 -11 10 -40 18 -31 4 4 3 14 -3 24 -5 9 -12 12 -15 7z"/>
<path d="M5992 4269 c2 -6 8 -10 13 -10 5 0 11 4 13 10 2 6 -4 11 -13 11 -9 0
-15 -5 -13 -11z"/>
<path d="M1900 4215 c0 -8 5 -15 10 -15 6 0 10 7 10 15 0 8 -4 15 -10 15 -5 0
-10 -7 -10 -15z"/>
<path d="M5080 4216 c0 -8 5 -18 10 -21 6 -3 10 1 10 9 0 8 -4 18 -10 21 -5 3
-10 -1 -10 -9z"/>
<path d="M6010 4211 c0 -12 5 -21 10 -21 6 0 10 6 10 14 0 8 -4 18 -10 21 -5
3 -10 -3 -10 -14z"/>
<path d="M960 4195 c0 -16 16 -20 24 -6 3 5 -1 11 -9 15 -9 3 -15 0 -15 -9z"/>
<path d="M1877 4174 c-4 -4 -7 -14 -7 -23 0 -11 3 -12 11 -4 6 6 10 16 7 23
-2 6 -7 8 -11 4z"/>
<path d="M5110 4155 c0 -8 5 -15 10 -15 6 0 10 7 10 15 0 8 -4 15 -10 15 -5 0
-10 -7 -10 -15z"/>
<path d="M6022 4159 c2 -6 8 -10 13 -10 5 0 11 4 13 10 2 6 -4 11 -13 11 -9 0
-15 -5 -13 -11z"/>
<path d="M947 4144 c-8 -8 1 -24 14 -24 5 0 9 7 9 15 0 15 -12 20 -23 9z"/>
<path d="M1854 4115 c-9 -22 1 -29 15 -11 8 10 9 16 1 21 -5 3 -13 -1 -16 -10z"/>
<path d="M5130 4120 c0 -21 16 -44 23 -33 4 6 0 19 -8 29 -11 15 -14 16 -15 4z"/>
<path d="M6047 4106 c-3 -8 -2 -18 4 -22 16 -9 22 2 11 21 -8 15 -10 16 -15 1z"/>
<path d="M940 4079 c0 -11 5 -17 10 -14 6 3 10 13 10 21 0 8 -4 14 -10 14 -5
0 -10 -9 -10 -21z"/>
<path d="M1836 4063 c-11 -11 -6 -23 9 -23 8 0 15 4 15 9 0 13 -16 22 -24 14z"/>
<path d="M6060 4051 c0 -12 5 -21 10 -21 6 0 10 6 10 14 0 8 -4 18 -10 21 -5
3 -10 -3 -10 -14z"/>
<path d="M5146 4051 c-3 -5 1 -11 9 -15 9 -3 15 0 15 9 0 16 -16 20 -24 6z"/>
<path d="M920 4025 c0 -8 5 -15 10 -15 6 0 10 7 10 15 0 8 -4 15 -10 15 -5 0
-10 -7 -10 -15z"/>
<path d="M1820 3989 c0 -11 5 -17 10 -14 6 3 10 13 10 21 0 8 -4 14 -10 14 -5
0 -10 -9 -10 -21z"/>
<path d="M5162 3991 c4 -13 18 -16 19 -4 0 4 -5 9 -11 12 -7 2 -11 -2 -8 -8z"/>
<path d="M6062 3989 c2 -7 10 -15 17 -17 8 -3 12 1 9 9 -2 7 -10 15 -17 17 -8
3 -12 -1 -9 -9z"/>
<path d="M906 3964 c-9 -22 3 -32 14 -14 12 19 12 30 1 30 -5 0 -12 -7 -15
-16z"/>
<path d="M1800 3945 c0 -16 16 -20 24 -6 3 5 -1 11 -9 15 -9 3 -15 0 -15 -9z"/>
<path d="M5176 3936 c3 -9 11 -16 16 -16 13 0 5 23 -10 28 -7 2 -10 -2 -6 -12z"/>
<path d="M6070 3926 c0 -8 5 -18 10 -21 6 -3 10 3 10 14 0 12 -4 21 -10 21 -5
0 -10 -6 -10 -14z"/>
<path d="M900 3904 c0 -8 5 -12 10 -9 6 3 10 10 10 16 0 5 -4 9 -10 9 -5 0
-10 -7 -10 -16z"/>
<path d="M1785 3890 c-8 -13 -1 -24 14 -19 6 3 7 10 2 18 -6 10 -10 10 -16 1z"/>
<path d="M5195 3879 c-4 -6 -5 -13 -2 -16 7 -7 27 6 27 18 0 12 -17 12 -25 -2z"/>
<path d="M6080 3870 c0 -11 4 -20 9 -20 11 0 22 26 14 34 -12 12 -23 5 -23
-14z"/>
<path d="M897 3856 c-3 -8 -2 -18 3 -21 13 -8 24 15 12 27 -6 6 -11 4 -15 -6z"/>
<path d="M1770 3830 c0 -11 5 -20 10 -20 6 0 10 9 10 20 0 11 -4 20 -10 20 -5
0 -10 -9 -10 -20z"/>
<path d="M5210 3826 c0 -8 5 -18 10 -21 6 -3 10 3 10 14 0 12 -4 21 -10 21 -5
0 -10 -6 -10 -14z"/>
<path d="M6096 3823 c-11 -11 -6 -23 9 -23 8 0 15 4 15 9 0 13 -16 22 -24 14z"/>
<path d="M890 3789 c0 -11 5 -17 10 -14 6 3 10 13 10 21 0 8 -4 14 -10 14 -5
0 -10 -9 -10 -21z"/>
<path d="M1760 3770 c0 -5 7 -10 15 -10 8 0 15 5 15 10 0 6 -7 10 -15 10 -8 0
-15 -4 -15 -10z"/>
<path d="M5217 3774 c-8 -8 1 -24 14 -24 5 0 9 7 9 15 0 15 -12 20 -23 9z"/>
<path d="M6105 3767 c-4 -10 -5 -21 -1 -24 10 -10 18 4 13 24 -4 17 -4 17 -12
0z"/>
<path d="M880 3735 c0 -8 5 -15 10 -15 6 0 10 7 10 15 0 8 -4 15 -10 15 -5 0
-10 -7 -10 -15z"/>
<path d="M1760 3710 c0 -11 5 -20 10 -20 6 0 10 9 10 20 0 11 -4 20 -10 20 -5
0 -10 -9 -10 -20z"/>
<path d="M5220 3705 c0 -9 5 -15 11 -13 6 2 11 8 11 13 0 5 -5 11 -11 13 -6 2
-11 -4 -11 -13z"/>
<path d="M6102 3698 c6 -18 28 -21 28 -4 0 9 -7 16 -16 16 -9 0 -14 -5 -12
-12z"/>
<path d="M870 3669 c0 -11 5 -17 10 -14 6 3 10 13 10 21 0 8 -4 14 -10 14 -5
0 -10 -9 -10 -21z"/>
<path d="M1752 3659 c2 -6 8 -10 13 -10 5 0 11 4 13 10 2 6 -4 11 -13 11 -9 0
-15 -5 -13 -11z"/>
<path d="M5220 3663 c0 -5 5 -15 10 -23 8 -12 10 -11 10 8 0 12 -4 22 -10 22
-5 0 -10 -3 -10 -7z"/>
<path d="M6100 3635 c0 -8 5 -15 10 -15 6 0 10 7 10 15 0 8 -4 15 -10 15 -5 0
-10 -7 -10 -15z"/>
<path d="M870 3618 c0 -17 2 -18 15 -8 8 7 15 14 15 15 0 2 -7 5 -15 9 -10 4
-15 -1 -15 -16z"/>
<path d="M1740 3596 c0 -9 7 -16 16 -16 9 0 14 5 12 12 -6 18 -28 21 -28 4z"/>
<path d="M5230 3590 c0 -5 7 -10 15 -10 8 0 15 5 15 10 0 6 -7 10 -15 10 -8 0
-15 -4 -15 -10z"/>
<path d="M6110 3581 c0 -25 6 -27 13 -6 4 8 2 17 -3 20 -6 4 -10 -3 -10 -14z"/>
<path d="M876 3571 c-4 -7 -5 -15 -2 -18 9 -9 19 4 14 18 -4 11 -6 11 -12 0z"/>
<path d="M1740 3540 c0 -11 5 -20 10 -20 6 0 10 9 10 20 0 11 -4 20 -10 20 -5
0 -10 -9 -10 -20z"/>
<path d="M5240 3530 c0 -11 5 -20 10 -20 6 0 10 9 10 20 0 11 -4 20 -10 20 -5
0 -10 -9 -10 -20z"/>
<path d="M5825 3530 c-281 -5 -303 -6 -347 -27 -60 -27 -134 -101 -161 -161
-22 -47 -22 -53 -22 -627 l0 -580 24 -53 c30 -66 113 -144 177 -166 39 -13 97
-16 326 -16 238 0 279 -2 284 -15 8 -19 24 -19 24 0 0 12 18 15 98 15 64 0
115 6 145 16 64 22 140 92 174 162 l28 57 0 235 c0 219 -1 238 -21 281 -32 69
-91 128 -159 161 l-60 28 -372 0 -373 0 0 194 0 195 26 20 c26 20 39 21 306
21 l279 0 24 -25 c22 -22 25 -32 25 -105 l0 -80 146 0 146 0 -4 123 c-3 108
-7 128 -30 172 -34 65 -90 118 -153 146 -67 30 -164 35 -530 29z m435 -970
c18 -18 20 -35 20 -190 0 -203 -3 -210 -94 -210 -47 0 -55 3 -61 23 l-8 22 -4
-22 -4 -23 -240 0 c-226 0 -240 1 -259 20 -19 19 -20 33 -20 210 l0 190 325 0
c310 -1 327 -2 345 -20z"/>
<path d="M6110 2530 c0 -5 5 -10 10 -10 6 0 10 5 10 10 0 6 -4 10 -10 10 -5 0
-10 -4 -10 -10z"/>
<path d="M6110 2470 c0 -19 3 -21 12 -12 9 9 9 15 0 24 -9 9 -12 7 -12 -12z"/>
<path d="M6110 2410 c0 -5 5 -10 10 -10 6 0 10 5 10 10 0 6 -4 10 -10 10 -5 0
-10 -4 -10 -10z"/>
<path d="M6122 2350 c0 -14 2 -19 5 -12 2 6 2 18 0 25 -3 6 -5 1 -5 -13z"/>
<path d="M6110 2301 c0 -6 5 -13 10 -16 6 -3 10 1 10 9 0 9 -4 16 -10 16 -5 0
-10 -4 -10 -9z"/>
<path d="M6110 2235 c0 -8 5 -15 10 -15 6 0 10 7 10 15 0 8 -4 15 -10 15 -5 0
-10 -7 -10 -15z"/>
<path d="M876 3513 c-4 -9 -2 -21 4 -27 7 -7 10 -2 10 17 0 31 -5 34 -14 10z"/>
<path d="M1061 3303 c-146 -190 -176 -223 -183 -207 -7 15 -8 14 -5 -7 3 -21
-37 -79 -210 -304 l-213 -277 0 -119 0 -119 213 0 c116 -1 348 0 515 0 l302 1
0 -186 0 -185 123 0 c67 0 132 -3 145 -6 l22 -6 0 512 c0 463 -2 512 -16 506
-9 -3 -74 -6 -145 -6 l-129 0 0 -185 0 -185 -330 0 c-364 0 -342 -5 -288 62
23 27 596 774 692 901 l28 37 -173 0 -174 0 -174 -227z"/>
<path d="M2302 3511 c-100 -35 -181 -125 -202 -224 -7 -36 -10 -231 -8 -603
l3 -549 24 -53 c30 -66 113 -144 177 -166 70 -24 807 -24 877 0 64 22 140 92
174 162 l28 57 0 235 c0 219 -1 238 -21 281 -32 69 -91 128 -159 161 l-60 28
-372 0 -373 0 0 194 0 195 26 20 c26 20 39 21 306 21 l279 0 24 -25 c22 -22
25 -32 25 -105 l0 -80 146 0 146 0 -4 123 c-3 108 -7 128 -30 172 -34 64 -90
118 -153 147 -49 23 -57 23 -425 25 -343 3 -380 1 -428 -16z m758 -951 c18
-18 20 -33 20 -190 0 -157 -2 -172 -20 -190 -19 -19 -33 -20 -329 -20 -309 0
-310 0 -325 22 -13 18 -16 56 -16 210 l0 188 325 0 c312 0 326 -1 345 -20z"/>
<path d="M3872 3511 c-66 -23 -117 -63 -159 -125 -47 -68 -53 -102 -53 -283
l0 -163 150 0 150 0 0 139 c0 133 1 141 22 155 19 14 68 16 334 16 l313 0 20
-26 c18 -23 21 -41 21 -128 0 -55 -3 -111 -6 -124 -4 -15 -186 -169 -505 -428
l-499 -405 0 -119 0 -120 660 0 660 0 0 135 0 135 -422 2 -423 3 358 289 c197
159 375 309 397 333 61 69 70 110 70 308 0 131 -4 183 -16 219 -22 64 -100
147 -166 177 -53 24 -56 24 -453 26 -367 3 -404 1 -453 -16z"/>
<path d="M1740 3480 c0 -5 7 -10 15 -10 8 0 15 5 15 10 0 6 -7 10 -15 10 -8 0
-15 -4 -15 -10z"/>
<path d="M5237 3484 c-8 -8 1 -24 14 -24 5 0 9 7 9 15 0 15 -12 20 -23 9z"/>
<path d="M870 3445 c0 -8 5 -15 10 -15 6 0 10 7 10 15 0 8 -4 15 -10 15 -5 0
-10 -7 -10 -15z"/>
<path d="M1750 3420 c0 -11 5 -20 10 -20 6 0 10 9 10 20 0 11 -4 20 -10 20 -5
0 -10 -9 -10 -20z"/>
<path d="M5230 3416 c0 -9 7 -16 16 -16 9 0 14 5 12 12 -6 18 -28 21 -28 4z"/>
<path d="M872 3380 c0 -14 2 -19 5 -12 2 6 2 18 0 25 -3 6 -5 1 -5 -13z"/>
<path d="M1742 3368 c6 -18 28 -21 28 -4 0 9 -7 16 -16 16 -9 0 -14 -5 -12
-12z"/>
<path d="M5230 3360 c0 -11 5 -20 10 -20 6 0 10 9 10 20 0 11 -4 20 -10 20 -5
0 -10 -9 -10 -20z"/>
<path d="M870 3324 c0 -8 5 -12 10 -9 6 3 10 10 10 16 0 5 -4 9 -10 9 -5 0
-10 -7 -10 -16z"/>
<path d="M1740 3306 c0 -9 7 -16 16 -16 9 0 14 5 12 12 -6 18 -28 21 -28 4z"/>
<path d="M5232 3299 c2 -6 8 -10 13 -10 5 0 11 4 13 10 2 6 -4 11 -13 11 -9 0
-15 -5 -13 -11z"/>
<path d="M870 3265 c0 -8 5 -15 10 -15 6 0 10 7 10 15 0 8 -4 15 -10 15 -5 0
-10 -7 -10 -15z"/>
<path d="M1740 3250 c0 -11 5 -20 10 -20 6 0 10 9 10 20 0 11 -4 20 -10 20 -5
0 -10 -9 -10 -20z"/>
<path d="M5240 3241 c0 -11 5 -23 10 -26 6 -4 10 5 10 19 0 14 -4 26 -10 26
-5 0 -10 -9 -10 -19z"/>
<path d="M6110 3231 c0 -6 5 -13 10 -16 6 -3 10 1 10 9 0 9 -4 16 -10 16 -5 0
-10 -4 -10 -9z"/>
<path d="M874 3219 c-3 -6 -1 -16 5 -22 8 -8 11 -5 11 11 0 24 -5 28 -16 11z"/>
<path d="M1740 3184 c0 -9 5 -14 12 -12 18 6 21 28 4 28 -9 0 -16 -7 -16 -16z"/>
<path d="M5237 3194 c-8 -8 1 -24 14 -24 5 0 9 7 9 15 0 15 -12 20 -23 9z"/>
<path d="M6122 3175 c0 -16 2 -22 5 -12 2 9 2 23 0 30 -3 6 -5 -1 -5 -18z"/>
<path d="M870 3150 c0 -5 5 -10 10 -10 6 0 10 5 10 10 0 6 -4 10 -10 10 -5 0
-10 -4 -10 -10z"/>
<path d="M1750 3131 c0 -11 5 -23 10 -26 6 -4 10 5 10 19 0 14 -4 26 -10 26
-5 0 -10 -9 -10 -19z"/>
<path d="M5230 3120 c0 -19 11 -26 23 -14 8 8 -3 34 -14 34 -5 0 -9 -9 -9 -20z"/>
<path d="M6110 3116 c0 -9 5 -16 10 -16 6 0 10 4 10 9 0 6 -4 13 -10 16 -5 3
-10 -1 -10 -9z"/>
<path d="M1746 3082 c-3 -6 -1 -14 5 -17 15 -10 25 3 12 16 -7 7 -13 7 -17 1z"/>
<path d="M5230 3065 c0 -8 5 -15 10 -15 6 0 10 7 10 15 0 8 -4 15 -10 15 -5 0
-10 -7 -10 -15z"/>
<path d="M6110 3049 c0 -11 5 -17 10 -14 6 3 10 13 10 21 0 8 -4 14 -10 14 -5
0 -10 -9 -10 -21z"/>
<path d="M1740 3010 c0 -19 11 -26 23 -14 8 8 -3 34 -14 34 -5 0 -9 -9 -9 -20z"/>
<path d="M5237 3013 c-12 -11 -8 -23 8 -23 8 0 15 7 15 15 0 16 -12 20 -23 8z"/>
<path d="M6110 2995 c0 -8 5 -15 10 -15 6 0 10 7 10 15 0 8 -4 15 -10 15 -5 0
-10 -7 -10 -15z"/>
<path d="M1740 2955 c0 -8 5 -15 10 -15 6 0 10 7 10 15 0 8 -4 15 -10 15 -5 0
-10 -7 -10 -15z"/>
<path d="M5240 2950 c0 -11 5 -20 10 -20 6 0 10 9 10 20 0 11 -4 20 -10 20 -5
0 -10 -9 -10 -20z"/>
<path d="M6116 2941 c-4 -7 -5 -15 -2 -18 9 -9 19 4 14 18 -4 11 -6 11 -12 0z"/>
<path d="M5232 2888 c6 -18 28 -21 28 -4 0 9 -7 16 -16 16 -9 0 -14 -5 -12
-12z"/>
<path d="M6122 2880 c0 -14 2 -19 5 -12 2 6 2 18 0 25 -3 6 -5 1 -5 -13z"/>
<path d="M5230 2830 c0 -11 5 -20 10 -20 6 0 10 9 10 20 0 11 -4 20 -10 20 -5
0 -10 -9 -10 -20z"/>
<path d="M5230 2775 c0 -9 5 -15 11 -13 6 2 11 8 11 13 0 5 -5 11 -11 13 -6 2
-11 -4 -11 -13z"/>
<path d="M5237 2723 c-12 -11 -8 -23 8 -23 8 0 15 7 15 15 0 16 -12 20 -23 8z"/>
<path d="M5245 2667 c-4 -10 -5 -21 -1 -24 10 -10 18 4 13 24 -4 17 -4 17 -12
0z"/>
<path d="M5232 2598 c6 -18 28 -21 28 -4 0 9 -7 16 -16 16 -9 0 -14 -5 -12
-12z"/>
<path d="M870 2566 c0 -9 5 -16 10 -16 6 0 10 4 10 9 0 6 -4 13 -10 16 -5 3
-10 -1 -10 -9z"/>
<path d="M5238 2554 c-5 -4 -8 -16 -8 -28 0 -14 3 -17 11 -9 6 6 9 19 7 28 -1
9 -6 13 -10 9z"/>
<path d="M5236 2493 c-9 -9 -7 -33 3 -33 12 0 22 28 12 34 -5 3 -11 3 -15 -1z"/>
<path d="M5237 2426 c-6 -15 1 -26 15 -26 4 0 8 9 8 20 0 23 -15 27 -23 6z"/>
<path d="M5240 2365 c0 -8 5 -15 10 -15 6 0 10 7 10 15 0 8 -4 15 -10 15 -5 0
-10 -7 -10 -15z"/>
<path d="M5230 2306 c0 -9 7 -16 16 -16 17 0 14 22 -4 28 -7 2 -12 -3 -12 -12z"/>
<path d="M5230 2239 c0 -11 5 -17 10 -14 6 3 10 13 10 21 0 8 -4 14 -10 14 -5
0 -10 -9 -10 -21z"/>
<path d="M872 2220 c0 -14 2 -19 5 -12 2 6 2 18 0 25 -3 6 -5 1 -5 -13z"/>
<path d="M5230 2184 c0 -17 22 -14 28 4 2 7 -3 12 -12 12 -9 0 -16 -7 -16 -16z"/>
<path d="M870 2154 c0 -8 5 -12 10 -9 6 3 10 10 10 16 0 5 -4 9 -10 9 -5 0
-10 -7 -10 -16z"/>
<path d="M5237 2134 c-8 -8 1 -24 14 -24 5 0 9 7 9 15 0 15 -12 20 -23 9z"/>
<path d="M875 2110 c-3 -5 -1 -18 4 -27 9 -16 10 -14 11 10 0 28 -5 34 -15 17z"/>
<path d="M5237 2084 c-8 -8 3 -34 14 -34 5 0 9 9 9 20 0 19 -11 26 -23 14z"/>
<path d="M876 2051 c-4 -7 -5 -15 -2 -18 9 -9 19 4 14 18 -4 11 -6 11 -12 0z"/>
<path d="M5230 2016 c0 -9 7 -16 16 -16 17 0 14 22 -4 28 -7 2 -12 -3 -12 -12z"/>
<path d="M870 1980 c0 -19 3 -21 12 -12 9 9 9 15 0 24 -9 9 -12 7 -12 -12z"/>
<path d="M5230 1961 c0 -12 5 -21 10 -21 6 0 10 6 10 14 0 8 -4 18 -10 21 -5
3 -10 -3 -10 -14z"/>
<path d="M872 1930 c0 -14 2 -19 5 -12 2 6 2 18 0 25 -3 6 -5 1 -5 -13z"/>
<path d="M5235 1899 c-4 -6 -5 -13 -2 -16 7 -7 27 6 27 18 0 12 -17 12 -25 -2z"/>
<path d="M870 1865 c0 -8 5 -15 10 -15 6 0 10 7 10 15 0 8 -4 15 -10 15 -5 0
-10 -7 -10 -15z"/>
<path d="M1740 1851 c0 -12 5 -21 10 -21 6 0 10 6 10 14 0 8 -4 18 -10 21 -5
3 -10 -3 -10 -14z"/>
<path d="M5240 1836 c0 -8 5 -18 10 -21 6 -3 10 3 10 14 0 12 -4 21 -10 21 -5
0 -10 -6 -10 -14z"/>
<path d="M6110 1825 c0 -8 5 -15 10 -15 6 0 10 7 10 15 0 8 -4 15 -10 15 -5 0
-10 -7 -10 -15z"/>
<path d="M870 1806 c0 -8 5 -18 10 -21 6 -3 10 3 10 14 0 12 -4 21 -10 21 -5
0 -10 -6 -10 -14z"/>
<path d="M1745 1789 c-4 -6 -5 -13 -2 -16 7 -7 27 6 27 18 0 12 -17 12 -25 -2z"/>
<path d="M5236 1775 c4 -8 10 -15 15 -15 5 0 9 7 9 15 0 8 -7 15 -15 15 -9 0
-12 -6 -9 -15z"/>
<path d="M1082 984 c46 -14 46 -14 37 -47 -16 -55 -14 -57 50 -57 l59 0 11 44
c6 24 13 51 17 60 5 14 -6 16 -107 15 l-114 0 47 -15z"/>
<path d="M3742 984 c46 -15 46 -15 37 -47 -16 -55 -14 -57 50 -57 l59 0 15 60
15 60 -112 -1 -111 -1 47 -14z"/>
</g>
</svg>
