<svg id="Capa_1" xmlns="http://www.w3.org/2000/svg" x="0px" y="0px" viewBox="0 0 174.9 110" xml:space="preserve"
     fill="#FF8802"><path d="M131,45.9c-1.3,1.7-4.4,5.2-12.5,9.4c-1.9,1-4,1.9-6.3,2.7c-1.7,0.7-2.2,2.4-2.3,3.7v1.4c0,0.1,0,0.1,0,0.1l0,0 v13.6c12.2-4.1,20.8-10.1,23.7-16.9c0.6-1.6,1-3.2,1-4.8C134.6,51.8,133.3,48.7,131,45.9z"></path>
    <path d="M95.9,61.4c-6.6,1.3-13.8,2.1-21.4,2.5v5.6c0,3.2-2.1,5.7-4.7,5.7s-4.7-2.6-4.7-5.7V64 C37.3,63.6,13.8,56.1,5,45.8c-2.2,2.7-3.3,5.5-3.3,8.5c0,1.6,0.4,3.2,1,4.7c5.5,12.8,32.6,22.4,65.2,22.4c11.5,0,22.3-1.2,31.7-3.3 V65.9C99.6,61.6,96.5,61.4,95.9,61.4z"></path>
    <path d="M66.4,0C29.7,0,0,12.4,0,27.7c0,1.6,0.4,3.3,1,4.8c5.4,12.6,31.3,22.3,63,22.8v-0.5c0-5.6-0.3-13.1-3.6-16.5 c-2.1-2.2-10.3-5.3-14.1-7.4c-1.3-0.6-2.5-1.3-3.4-2c-0.4-0.3-0.7-0.5-1-0.8c-1.7-1.5-2.6-3.1-2.6-4.8c0-6.4,13.2-11.7,29.4-11.7 s29.4,5.2,29.4,11.7c0,3.2-3.3,6.1-8.6,8.2c-2.1,1.2-11.2,3.5-13.6,8c-2.1,3.8-2.2,9.9-2.2,15.6c29.3-1.3,52.9-10.7,58-22.7 c0.7-1.6,1-3.2,1-4.8C132.7,12.4,103,0,66.4,0z"></path>
    <path d="M107.5,85.2v9.4c0,2.6-2.1,4.7-4.7,4.7s-4.7-2.1-4.7-4.7v-6.8c-9.4,2.1-20.3,3.3-31.8,3.3 c-28.7,0-53.1-7.5-62.4-18c-2.6,2.9-4,6.1-4,9.4c0,15.1,29.7,27.3,66.4,27.3c36.6,0,66.3-12.2,66.3-27.3c0-3.3-1.4-6.4-4-9.4 C124.5,77.9,117,82.1,107.5,85.2z"></path>
</svg>
