<svg width="151" height="151" viewBox="0 0 151 151" fill="none" xmlns="http://www.w3.org/2000/svg">
<g clip-path="url(#clip0_17_3235)">
<path d="M92.7038 69.7292L103.72 51.0369L133.412 97.2831L133.426 106.159L133.329 45.0855C133.259 43.5921 132.466 42.2261 131.201 41.4203L77.744 10.672C76.4943 10.0573 74.9077 10.0646 73.6598 10.6914C73.4909 10.7763 73.333 10.8676 73.1817 10.9682L72.9952 11.0855L21.1059 41.1545L20.9047 41.2468C20.6453 41.3649 20.3841 41.5172 20.1377 41.6926C19.1538 42.3978 18.5003 43.4417 18.2889 44.6111C18.2575 44.7883 18.2336 44.9692 18.2234 45.152L18.3046 94.9203L45.9619 52.054C49.4434 46.3703 57.0303 44.5382 64.0736 44.6388L72.339 44.8566L23.6358 122.962L29.3768 126.268L78.6633 44.936L100.449 44.8566L51.2894 128.241L74.2228 141.431C75.2584 141.852 76.4786 141.874 77.5225 141.496L131.731 110.081L121.367 116.087L92.7038 69.7292ZM96.9061 130.263L76.2155 97.788L88.8466 76.3544L116.02 119.186L96.9061 130.263Z" fill="#2D374B"/>
<path d="M76.2146 97.7889L96.9061 130.263L116.019 119.187L88.8457 76.3554L76.2146 97.7889Z" fill="#28A0F0"/>
<path d="M133.426 106.159L133.412 97.2841L103.72 51.0369L92.7038 69.7292L121.368 116.088L131.732 110.082C132.748 109.257 133.364 108.045 133.429 106.738L133.426 106.159Z" fill="#28A0F0"/>
<path d="M9 114.529L23.6358 122.962L72.339 44.8566L64.0736 44.6388C57.0313 44.5391 49.4443 46.3703 45.9619 52.054L18.3046 94.9203L9 109.216V114.529Z" fill="white"/>
<path d="M100.449 44.8566L78.6633 44.936L29.3768 126.268L46.6043 136.186L51.2894 128.241L100.449 44.8566Z" fill="white"/>
<path d="M142.606 44.744C142.424 40.1881 139.957 36.0181 136.093 33.5897L81.9353 2.44447C78.1132 0.520047 73.3386 0.517279 69.5091 2.44355C69.0568 2.67153 16.8417 32.9547 16.8417 32.9547C16.119 33.3008 15.4231 33.7134 14.7687 34.1823C11.3195 36.655 9.2169 40.4964 9 44.7163V109.217L18.3046 94.9203L18.2234 45.152C18.2345 44.9701 18.2575 44.7902 18.2889 44.6139C18.4994 43.4426 19.1538 42.3987 20.1377 41.6926C20.3841 41.5172 73.4909 10.7763 73.6598 10.6914C74.9086 10.0646 76.4933 10.0573 77.7431 10.672L131.201 41.4203C132.466 42.2261 133.258 43.5921 133.328 45.0855V106.736C133.263 108.043 132.747 109.255 131.73 110.08L77.5216 141.495C76.4777 141.873 75.2565 141.851 74.2219 141.43L51.2884 128.24L46.6034 136.185L67.2136 148.051C67.8948 148.439 68.5021 148.782 69.0005 149.063C69.7722 149.496 70.2983 149.784 70.4838 149.875C71.9486 150.586 74.0557 151 75.9552 151C77.696 151 79.3943 150.681 81.0012 150.051L137.302 117.447C140.534 114.943 142.435 111.167 142.606 107.077V44.744Z" fill="#96BEDC"/>
</g>
<defs>
<clipPath id="clip0_17_3235">
<rect width="150" height="150" fill="white" transform="translate(0.832001 0.643997)"/>
</clipPath>
</defs>
</svg>
